<?xml version="1.0" standalone="no"?>
<!DOCTYPE svg PUBLIC "-//W3C//DTD SVG 1.1//EN" "http://www.w3.org/Graphics/SVG/1.1/DTD/svg11.dtd" >
<svg xmlns="http://www.w3.org/2000/svg">
<metadata></metadata>
<defs>
<font id="akzidenz-grotesk_bqBdIt" horiz-adv-x="1236" >
<font-face units-per-em="2048" ascent="1638" descent="-410" />
<missing-glyph horiz-adv-x="598" />
<glyph horiz-adv-x="2048" />
<glyph horiz-adv-x="2048" />
<glyph unicode="&#xd;" horiz-adv-x="2048" />
<glyph unicode=" "  horiz-adv-x="598" />
<glyph unicode="&#x09;" horiz-adv-x="598" />
<glyph unicode="&#xa0;" horiz-adv-x="598" />
<glyph unicode="!" horiz-adv-x="598" d="M43 0l74 330h323l-73 -330h-324zM254 500l16 499l103 447h323l-100 -447l-209 -499h-133z" />
<glyph unicode="&#x22;" horiz-adv-x="651" d="M190 899l76 623h211l-211 -623h-76zM522 899l76 623h211l-211 -623h-76z" />
<glyph unicode="#" horiz-adv-x="1366" d="M55 381l45 254h230l59 194h-205l45 254h240l115 363h254l-115 -363h205l112 363h256l-112 -363h186l-45 -254h-223l-58 -194h199l-43 -254h-237l-121 -381h-258l123 381h-203l-121 -381h-254l119 381h-193zM584 635h202l62 194h-205z" />
<glyph unicode="$" horiz-adv-x="1366" d="M27 238l284 170q15 -21 33 -39q40 -48 84.5 -68.5t120.5 -38.5l88 326q-49 15 -68 21.5t-63.5 22.5t-68.5 30t-57.5 34.5t-58.5 46t-45 56.5q-24 42 -34 71q-17 52 -17 111q0 143 92 254q173 210 538 185q9 -1 13 -1l33 113h115l-35 -131q71 -16 125 -35q53 -19 97 -44 t76 -54t48.5 -47t36.5 -43l-262 -179q-29 42 -45 58q-32 31 -64 46.5t-84 31.5l-82 -293q52 -15 80.5 -23.5t73.5 -25.5t73.5 -34.5t61.5 -42.5t57 -58t41 -74q33 -75 33 -154q0 -119 -69 -225q-42 -65 -106.5 -113t-122.5 -71t-125.5 -36.5t-101.5 -15.5t-65 -2h-67 l-58 -198h-118l57 213q-156 32 -246 81q-57 32 -99 70.5t-99 104.5zM569 1008q0 -25 11 -47q29 -53 139 -84l72 272q-93 -4 -132 -21q-38 -16 -64 -48.5t-26 -71.5zM666 252q77 0 135 27q40 19 69 56.5t29 80.5q0 30 -18 59q-10 17 -23.5 29.5t-33.5 22.5t-33.5 15.5 t-40.5 14.5z" />
<glyph unicode="%" horiz-adv-x="1705" d="M109 827q0 186 94 365q116 209 297 215q100 3 174 -59q102 -89 102 -277q0 -73 -16 -153q-6 -24 -12.5 -47.5t-30.5 -82t-52 -104.5t-76.5 -94t-105.5 -70q-53 -20 -106 -20q-76 0 -135 39q-133 83 -133 288zM307 760q0 -72 31 -94q19 -15 41 -15q38 0 72 41 q44 52 75 160q56 168 56 281q0 60 -20.5 92t-55.5 30q-62 0 -107 -98q-40 -83 -66 -195.5t-26 -201.5zM313 0l944 1389h177l-945 -1389h-176zM971 309q0 190 94 363q14 25 23.5 40.5t38.5 52t58.5 59t77 42.5t99.5 21q102 3 174 -60q102 -89 102 -276q0 -74 -16 -152 q-5 -22 -12.5 -48t-30.5 -83t-51 -103.5t-76.5 -94t-105.5 -70.5q-53 -20 -107 -20q-77 0 -135 38q-133 85 -133 291zM1167 240q0 -69 33 -95q21 -14 41 -14q38 0 72 41q40 50 76 160q55 193 55 282q0 60 -20.5 91.5t-55.5 31.5q-59 0 -108 -100q-39 -86 -66 -197.5 t-27 -199.5z" />
<glyph unicode="&#x26;" horiz-adv-x="1449" d="M35 362q0 71 28 152q61 165 263 279q19 12 43 24t41 20t46.5 21t43.5 19q-2 7 -10 33.5t-10.5 37t-8 33t-8 36t-4.5 32.5t-2 36q0 68 30 136q45 108 150 172.5t227 64.5q83 0 156 -31q46 -19 81 -48t54.5 -58t31.5 -62.5t15.5 -57.5t3.5 -46q0 -109 -84 -205 q-35 -39 -84.5 -73.5t-85 -52.5t-100.5 -48q40 -98 63 -147q18 -43 64 -129q57 68 82 106t65 117l232 -94q-25 -50 -58 -109q-30 -54 -60.5 -97.5t-51.5 -69t-76 -87.5q45 -40 85 -50q20 -5 42 -5q25 0 82 14l-53 -225q-74 -6 -152 -6q-50 0 -78 4q-37 7 -72.5 27.5 t-45.5 30t-31 30.5q-61 -36 -78 -45q-142 -72 -322 -70q-104 0 -198 29q-120 41 -188 137t-68 225zM352 391q0 -27 8.5 -54t27.5 -56t60 -47.5t97 -18.5q26 0 52 5t45 11.5t40.5 17.5t32 17.5t27 18t18.5 12.5q-51 93 -88 172q-10 20 -84 193q-80 -36 -131 -76 q-105 -85 -105 -195zM739 1133q0 -35 33 -150q10 5 31 14.5t31 14.5q118 59 118 139q0 39 -31 67.5t-71 26.5q-32 0 -53 -14q-58 -30 -58 -98z" />
<glyph unicode="'" horiz-adv-x="319" d="M190 899l76 623h211l-211 -623h-76z" />
<glyph unicode="(" horiz-adv-x="686" d="M63 471q0 400 246 725q194 262 518 451l101 -140q-126 -95 -210.5 -175t-148.5 -165q-112 -150 -172.5 -337t-60.5 -381q0 -273 102 -494q39 -80 97 -160l-140 -131q-89 109 -129 170q-203 298 -203 637z" />
<glyph unicode=")" horiz-adv-x="686" d="M-238 -195q127 95 210.5 174t148.5 166q112 152 172.5 339t60.5 380q0 276 -102 494q-36 77 -96 160l139 131q85 -101 131 -168q201 -299 201 -637q0 -125 -29 -264q-28 -129 -79.5 -239t-137.5 -224q-101 -136 -225 -244.5t-291 -206.5z" />
<glyph unicode="*" horiz-adv-x="841" d="M160 1174l106 192l191 -104l47 211l215 -50l-47 -211l223 23l23 -219l-213 -23l86 -182l-199 -96l-94 198l-162 -141l-146 166l152 133z" />
<glyph unicode="+" horiz-adv-x="1482" d="M190 532l62 267h373l96 411h340l-96 -411h383l-60 -267h-383l-94 -417h-342l96 417h-375z" />
<glyph unicode="," horiz-adv-x="512" d="M-131 -360l35 149q82 51 111 86t63 125h-123l76 332h327q-7 -30 -18 -81t-18 -82.5t-18.5 -77.5t-23 -77.5t-28.5 -71.5t-37 -70t-46 -61.5t-59.5 -57.5t-72.5 -48q-52 -28 -168 -65z" />
<glyph unicode="-" horiz-adv-x="770" d="M53 485l68 293h612l-67 -293h-613z" />
<glyph unicode="." horiz-adv-x="512" d="M-41 0l76 338h323l-75 -338h-324z" />
<glyph unicode="/" horiz-adv-x="937" d="M-143 0l985 1446h291l-983 -1446h-293z" />
<glyph unicode="0" horiz-adv-x="1150" d="M61 485q0 125 33 269q9 39 13.5 57t21.5 76t37.5 102t50 102t71.5 110t91 95q151 132 315 127q108 0 211 -57q223 -123 223 -463q0 -71 -12 -158q-6 -43 -16 -90.5t-32.5 -129t-64.5 -168.5t-96 -158q-52 -68 -111.5 -116t-115.5 -71t-100.5 -32t-87.5 -9q-110 0 -203 52 q-43 24 -80.5 59t-72.5 89.5t-55.5 135t-19.5 178.5zM377 381q0 -106 51 -145q31 -23 68 -23q52 0 95.5 47t88.5 143q72 151 103.5 315t31.5 257q0 103 -27 149q-33 58 -96 58q-49 0 -98 -54q-93 -104 -166 -385q-51 -200 -51 -362z" />
<glyph unicode="1" horiz-adv-x="1150" d="M242 977l49 223q72 1 112 4t95.5 17.5t99.5 42.5q39 26 64 52.5t57 72.5h248l-314 -1389h-329l229 1012q-98 -24 -150 -29.5t-161 -5.5z" />
<glyph unicode="2" horiz-adv-x="1150" d="M-23 0l50 217l596 490q10 8 21 17.5t23.5 21t20.5 18.5l7 7q7 7 12.5 12t15 15.5t17 20t17.5 23.5t18 26.5t15.5 28.5t13 31.5t8.5 33.5t3 35q0 74 -45.5 124t-118.5 50q-45 0 -90 -27t-74 -95q-31 -76 -24 -201l-305 37q4 56 8 88q12 144 100 260q37 50 84.5 87t89.5 56 t90 30.5t77 14t59 2.5q39 0 83 -6.5t110 -26.5t127 -69t99 -121q50 -93 50 -192q0 -80 -33 -160q-51 -131 -189 -252q-45 -40 -100 -82l-350 -254h571l-59 -260h-998z" />
<glyph unicode="3" horiz-adv-x="1150" d="M-1.5 396.5q1.5 33.5 1.5 62.5l334 35q-10 -40 -10 -80q0 -82 53.5 -138t132.5 -55q57 0 98 25q59 33 81.5 94.5t19.5 101.5q0 59 -31 101q-23 31 -53.5 45.5t-61 14.5t-67.5 -1l45 213q39 -8 75 -8q76 0 129 41q37 29 58.5 82.5t21.5 103.5q0 97 -67 131q-40 17 -80 17 q-45 0 -86 -23q-95 -50 -107 -201l-317 37q10 82 27 131t63 103q25 31 60 61.5t87.5 62t125 51t151.5 19.5q131 0 242 -51q56 -25 99 -61.5t67 -73t39.5 -77t20.5 -71t5 -57.5q0 -78 -37.5 -148.5t-101.5 -113.5q-43 -26 -133 -57q36 -20 67 -45q53 -45 82 -110t29 -138 q0 -58 -26 -132.5t-93 -144.5q-27 -30 -63 -56.5t-89.5 -55t-127.5 -45.5t-156 -17q-98 0 -191 27q-181 49 -262 199q-29 53 -42.5 110.5t-12 91z" />
<glyph unicode="4" horiz-adv-x="1150" d="M-33 340l62 262l704 787h379l-184 -818h202l-53 -231h-203l-77 -340h-324l78 340h-584zM276 571h330l125 514z" />
<glyph unicode="5" horiz-adv-x="1150" d="M18 434l330 15q-1 -33 -1 -59.5t8 -54.5t26 -52q20 -25 53.5 -41.5t63.5 -16.5q55 0 106 41q44 34 81.5 103.5t37.5 169.5q0 55 -15.5 96t-40.5 62.5t-52 31.5t-56 10q-32 0 -67 -14q-25 -11 -48.5 -31.5t-34 -33t-34.5 -44.5l-279 48l174 725h828l-60 -259h-546 l-62 -239q2 1 14 9t15.5 10t16 9.5t19 10.5t20 9t23 8.5t25 6.5t29.5 6t31.5 3.5t35.5 1.5q23 0 52.5 -4t73 -14t89.5 -34.5t82 -60.5q109 -114 109 -301q0 -170 -100 -318q-55 -83 -125 -139.5t-140 -81t-120 -33t-99 -8.5q-205 0 -338 125q-67 64 -94 137q-23 63 -31 201z " />
<glyph unicode="6" horiz-adv-x="1150" d="M86 535q0 200 78 407q39 103 86 181.5t98 128t96.5 79.5t98.5 51q103 41 213 41q77 0 140 -20t103.5 -54t64.5 -65.5t40 -66.5q37 -76 47 -164l-307 -41q-2 20 -10 55q-5 18 -10 30.5t-19 34t-39 33t-59 11.5q-38 0 -82.5 -22.5t-81.5 -76.5q-14 -19 -26 -41t-21 -41 t-17.5 -41.5t-13.5 -38t-10.5 -36.5t-7.5 -30.5t-5.5 -26t-3.5 -17.5q24 30 45 51q86 86 215 86q72 0 142 -31q58 -26 101 -67.5t65 -81.5t34.5 -87t15.5 -75t3 -55q0 -64 -10 -111q-10 -40 -25 -84t-58.5 -120.5t-99.5 -129.5q-64 -61 -152 -96t-179 -35q-69 0 -130 20 t-104 53t-68.5 59t-44.5 53q-102 148 -102 381zM414 414q0 -61 19 -105t44 -67q29 -23 64 -23q42 0 80 33q37 31 71.5 102.5t34.5 161.5t-37 143q-34 48 -90 48q-28 0 -65 -23q-55 -37 -88 -117.5t-33 -152.5z" />
<glyph unicode="7" horiz-adv-x="1150" d="M102 0q0 1 9 31.5t11 37.5t11.5 38t14 44.5t15.5 45.5t19.5 52t22.5 52.5t27 59t30 59.5t35 65q66 116 154 236.5t148.5 192.5t184.5 214h-661l57 261h1020l-55 -246q-117 -123 -203 -228q-149 -184 -256 -379t-151 -313q-28 -72 -64 -223h-369z" />
<glyph unicode="8" horiz-adv-x="1150" d="M63 385q0 101 45 190.5t130 137.5q44 24 153 51q-64 43 -67 45q-95 80 -95 219q0 92 52 180q20 34 51 67.5t79.5 68.5t120.5 57t154 22q103 0 188 -32q60 -22 104.5 -57t69 -70t39.5 -77t19 -71.5t4 -58.5q0 -78 -33 -149.5t-94 -114.5q-45 -30 -125 -58q54 -27 74 -41 q133 -90 133 -264q0 -114 -64 -223q-69 -119 -193 -178.5t-271 -59.5q-153 0 -261 62q-33 18 -63.5 42t-68 66.5t-60 106.5t-21.5 139zM387 358q0 -49 17 -84.5t44 -53t51 -25t46 -7.5q48 0 86 25q36 25 65 77t29 128q0 46 -12 78q-12 34 -50 67.5t-100 32.5q-49 -2 -86 -29 q-42 -29 -66 -90.5t-24 -118.5zM532 991q1 -79 37.5 -119.5t81.5 -40.5q48 7 76 31q34 29 53 82t17 100q0 103 -60 144q-25 18 -65 16q-35 -3 -60 -22q-39 -29 -59.5 -83t-20.5 -108z" />
<glyph unicode="9" horiz-adv-x="1150" d="M29 338l309 41q2 -18 10 -53q28 -109 127 -109q95 0 162 98q16 22 29.5 46t23.5 48.5t18 45t14 44.5t9.5 36t7.5 31t4 20l-15 -18q-16 -19 -30 -31q-86 -86 -215 -86q-78 0 -141 30q-58 26 -101 67.5t-65 81t-34.5 87t-15.5 75.5t-3 56q0 61 10 110q8 36 24 82.5 t59 122.5t99 129q64 61 151.5 95t180.5 34q69 0 130 -19.5t103.5 -52t68 -59t44.5 -53.5q103 -147 103 -381q0 -70 -17 -186q-7 -37 -20.5 -87.5t-43.5 -137.5t-83 -174.5t-119 -149.5q-81 -75 -174 -111q-103 -41 -213 -41q-77 0 -140 20t-103.5 54.5t-64.5 65.5t-40 67 q-24 48 -49 162zM455 874q0 -91 37 -143q10 -15 33 -31t55 -16q31 0 67 25q55 36 88 116t33 154q0 61 -19 105t-44 65q-27 22 -64 22q-43 0 -80 -30q-37 -31 -71.5 -103.5t-34.5 -163.5z" />
<glyph unicode=":" horiz-adv-x="598" d="M41 0l76 338h323l-73 -338h-326zM207 731l72 324h323l-72 -324h-323z" />
<glyph unicode=";" horiz-adv-x="598" d="M-45 -360l35 149q82 51 111 86.5t61 124.5h-121l76 332h325q-7 -30 -19.5 -91.5t-19.5 -93.5t-21.5 -86t-28 -86t-36.5 -76.5t-49 -74.5t-63 -62t-82 -57q-52 -28 -168 -65zM213 727l76 328h321l-75 -328h-322z" />
<glyph unicode="&#x3c;" horiz-adv-x="1482" d="M209 526l76 314l1052 432l-84 -342l-706 -273l579 -297l-75 -317z" />
<glyph unicode="=" horiz-adv-x="1482" d="M186 276l62 269h1077l-61 -269h-1078zM289 721l61 268h1077l-61 -268h-1077z" />
<glyph unicode="&#x3e;" horiz-adv-x="1482" d="M160 37l84 340l706 272l-579 297l75 318l842 -484l-76 -311z" />
<glyph unicode="?" horiz-adv-x="1150" d="M152 1065q53 133 86 184q28 40 66.5 75t96 69t141 53.5t181.5 19.5q192 0 330 -82q25 -15 48 -34t53.5 -53.5t48.5 -86t18 -112.5q0 -120 -70 -215q-60 -85 -201 -150q-13 -6 -77.5 -34.5t-105 -50t-71.5 -46.5q-22 -18 -34.5 -35t-38.5 -63h-287q11 79 49 137 q15 22 35.5 43t39 36.5t54.5 40t58 38t76.5 46.5t84.5 52q37 23 55.5 36t42.5 39.5t33 55.5q6 12 6 41q0 49 -41.5 92t-126.5 43q-38 0 -70.5 -10t-54 -23.5t-40.5 -37t-29 -39t-20 -43t-12 -35t-7 -27.5zM209 0l76 324h323l-71 -324h-328z" />
<glyph unicode="@" horiz-adv-x="1724" d="M84 455q0 202 78 388.5t209 321.5t311 216t375 81q269 0 431.5 -156t162.5 -415q0 -113 -28 -225.5t-77.5 -206t-113.5 -166t-140.5 -113.5t-152.5 -41q-75 0 -124 37t-59 103q-119 -140 -262 -140q-126 0 -199 87.5t-73 238.5q0 156 65 297t172.5 226t227.5 85 q51 0 98 -18q35 -13 58.5 -35t54.5 -70l24 82h185l-80 -325q-70 -290 -70 -342q0 -54 39 -54q49 0 121 88q74 92 118 223t44 257q0 195 -118.5 307t-324.5 112q-153 0 -297.5 -68.5t-251 -181t-171 -265.5t-64.5 -314q0 -254 149 -397q79 -76 198.5 -119t250.5 -43 q369 0 680 299l90 -127q-88 -78 -137.5 -116t-116.5 -77q-246 -141 -522 -141q-168 0 -320.5 58t-255.5 161q-184 181 -184 488zM633 487q0 -78 33 -120.5t92 -42.5q42 0 87 28t81 78q40 54 68 138t28 151v4q0 77 -35.5 122.5t-95.5 45.5q-56 0 -107 -41.5t-88 -116.5 q-63 -126 -63 -246z" />
<glyph unicode="A" horiz-adv-x="1449" d="M-141 0l882 1446h406l153 -1446h-352l-18 287h-533l-159 -287h-379zM545 549h368l-39 594z" />
<glyph unicode="B" horiz-adv-x="1449" d="M-2 0l328 1446h651q94 0 165 -15.5t130 -62.5q35 -23 65 -72q54 -84 54 -192q0 -100 -46 -178.5t-133 -122.5q-45 -22 -116 -41q96 -41 145 -84q48 -40 73 -104.5t25 -137.5q0 -62 -20 -123q-58 -179 -244 -264q-61 -26 -116 -37.5t-156 -11.5h-805zM410 266h313 q76 0 125 15.5t84 66.5q33 50 33 119q0 61 -30.5 93.5t-66.5 43.5q-31 10 -80 10h-301zM547 877h268q66 0 114 14t79 57q30 42 30 105q0 54 -28 86q-20 23 -41 30q-38 17 -90 17h-263z" />
<glyph unicode="C" horiz-adv-x="1492" d="M111 633q0 113 22 209q33 148 118 284t204 222q188 133 440 133q211 -2 371 -97q84 -46 139 -112q36 -43 58 -87t48 -114l-346 -78q-24 63 -30 74q-26 48 -83.5 90.5t-148.5 42.5q-158 0 -270 -141q-53 -65 -97 -174.5t-44 -249.5q1 -97 26 -172t66 -117t88 -63t96 -21 q109 0 207 88q46 40 73.5 83t61.5 114l301 -168q-51 -91 -80 -129q-26 -35 -55 -66t-83 -74t-112.5 -73.5t-143.5 -52.5t-177 -23q-230 0 -404 127q-245 177 -245 545z" />
<glyph unicode="D" horiz-adv-x="1536" d="M0 0l330 1446h571q21 0 113 -10q181 -23 291 -113q180 -142 180 -451q0 -182 -56.5 -344t-173.5 -288.5t-278 -184.5q-85 -30 -180 -42.5t-267 -12.5h-530zM416 279h159q111 0 191 17t145 73q33 29 64.5 70.5t65.5 103.5t55 148q20 82 20 172v9q0 137 -63 207 q-43 50 -97 68q-61 22 -159 22h-181z" />
<glyph unicode="E" horiz-adv-x="1366" d="M0 0l330 1446h1040l-63 -277h-686l-64 -280h662l-60 -264h-661l-80 -351h788l-59 -274h-1147z" />
<glyph unicode="F" horiz-adv-x="1280" d="M0 0l330 1446h1042l-59 -270h-686l-72 -316h662l-64 -276h-661l-134 -584h-358z" />
<glyph unicode="G" horiz-adv-x="1662" d="M109 616q0 161 53.5 316.5t150.5 275.5q224 277 607 277q161 0 308.5 -59t233.5 -177q20 -28 35 -58t21 -47t22 -65l-344 -90q-21 69 -39 98q-28 43 -89 78t-150 35q-175 0 -291 -151q-64 -83 -98.5 -200t-34.5 -228q0 -84 20 -154q31 -107 109.5 -168t191.5 -61 q80 0 153.5 34.5t116.5 96.5q33 47 60 137h-301l61 276h635l-176 -782h-324l27 121q-1 0 -15.5 -14t-36.5 -33.5t-36 -30.5q-114 -82 -274 -82q-120 2 -235.5 48.5t-193.5 129.5q-29 31 -54.5 69.5t-53 97t-43.5 139t-16 171.5z" />
<glyph unicode="H" horiz-adv-x="1536" d="M0 0l330 1446h358l-119 -526h537l119 526h360l-328 -1446h-360l145 641h-538l-146 -641h-358z" />
<glyph unicode="I" horiz-adv-x="641" d="M4 0l324 1446h360l-323 -1446h-361z" />
<glyph unicode="J" horiz-adv-x="811" d="M-117 0l70 301h90q114 0 164 37q26 19 46 56.5t26 58.5t8 36l215 957h358l-242 -1079q-23 -97 -50 -157t-85 -112q-70 -61 -142.5 -79.5t-178.5 -18.5h-279z" />
<glyph unicode="K" horiz-adv-x="1492" d="M-2 0l326 1446h342l-134 -594l631 594h430l-632 -578l417 -868h-379l-294 641l-277 -252l-86 -389h-344z" />
<glyph unicode="L" horiz-adv-x="1150" d="M2 0l326 1446h358l-260 -1153h610l-67 -293h-967z" />
<glyph unicode="M" horiz-adv-x="1835" d="M4 0l324 1446h534l25 -948l448 948h543l-326 -1446h-335l258 1118l-541 -1118h-303l-41 1135l-248 -1135h-338z" />
<glyph unicode="N" horiz-adv-x="1449" d="M-2 0l332 1446h356l289 -932l196 932h330l-330 -1446h-352l-284 928l-205 -928h-332z" />
<glyph unicode="O" horiz-adv-x="1622" d="M98 594q0 110 27 221q37 146 115 279.5t186 222.5q94 78 225 123q127 45 281 45q301 0 479 -178q164 -166 164 -441q0 -234 -115 -456q-33 -62 -96 -150q-169 -213 -416 -272q-95 -23 -207 -23q-95 0 -178 17.5t-143.5 46.5t-102.5 59t-73 64q-59 66 -102.5 176 t-43.5 266zM463 578q0 -83 24 -146q35 -88 108 -136q70 -46 161 -46h8q125 0 227 82q103 83 163 239t60 297q0 98 -30 162q-37 81 -119 123q-73 38 -158 38q-10 0 -20 -1q-48 -2 -99 -19q-168 -57 -256 -268q-30 -70 -49.5 -161.5t-19.5 -163.5z" />
<glyph unicode="P" horiz-adv-x="1409" d="M0 0l326 1446h622q94 0 160.5 -14t136.5 -58q61 -39 94 -82q86 -105 86 -278q0 -40 -6 -81t-23.5 -101.5t-60 -121.5t-104.5 -110q-78 -62 -176 -92q-106 -31 -273 -31h-315l-109 -477h-358zM526 737h256q115 0 183 54q44 35 71 93t27 117q0 52 -23 97q-28 52 -77 71 t-117 19h-217z" />
<glyph unicode="Q" horiz-adv-x="1662" d="M98 594q0 110 27 215q9 41 26.5 91t51.5 125.5t92.5 154t130.5 137.5q66 55 144 91.5t150.5 51.5t120 20t91.5 5q308 0 487 -187q156 -165 156 -430q0 -234 -102 -438q-10 -21 -68 -119q64 -39 68 -41q44 -26 85.5 -40.5t63.5 -18t55 -6.5l-131 -264q-36 0 -82 10 q-47 11 -98.5 38t-81 48t-84.5 63q-78 -47 -98 -57q-159 -78 -363 -78q-170 0 -290 50.5t-189 119.5q-66 64 -114 178t-48 281zM463 578q0 -83 24 -146q35 -89 108 -136q70 -46 161 -46h8q125 0 227 82q103 83 163 239t60 297q0 98 -30 162q-37 81 -119 123q-73 38 -158 38 q-10 0 -20 -1q-48 -2 -99 -19q-168 -57 -256 -268q-30 -70 -49.5 -161.5t-19.5 -163.5z" />
<glyph unicode="R" horiz-adv-x="1449" d="M0 0l328 1446h637q59 0 90 -2q137 -13 229 -78q160 -114 160 -340q0 -132 -62 -242q-41 -70 -96 -114q-62 -46 -209 -97l236 -573h-393l-191 518h-252l-119 -518h-358zM539 786h303q28 0 78 9q89 20 135 102q30 55 30 121q0 62 -30 100q-28 36 -67.5 50t-115.5 14h-243z " />
<glyph unicode="S" horiz-adv-x="1366" d="M-33 297l318 199q10 -39 34 -78q18 -27 43.5 -52.5t65 -52.5t96.5 -43t123 -16q93 0 160 37q47 26 66.5 61.5t19.5 67.5q-3 77 -117 127q-53 23 -175.5 64.5t-184.5 70.5q-29 14 -49.5 25.5t-61 43t-66 65.5t-46.5 89.5t-21 118.5q0 118 74 231q155 228 534 228 q36 0 75 -3.5t111.5 -15.5t146 -45.5t130.5 -83.5q49 -45 127 -155l-301 -172q-14 44 -37 77q-42 61 -125.5 92t-167.5 31q-55 0 -98 -14q-53 -20 -79.5 -55.5t-26.5 -65.5q0 -24 14 -51q10 -15 25 -27.5t42.5 -25t47 -20t64.5 -23t69 -23.5q124 -43 215 -86 q256 -117 256 -366q0 -198 -160 -336q-176 -152 -473 -152q-205 0 -350 61t-224 144q-36 36 -94 129z" />
<glyph unicode="T" horiz-adv-x="1280" d="M193 1165l71 281h1135l-72 -281h-375l-262 -1165h-362l262 1165h-397z" />
<glyph unicode="U" horiz-adv-x="1492" d="M121 416q0 74 31 225l180 805h362l-196 -883q-15 -52 -15 -108q0 -37 15 -72q18 -41 69.5 -74t130.5 -33q32 0 59 5.5t60.5 21t64 51t54.5 88.5q29 71 39 113l209 891h360l-213 -950q-24 -107 -55.5 -185.5t-87.5 -142.5q-86 -101 -222.5 -151t-281.5 -50q-120 0 -227 31 q-121 34 -193 97t-104 128q-39 80 -39 193z" />
<glyph unicode="V" horiz-adv-x="1366" d="M188 1446h359l96 -1057l526 1057h379l-764 -1446h-422z" />
<glyph unicode="W" horiz-adv-x="2004" d="M203 1446h348v-1040l463 1040h344l-17 -1047l486 1047h352l-721 -1446h-409l24 934l-414 -934h-409z" />
<glyph unicode="X" horiz-adv-x="1449" d="M-145 0l700 782l-330 664h387l193 -412l360 412h424l-631 -705l363 -741h-381l-229 483l-414 -483h-442z" />
<glyph unicode="Y" horiz-adv-x="1366" d="M199 1446h358l201 -520l379 520h407l-682 -836l-137 -610h-358l145 655z" />
<glyph unicode="Z" horiz-adv-x="1366" d="M-37 0l68 297l884 866h-696l66 283h1145l-70 -297l-887 -868h748l-64 -281h-1194z" />
<glyph unicode="[" horiz-adv-x="598" d="M-78 -295l436 1890h457l-39 -172h-186l-357 -1546h187l-39 -172h-459z" />
<glyph unicode="\" horiz-adv-x="937" d="M190 1446h293l314 -1446h-289z" />
<glyph unicode="]" horiz-adv-x="598" d="M-207 -293l39 172h186l357 1544h-187l41 172h457l-436 -1888h-457z" />
<glyph unicode="^" horiz-adv-x="1482" d="M143 575l619 871h319l248 -871h-332l-120 572l-369 -572h-365z" />
<glyph unicode="_" horiz-adv-x="1019" d="M-258 -473l53 225h1063l-51 -225h-1065z" />
<glyph unicode="`" horiz-adv-x="641" d="M55 1520h338l193 -332h-193z" />
<glyph unicode="a" d="M20 268q0 68 23 123q63 164 285 230q67 19 168.5 29t300.5 22q20 77 20 110q0 36 -17.5 60t-46.5 33t-46.5 11.5t-36.5 2.5q-112 0 -160 -80q-19 -35 -27 -68l-315 9q28 87 54.5 136.5t80.5 94.5q77 64 177 86.5t229 22.5q206 0 311 -74q53 -37 80 -86q28 -53 28 -131 q0 -61 -20 -148l-125 -555q-6 -25 -6 -51q0 -11 6 -45h-303q-10 45 -10 49q0 6 18 98q-17 -35 -41 -61q-43 -46 -121 -81.5t-188 -35.5q-56 0 -105 13q-99 24 -156 102.5t-57 183.5zM338 303q0 -24 10 -47q22 -61 121 -61q118 0 197 92q55 62 84 188q-17 -1 -49 -2t-48 -2 q-173 -8 -254 -65q-61 -41 -61 -103z" />
<glyph unicode="b" horiz-adv-x="1280" d="M-6 0l325 1446h320l-104 -461q85 53 142.5 76.5t137.5 23.5q93 0 162 -34q57 -26 98.5 -74t62 -94.5t32.5 -103t14 -85.5t2 -55q0 -101 -33 -209t-90 -197q-78 -124 -187.5 -194t-244.5 -70q-29 0 -63.5 3.5t-96.5 26.5t-100 64q-4 4 -37 54l-27 -117h-313zM412 424 q0 -57 18 -100t46 -65.5t57 -33t57 -10.5q66 0 129 53q72 60 109.5 168t37.5 213q0 51 -16 99q-20 50 -66 78q-42 26 -90 26h-10q-54 -4 -113.5 -47.5t-99.5 -130.5q-9 -20 -21 -51.5t-25 -90t-13 -108.5z" />
<glyph unicode="c" horiz-adv-x="1191" d="M57 471q0 140 66.5 275.5t175.5 220.5q59 46 154.5 84.5t220.5 38.5q79 0 149 -18t118.5 -47.5t80 -57.5t53.5 -58q25 -33 41.5 -68.5t42.5 -111.5l-282 -61q-12 46 -31 82q-55 92 -176 92q-75 0 -133 -43q-70 -50 -113 -148.5t-43 -191.5q0 -159 111 -213 q52 -23 104 -23q42 0 77.5 14t56.5 31t40 45t25.5 41.5t15.5 35.5q1 3 2 5l287 -88q-51 -96 -86 -139q-26 -32 -60 -61.5t-87.5 -63t-128.5 -54t-160 -20.5q-124 0 -232 45q-137 60 -213 181t-76 276z" />
<glyph unicode="d" horiz-adv-x="1280" d="M59 416q0 48 6.5 102t35.5 144t77 167q50 79 113.5 134.5t126 81t110.5 35.5t93 10q136 0 229 -70q38 -30 68 -74l112 500h318l-328 -1446h-315l14 74q-8 -6 -24.5 -17.5t-24.5 -17.5q-106 -68 -234 -68q-132 0 -227 80q-150 121 -150 365zM377 422q0 -85 35 -141 q45 -70 139 -70q126 0 207 121q38 58 61 143.5t23 157.5q0 48 -13 88q-20 59 -67 91q-43 30 -97 30h-10q-58 -2 -110 -39q-82 -55 -125 -163t-43 -218z" />
<glyph unicode="e" d="M59 477q0 74 17 144q28 118 99 221.5t169 165.5q135 84 315 84q36 0 73 -4.5t95.5 -18.5t117 -51t102.5 -92q57 -72 77 -152q21 -74 21 -164q0 -49 -8 -139h-768q-1 -17 -1 -34q0 -144 95 -195q51 -29 119 -29q119 0 198 82q22 26 51 74l265 -93q-40 -65 -70 -104 q-156 -203 -453 -203q-128 0 -227 41q-138 57 -212.5 183t-74.5 284zM410 670h452q0 49 -10 80q-16 44 -63.5 82t-126.5 38q-82 0 -156 -59q-30 -27 -49 -54t-47 -87z" />
<glyph unicode="f" horiz-adv-x="681" d="M37 0l192 870h-145l43 191h149q8 52 25 115q18 70 44.5 122t58.5 84t62.5 50t68.5 30q69 21 145 21q38 0 85 -6.5t84 -14.5t38 -8l-45 -209h-92q-57 0 -88 -20q-48 -34 -70 -164h188l-45 -191h-186l-197 -870h-315z" />
<glyph unicode="g" horiz-adv-x="1280" d="M-59 -92q0 16 3 38t6 37.5t3 16.5h328q-11 -43 -11 -61q0 -36 19.5 -61.5t43.5 -37.5t56 -18.5t44 -7t22 -0.5q69 0 116 24q37 19 65 53.5t45 82.5t25 81t17 84q-3 -3 -21.5 -17.5t-29.5 -21.5q-93 -65 -211 -65q-89 0 -171 35.5t-134 99.5q-95 114 -95 301 q0 197 115 375q39 64 107 125q80 71 180 100q72 25 149 25q28 0 59.5 -3.5t85.5 -22t93 -50.5q23 -17 61 -64l25 99h305l-205 -903q-18 -78 -28 -119t-35 -110.5t-53 -110.5q-59 -89 -179.5 -149t-314.5 -60q-144 0 -248 37q-72 24 -121 59q-66 46 -91 103t-25 106zM373 467 q0 -101 53 -156q51 -55 141 -55q63 0 115 35q41 27 71.5 72.5t46 88.5t25 90t11.5 71t2 38q0 96 -54 152q-53 53 -130 53h-13q-57 -4 -116 -44.5t-99 -129.5q-21 -47 -37 -108.5t-16 -106.5z" />
<glyph unicode="h" d="M2 0l330 1446h317l-117 -516q59 59 95 83q98 66 211 66q84 0 155 -37q44 -23 73.5 -56.5t42 -69t17 -60.5t4.5 -49q0 -57 -16 -121l-160 -686h-315l127 561q27 125 27 148q0 82 -62 114q-31 15 -63 15q-43 0 -88 -29q-54 -35 -81.5 -88.5t-43.5 -128.5l-136 -592h-317z " />
<glyph unicode="i" horiz-adv-x="598" d="M2 0l240 1055h317l-240 -1055h-317zM276 1206l56 240h315l-53 -240h-318z" />
<glyph unicode="j" horiz-adv-x="641" d="M-246 -365l60 254q39 -3 69 -3q28 0 48 2q42 6 71 34q31 31 43 86l240 1047h317l-248 -1073q-8 -31 -18 -64q-52 -160 -154 -229q-91 -58 -278 -58q-52 0 -150 4zM319 1206l56 240h317l-55 -240h-318z" />
<glyph unicode="k" horiz-adv-x="1193" d="M2 0l328 1446h313l-164 -731l393 340h418l-479 -398l287 -657h-340l-193 463l-178 -148l-70 -315h-315z" />
<glyph unicode="l" horiz-adv-x="598" d="M4 0l322 1446h317l-324 -1446h-315z" />
<glyph unicode="m" horiz-adv-x="1878" d="M2 0l242 1055h319l-33 -148q29 37 56 64q110 114 276 114q151 0 228 -96q11 -13 20 -27t15.5 -27.5t7.5 -14.5q32 43 67 73q104 92 254 92q125 0 213 -73q92 -79 92 -207q0 -51 -11.5 -114t-18.5 -89l-134 -602h-319l135 592q27 122 27 135q0 17 -5.5 34.5t-18 37 t-38.5 31.5t-63 12q-45 0 -90 -25q-54 -32 -79 -82t-42 -125l-144 -610h-317l143 627q19 84 19 106q0 34 -13.5 58t-35 34.5t-39 14.5t-33.5 4q-42 0 -90 -25q-54 -30 -81 -74t-42 -110l-147 -635h-320z" />
<glyph unicode="n" d="M2 0l242 1055h315l-29 -127q23 26 41.5 43t59.5 47t94 46.5t113 16.5q68 0 123 -22q54 -21 90.5 -55t51.5 -73t20 -67t5 -57q0 -53 -16 -117l-156 -690h-317l139 623q13 78 13 98q0 35 -13.5 60t-35 36.5t-39 16t-33.5 4.5q-38 0 -82 -23q-57 -33 -87 -90t-46 -133 l-136 -592h-317z" />
<glyph unicode="o" horiz-adv-x="1280" d="M59 475q0 51 9 105.5t46 140.5t99 160q28 34 63.5 65t92.5 67t138 57.5t173 21.5q128 0 231 -45q134 -57 206.5 -178.5t72.5 -272.5q0 -52 -9 -109t-47.5 -148t-103.5 -165q-57 -65 -125.5 -109.5t-134.5 -63.5t-111.5 -25.5t-89.5 -6.5q-209 0 -338 107q-82 67 -127 175 t-45 224zM379 463q0 -108 55 -176q54 -68 156 -68q118 0 194 105q82 116 82 278q0 85 -24 135q-11 24 -32 46q-20 23 -63 43q-39 19 -87 18h-9q-104 -5 -172 -88q-37 -46 -68.5 -121t-31.5 -172z" />
<glyph unicode="p" horiz-adv-x="1280" d="M-84 -385l328 1440h282l-22 -105q22 25 39.5 40.5t53.5 40.5t84.5 38.5t106.5 13.5q80 0 158 -32t133 -88q115 -121 115 -347q0 -275 -172 -471q-66 -74 -135 -112q-105 -62 -242 -62q-154 0 -244 74q-24 22 -57 66l-113 -496h-315zM412 422q1 -64 21 -110.5t51.5 -69.5 t62 -33t61.5 -10q105 0 170 90q37 49 70 130t33 183q0 184 -107 236q-40 20 -79 20h-7q-36 0 -85 -21t-89 -71q-21 -26 -39 -64q-24 -54 -43.5 -138.5t-19.5 -141.5z" />
<glyph unicode="q" horiz-adv-x="1280" d="M63 401q0 56 8.5 118.5t46 165.5t101.5 189q164 213 406 213q142 0 229 -69q36 -28 70 -74l26 111h310l-326 -1440h-318l101 453q-26 -20 -44.5 -31.5t-55.5 -30t-82 -28t-97 -9.5q-157 0 -266 121t-109 311zM383 424q0 -65 16 -110.5t60 -75.5q41 -29 100 -29 q124 0 205 127q47 73 65.5 156t18.5 135q-1 49 -13.5 87.5t-32.5 62t-45.5 39t-49.5 20.5q-20 4 -40 4h-8q-44 -2 -100 -31.5t-96 -95.5q-28 -43 -54 -121t-26 -168z" />
<glyph unicode="r" horiz-adv-x="811" d="M6 0l240 1055h313l-33 -154q43 53 72 76q112 92 240 94q23 0 63 -4l-63 -274q-58 -3 -95.5 -6.5t-88.5 -18t-87 -39.5q-41 -30 -69 -72q-24 -36 -37.5 -72t-30.5 -108l-108 -477h-316z" />
<glyph unicode="s" horiz-adv-x="1110" d="M-45 248l264 131q24 -44 39 -62q31 -37 89.5 -66.5t144.5 -29.5q47 0 102 17q39 13 57 38q13 20 13 39t-13 37q-12 17 -35 30t-40 18.5t-68 21.5q-177 56 -248 92t-115 107q-41 68 -41 139q0 77 48 151q50 78 153.5 130.5t267.5 52.5q286 0 435 -170q32 -41 59 -88 l-240 -117q-43 60 -59 74q-73 67 -199 67q-64 0 -99.5 -23.5t-35.5 -58.5q0 -19 9 -33t37.5 -27.5t42 -18t61.5 -18.5q5 -2 8.5 -3t7.5 -2q73 -20 131 -41q97 -36 160 -80.5t88 -118.5q14 -39 14 -94q0 -57 -23.5 -111.5t-44 -80.5t-42.5 -46q-148 -137 -414 -137 q-289 0 -449 185q-32 38 -65 96z" />
<glyph unicode="t" horiz-adv-x="724" d="M66 870l43 191h141l67 293h320l-68 -293h183l-43 -191h-183l-100 -440q-14 -63 -14 -92q0 -27 12 -51q11 -23 33.5 -33t72.5 -10h62l-55 -242q-123 -16 -185 -16q-59 0 -107 12t-87 38t-61 72t-23 109q0 43 16 113l119 540h-143z" />
<glyph unicode="u" d="M74 252q0 50 18 135l152 668h315l-139 -621q-8 -32 -8 -69q0 -94 69 -119q32 -8 51 -8q51 0 97 28q54 32 79 83.5t42 129.5l129 576h317l-240 -1055h-315l31 137q-22 -23 -31.5 -32.5t-42.5 -36t-61 -39.5t-73.5 -25t-94.5 -12q-124 0 -209.5 70t-85.5 190z" />
<glyph unicode="v" horiz-adv-x="1067" d="M98 1055h316l43 -721l358 721h352l-616 -1055h-328z" />
<glyph unicode="w" horiz-adv-x="1622" d="M106 1055h291l17 -688l334 688h294l17 -688l323 688h334l-579 -1055h-316l-10 647l-324 -647h-315z" />
<glyph unicode="x" horiz-adv-x="1067" d="M-137 0l493 557l-206 498h331l99 -271l217 271h362l-465 -518l234 -537h-332l-115 319l-264 -319h-354z" />
<glyph unicode="y" horiz-adv-x="1024" d="M-139 -371l57 256q1 0 21.5 -4t43.5 -7t44 -3q46 0 81 14.5t47.5 27t32.5 36.5l-108 1106h319l33 -738l371 738h350l-688 -1172q-31 -52 -82 -116q-68 -83 -155.5 -114.5t-207.5 -31.5q-53 0 -159 8z" />
<glyph unicode="z" horiz-adv-x="1067" d="M-61 0l51 233l643 596h-510l51 226h916l-52 -226l-639 -596h531l-53 -233h-938z" />
<glyph unicode="{" horiz-adv-x="649" d="M20 561l41 178q59 1 94 9.5t61.5 33.5t42 64.5t30.5 109.5l67 304q26 112 56 182q22 48 67 90q46 42 96 56t154 14h131l-39 -172h-33q-56 0 -92 -31q-23 -23 -34 -45q-14 -33 -41 -146l-68 -290q-30 -128 -68 -183q-55 -76 -166 -96q117 -42 117 -166q0 -69 -16 -137 l-58 -246q-24 -108 -24 -135q0 -42 25.5 -65t74.5 -23h23l-39 -170h-131q-111 0 -172.5 57.5t-61.5 161.5q0 48 27 164l63 264q15 66 15 102q0 56 -32 82t-110 33z" />
<glyph unicode="|" horiz-adv-x="524" d="M-88 -293l436 1888h273l-437 -1888h-272z" />
<glyph unicode="}" horiz-adv-x="649" d="M-213 -303l39 172h33q58 0 94 31q21 21 33 45q14 34 41 145l67 291q30 127 68 180q54 78 166 98q-117 42 -117 166q0 61 18 138l56 245q24 108 24 135q0 42 -25.5 65.5t-72.5 23.5h-25l39 170h131q112 0 173 -57.5t61 -162.5q0 -47 -27 -163l-61 -265q-17 -74 -17 -102 q0 -56 32.5 -82t111.5 -33l-41 -178q-114 -3 -155.5 -43t-72.5 -174l-69 -303q-28 -118 -55 -182q-23 -50 -66 -90q-46 -41 -97 -55.5t-155 -14.5h-131z" />
<glyph unicode="~" horiz-adv-x="1482" d="M156 713q44 54 65.5 76.5t52.5 48.5q92 77 218 77q41 0 83 -10q43 -10 150 -59l125 -58q68 -32 98.5 -41.5t61.5 -9.5q71 0 137 47q31 21 55 43.5t66 71.5l94 -268q-50 -57 -82 -86.5t-76 -57.5q-91 -59 -188 -59q-48 0 -101.5 17t-144.5 61l-72 35q-132 63 -209 63 q-37 0 -67 -12q-37 -13 -66.5 -38.5t-83.5 -88.5l-20 -25z" />
<glyph unicode="&#xa1;" horiz-adv-x="598" d="M-49 0l104 449l209 499h133l-18 -499l-103 -449h-325zM209 1120l76 326h323l-73 -326h-326z" />
<glyph unicode="&#xa2;" horiz-adv-x="1150" d="M57 459q-3 172 84 323q94 161 237 235.5t300 72.5q18 0 39 -3l43 158l114 -4l-47 -172q189 -54 277 -205q18 -32 55 -135l-282 -61q-15 60 -39.5 96t-77.5 59l-168 -600q51 0 90.5 16t65 46t37.5 51t25 52q2 5 3 7l287 -88q-1 -1 -9.5 -17t-19 -35.5t-26.5 -44t-31 -42.5 q-47 -57 -107 -97.5t-107.5 -59.5t-103 -29.5t-76.5 -11.5t-45 -1q-33 0 -53 2l-55 -204l-119 4l62 221q-116 35 -196.5 109t-117 164t-39.5 194zM381 463q0 -157 100 -213l166 590q-54 -3 -100 -33t-75.5 -72.5t-50.5 -93.5t-30 -96.5t-10 -81.5z" />
<glyph unicode="&#xa3;" horiz-adv-x="1536" d="M-4 219q0 59 31 115q73 135 276 135q25 0 53 -3t54 -7.5t45 -9t37.5 -9t19.5 -4.5q-5 77 -12 113t-31 106h-301l39 179l190 2q-22 113 -22 159q0 95 44.5 183t119.5 145q144 107 387 107q134 0 249.5 -42t182.5 -139q37 -55 76 -178l-299 -115q-9 53 -25 88 q-28 58 -83 92.5t-120 34.5q-86 0 -140 -59.5t-54 -146.5q0 -41 24 -131h336l-41 -179h-227q31 -109 31 -157q0 -33 -9 -65.5t-36 -100.5q36 -25 59.5 -39t57.5 -26.5t63 -12.5q36 0 63 15t42.5 35t27 54t15.5 58t9 61l306 -2q-8 -52 -14 -85.5t-18 -83.5t-27.5 -85.5 t-37.5 -74.5t-53.5 -69.5t-71.5 -53.5q-82 -48 -182 -48q-47 0 -117 19q-57 16 -104 42t-160 99q-7 -5 -18.5 -15t-22 -18.5t-20.5 -15.5q-152 -113 -309 -113q-63 0 -125 21q-48 17 -82 47t-49 64t-21 61.5t-6 52.5zM209 211q0 -14 10 -29q22 -43 78 -43q30 0 65.5 17 t61.5 39t47 55q-100 43 -152 43q-54 0 -82 -25t-28 -57z" />
<glyph unicode="&#xa4;" horiz-adv-x="1433" d="M16 268l185 156q-54 120 -54 221q0 210 127 365l-141 170l223 190l142 -168q134 70 282 70q87 0 156 -21.5t151 -74.5l185 155l172 -207l-180 -155q49 -106 49 -205q0 -217 -127 -387l145 -172l-227 -191l-146 172q-73 -37 -135 -52t-139 -15q-94 0 -160.5 21t-148.5 77 l-185 -156zM457 664q0 -110 69.5 -183t175.5 -73q126 0 215 93.5t89 225.5q0 113 -70 184.5t-182 71.5q-126 0 -211.5 -92t-85.5 -227z" />
<glyph unicode="&#xa5;" horiz-adv-x="1366" d="M82 362l51 211h324l14 70l-22 59h-287l49 209h154l-207 512h358l199 -512h4l377 512h407l-424 -512h148l-53 -209h-269l-84 -102l-4 -27h332l-53 -211h-328l-84 -362h-358l82 362h-326z" />
<glyph unicode="&#xa6;" horiz-adv-x="524" d="M-90 -295l188 821h275l-189 -821h-274zM156 770l190 823h272l-188 -823h-274z" />
<glyph unicode="&#xa7;" horiz-adv-x="1280" d="M10 -70l191 187q89 -70 160.5 -103.5t164.5 -33.5q86 0 125 49q15 23 15 37q0 30 -25.5 57.5t-67 49.5t-94.5 47.5t-109 50.5t-109 61t-94.5 75.5t-67 97t-25.5 124.5q0 84 42 159.5t113 126.5q42 30 144 72q-49 90 -49 160q0 94 63 180q116 154 377 154q150 0 256 -44.5 t235 -148.5l-188 -176q-187 141 -322 141q-45 0 -77.5 -18.5t-32.5 -58.5q0 -23 14.5 -43.5t41.5 -38t50 -29.5t55 -26t42 -19q60 -30 103.5 -55t96.5 -65t86.5 -80.5t56.5 -96.5t23 -117q0 -87 -40.5 -163.5t-112.5 -131.5q-13 -10 -30 -20.5t-28.5 -16t-34 -16 t-30.5 -14.5q47 -108 47 -168q0 -111 -80.5 -194t-194.5 -118q-82 -26 -176 -26h-12q-286 0 -502 192zM342 709q0 -28 13 -53.5t30.5 -44t48 -39t51 -31.5t55 -28.5t46.5 -23.5q166 -90 215 -120q64 30 102.5 69t38.5 99q0 30 -13.5 57.5t-30 46.5t-49 40.5t-52 31.5t-58 29 t-49.5 24q-118 61 -198 108q-29 -14 -44 -22t-39 -24.5t-36 -31.5t-21.5 -37.5t-9.5 -49.5z" />
<glyph unicode="&#xa8;" horiz-adv-x="641" d="M-119 1184l51 237h330l-49 -237h-332zM373 1184l53 237h334l-53 -237h-334z" />
<glyph unicode="&#xa9;" horiz-adv-x="1685" d="M137 723q0 200 97 367.5t264.5 264.5t367.5 97q196 0 364 -96t266.5 -261t98.5 -358q0 -157 -56 -295t-152.5 -236t-232.5 -155t-290 -57q-198 0 -365.5 97t-264.5 264.5t-97 367.5zM238 721q0 -175 83.5 -322.5t227.5 -233t315 -85.5q169 0 314.5 85.5t231 231 t85.5 314.5q0 184 -82.5 334t-227 235.5t-321.5 85.5q-170 0 -314.5 -86.5t-228 -235t-83.5 -323.5zM422 653q0 227 142 382t349 155q122 0 202 -44t167 -161l-174 -145q-44 62 -57 75q-54 60 -142 60q-101 0 -170 -89t-69 -218q0 -98 49.5 -152.5t140.5 -54.5 q51 0 88.5 16.5t98.5 65.5l112 -181q-89 -73 -159 -102t-160 -29q-184 0 -301 118t-117 304z" />
<glyph unicode="&#xaa;" horiz-adv-x="768" d="M133 940q-4 76 49 143q31 36 70.5 58t102.5 34t113 16.5t150 10.5q13 57 13 70q0 67 -92 67q-31 -1 -53 -9.5t-35 -26.5t-17.5 -27t-11.5 -29l-197 4q0 3 5.5 20.5t17 43.5t24.5 43q84 108 285 108q35 1 66 -2t70 -14t66.5 -30t46.5 -54.5t19 -83.5q0 -30 -12 -92 l-78 -346q-4 -24 -4 -35q0 -9 4 -25h-188q-6 15 -6 31q1 10 2.5 19.5t4 21.5t3.5 21q-19 -37 -35 -50q-64 -61 -184 -61q-55 0 -95.5 17t-61.5 45t-31 56t-11 56zM332 975q0 -70 82 -70q131 0 174 168q2 4 2 6q-65 0 -98 -4q-20 -2 -41.5 -7t-51 -15.5t-48.5 -31t-19 -46.5z " />
<glyph unicode="&#xab;" horiz-adv-x="854" d="M57 502l74 323l361 234l-66 -285l-211 -137l145 -145l-57 -252zM430 496l76 331l362 230l-67 -291l-213 -133l147 -148l-57 -249z" />
<glyph unicode="&#xac;" horiz-adv-x="1482" d="M137 524l62 275h1159l-170 -750h-342l110 475h-819z" />
<glyph unicode="&#xad;" horiz-adv-x="770" d="M53 485l68 293h612l-67 -293h-613z" />
<glyph unicode="&#xae;" horiz-adv-x="1677" d="M135 723q0 200 97 367.5t264.5 264.5t367.5 97q196 0 364 -96t266.5 -261t98.5 -358q0 -157 -56 -295t-152.5 -236t-232.5 -155t-290 -57q-200 0 -367 96.5t-263.5 264t-96.5 368.5zM236 721q0 -176 83 -323.5t227 -232.5t316 -85q169 0 314.5 85.5t231 231t85.5 314.5 q0 184 -82.5 334t-227 235.5t-321.5 85.5q-170 0 -314.5 -86.5t-228 -235t-83.5 -323.5zM463 281l180 905h229q123 0 166 -5.5t90 -27.5q132 -60 132 -231q0 -104 -48 -172t-151 -111l143 -358h-237l-113 323h-109l-65 -323h-217zM784 786h111q72 0 104.5 28t32.5 91 q0 96 -106 96h-101z" />
<glyph unicode="&#xaf;" horiz-adv-x="641" d="M-113 1184l39 182h828l-41 -182h-826z" />
<glyph unicode="&#xb0;" horiz-adv-x="724" d="M106 1174q0 148 102.5 250t250.5 102t250 -102t102 -250q0 -147 -103 -251t-249 -104t-249.5 104.5t-103.5 250.5zM346 1178q0 -46 34.5 -80.5t80.5 -34.5t80 34.5t34 80.5q0 47 -34 79.5t-80 32.5q-48 0 -81.5 -32.5t-33.5 -79.5z" />
<glyph unicode="&#xb1;" horiz-adv-x="1482" d="M61 0l62 268h1098l-62 -268h-1098zM236 766l61 266h373l88 379h340l-88 -379h383l-60 -266h-383l-88 -389h-340l88 389h-374z" />
<glyph unicode="&#xb2;" horiz-adv-x="724" d="M61 516l29 137l373 305q119 95 121 181q0 45 -28 77.5t-73 32.5q-50 0 -85.5 -44t-35.5 -120q0 -20 3 -38l-193 22q8 90 23 135q14 39 38 73t60 64.5t89 47.5t116 16q65 -1 116.5 -20.5t82.5 -47.5t51 -64.5t27.5 -69t6.5 -62.5q-2 -162 -198 -303l-219 -158h356 l-39 -164h-621z" />
<glyph unicode="&#xb3;" horiz-adv-x="724" d="M53 764v6q0 23 2 33l209 22q-6 -24 -6 -49q0 -52 32.5 -86.5t84.5 -34.5q60 0 92.5 41.5t30.5 98.5q0 35 -23 66.5t-80 31.5h-30l28 133q24 -6 51 -6q34 1 59.5 15t38 32.5t19.5 42t8.5 36.5t1.5 23q-1 27 -11.5 46t-27 26.5t-28.5 10.5t-23 3q-31 0 -55 -13.5t-36 -29 t-20 -39.5t-9.5 -34t-2.5 -23l-198 23q23 104 61 153q48 58 123.5 85.5t142.5 27.5q62 -1 112.5 -17.5t83 -42.5t54.5 -59t31 -65t8 -62q-1 -41 -15 -74t-32 -52.5t-45.5 -35.5t-42 -22t-35.5 -12q32 -22 52.5 -40t40.5 -57t20 -86q0 -64 -41 -131q-43 -67 -125 -110.5 t-197 -40.5q-82 3 -144 29t-95 66t-48.5 83t-15.5 88z" />
<glyph unicode="&#xb4;" horiz-adv-x="641" d="M55 1188l193 332h338l-338 -332h-193z" />
<glyph unicode="&#xb5;" horiz-adv-x="1304" d="M-68 -442l334 1497h318l-115 -496q-3 -11 -9 -43.5t-11 -54.5q-17 -84 -17 -117q0 -62 33 -99.5t88 -37.5q66 0 115 59q39 47 75 146q23 64 52 188l106 455h322l-164 -740q-6 -24 -6 -49q0 -53 51 -53q23 0 63 16l-53 -229q-98 -25 -172 -25q-83 0 -145 43 q-25 17 -36.5 39.5t-25.5 77.5q-39 -65 -71 -94q-65 -59 -150 -59q-57 0 -94 29.5t-49 86.5l-119 -540h-320z" />
<glyph unicode="&#xb6;" horiz-adv-x="1306" d="M270 979q0 117 51.5 216.5t143.5 162.5q73 48 163 68t240 20h490l-39 -170h-72l-373 -1618h-182l375 1618h-233l-373 -1618h-182l221 958q-230 111 -230 363z" />
<glyph unicode="&#xb7;" horiz-adv-x="512" d="M84 537l76 337h323l-75 -337h-324z" />
<glyph unicode="&#xb8;" horiz-adv-x="641" d="M98 -430l23 92q55 -8 89 -4.5t60 23.5q32 26 19.5 50.5t-51.5 24.5q-56 0 -101 -18l17 72l194 227h94l-114 -180q61 10 90 10q31 0 49 -6q16 -5 30.5 -14.5t30 -33t15.5 -53.5q0 -50 -39 -98q-79 -98 -268 -98q-70 0 -138 6z" />
<glyph unicode="&#xb9;" horiz-adv-x="724" d="M225 1126l31 140q113 3 167 27t101 91h154l-197 -868h-205l144 633q-9 -2 -29 -6.5t-25 -6t-19 -4t-20 -3t-19 -2t-25 -1.5h-29h-29z" />
<glyph unicode="&#xba;" horiz-adv-x="724" d="M123 1067q-3 106 47 197q56 105 146 152.5t194 49.5q54 0 113 -16q57 -18 99 -52.5t61.5 -68t31 -75t13 -60.5t1.5 -37q0 -120 -59 -209t-133 -133q-87 -51 -203 -51q-75 1 -132.5 25t-90 57t-53.5 77t-27.5 78t-7.5 66zM322 1075q0 -12 1 -25.5t8.5 -38.5t20 -43.5 t39 -33t62.5 -14.5q48 0 84 26t54.5 66.5t27.5 80t8 74.5q-1 42 -14 72.5t-34.5 45.5t-43 21t-43.5 5q-39 0 -72 -23q-38 -26 -68 -84t-30 -129z" />
<glyph unicode="&#xbb;" horiz-adv-x="854" d="M-4 236l67 290l209 131l-145 150l57 248l248 -258l-74 -330zM373 233l65 287l211 137l-147 144l59 252l246 -260l-74 -324z" />
<glyph unicode="&#xbc;" horiz-adv-x="1705" d="M225 1126l31 140q113 3 167 27t101 91h154l-197 -868h-205l144 633q-9 -2 -29 -6.5t-25 -6t-19 -4t-20 -3t-19 -2t-25 -1.5h-29h-29zM313 0l944 1389h177l-945 -1389h-176zM922 213l36 164l441 491h237l-114 -512h125l-33 -143h-127l-47 -213h-203l49 213h-364zM1114 356 h205l80 322z" />
<glyph unicode="&#xbd;" horiz-adv-x="1705" d="M225 1126l31 140q113 3 167 27t101 91h154l-197 -868h-205l144 633q-9 -2 -29 -6.5t-25 -6t-19 -4t-20 -3t-19 -2t-25 -1.5h-29h-29zM264 0l944 1389h178l-944 -1389h-178zM920 0l28 137l373 305q121 95 121 181q0 45 -27.5 76.5t-73.5 31.5q-51 2 -85.5 -42.5 t-34.5 -121.5q0 -25 2 -39l-193 25q8 90 23 135q14 38 38 72t60 65t89 48t116 16q65 -1 116.5 -20.5t82.5 -47.5t51 -64.5t27.5 -69t6.5 -62.5q-1 -56 -22.5 -106.5t-59 -91t-61 -60.5t-57.5 -45l-217 -158h356l-39 -164h-620z" />
<glyph unicode="&#xbe;" horiz-adv-x="1705" d="M53 764v6q0 23 2 33l209 22q-6 -24 -6 -49q0 -52 32.5 -86.5t84.5 -34.5q60 0 92.5 41.5t30.5 98.5q0 35 -23 66.5t-80 31.5h-30l28 133q24 -6 51 -6q34 1 59.5 15t38 32.5t19.5 42t8.5 36.5t1.5 23q-1 27 -11.5 46t-27 26.5t-28.5 10.5t-23 3q-31 0 -55 -13.5t-36 -29 t-20 -39.5t-9.5 -34t-2.5 -23l-198 23q23 104 61 153q48 58 123.5 85.5t142.5 27.5q62 -1 112.5 -17.5t83 -42.5t54.5 -59t31 -65t8 -62q-1 -41 -15 -74t-32 -52.5t-45.5 -35.5t-42 -22t-35.5 -12q32 -22 52.5 -40t40.5 -57t20 -86q0 -64 -41 -131q-43 -67 -125 -110.5 t-197 -40.5q-82 3 -144 29t-95 66t-48.5 83t-15.5 88zM367 0l944 1389h178l-944 -1389h-178zM922 213l36 164l441 491h237l-114 -512h125l-33 -143h-127l-47 -213h-203l49 213h-364zM1114 356h205l80 322z" />
<glyph unicode="&#xbf;" horiz-adv-x="1150" d="M-12 350q0 117 71 213q60 85 201 152q16 8 60 27t71.5 31t62.5 32.5t58 40.5q25 20 39 37.5t37 60.5h286q0 -1 -3.5 -18t-6 -26.5t-8 -26.5t-14 -33.5t-19.5 -32.5q-14 -23 -34.5 -44.5t-38 -37t-54.5 -40t-58 -38t-76.5 -47t-84.5 -51.5q-37 -23 -55.5 -35.5t-42.5 -39 t-33 -54.5q-6 -12 -6 -41q0 -50 41 -93.5t127 -43.5q185 0 231 215l320 -74q-49 -129 -88 -184q-28 -40 -66 -75t-95.5 -69t-141 -53.5t-181.5 -19.5q-198 0 -329 79q-170 108 -170 289zM602 1122l72 324h325l-73 -324h-324z" />
<glyph unicode="&#xc0;" horiz-adv-x="1449" d="M-141 0l882 1446h406l153 -1446h-352l-18 287h-533l-159 -287h-379zM545 549h368l-39 594zM575 1866h386l155 -269h-207z" />
<glyph unicode="&#xc1;" horiz-adv-x="1449" d="M-141 0l882 1446h406l153 -1446h-352l-18 287h-533l-159 -287h-379zM545 549h368l-39 594zM821 1597l154 269h385l-332 -269h-207z" />
<glyph unicode="&#xc2;" horiz-adv-x="1449" d="M-141 0l882 1446h406l153 -1446h-352l-18 287h-533l-159 -287h-379zM545 549h368l-39 594zM545 1602l278 237h394l137 -237h-236l-100 157l-144 -157h-329z" />
<glyph unicode="&#xc3;" horiz-adv-x="1449" d="M-141 0l882 1446h406l153 -1446h-352l-18 287h-533l-159 -287h-379zM526 1610q21 60 49 110q78 133 228 133q98 0 239 -53q112 -33 140 -33q25 0 42.5 7t28 24t13 23t8.5 24l149 -2q-37 -97 -61 -131q-81 -115 -227 -115q-25 0 -49.5 3t-52 10t-45.5 12t-51.5 16 t-47.5 15q-83 24 -127 24q-16 0 -29 -4t-21.5 -9t-16 -14t-10.5 -14.5t-7.5 -14.5l-5.5 -11h-146zM545 549h368l-39 594z" />
<glyph unicode="&#xc4;" horiz-adv-x="1449" d="M-141 0l882 1446h406l153 -1446h-352l-18 287h-533l-159 -287h-379zM545 549h368l-39 596zM547 1604l53 233h330l-53 -233h-330zM1081 1604l52 233h329l-51 -233h-330z" />
<glyph unicode="&#xc5;" horiz-adv-x="1449" d="M-141 0l880 1446h408l153 -1446h-352l-18 287h-533l-159 -287h-379zM543 549h370l-41 594zM786 1765q0 27 11 55.5t34 56t66 45t100 17.5t100.5 -17.5t66 -45t33.5 -56t11 -55.5q0 -41 -22 -79q-53 -95 -189 -95q-94 0 -151 49q-60 53 -60 125zM901 1765q0 -36 27 -57 q20 -20 69 -20q50 1 72.5 24t22.5 53q0 15 -11 37q-23 41 -86 41q-51 0 -72.5 -23.5t-21.5 -54.5z" />
<glyph unicode="&#xc6;" horiz-adv-x="2174" d="M-141 0l1108 1446h1202l-62 -277h-620l-64 -280h598l-57 -264h-600l-78 -349h735l-63 -276h-1088l76 338h-430l-242 -338h-415zM707 600h301l135 604z" />
<glyph unicode="&#xc7;" horiz-adv-x="1492" d="M111 631q0 130 34 254.5t101.5 232.5t160.5 189.5t219 128t269 45.5q81 0 165.5 -17t182 -66.5t162.5 -125.5q11 -13 21.5 -26.5t20 -31t15 -27.5t15 -31.5t12 -27.5t12 -30.5t10.5 -26.5l-346 -78q-10 28 -19.5 48t-30.5 52t-46 52.5t-66 37t-90 17.5q-94 3 -175.5 -48 t-134 -134t-82 -183.5t-29.5 -199.5q0 -175 78.5 -272.5t193.5 -100.5q31 0 67.5 8.5t96 45t106.5 98.5q40 52 76 133l301 -168q-58 -111 -129 -186q-214 -232 -522 -232h-12l-68 -104q59 10 90 10q65 0 95 -34t30 -73q0 -48 -37 -96q-83 -105 -285 -100q-61 0 -122 6l20 92 q58 -4 76 -4q39 0 69 18.5t27 40.5q-3 39 -53 39q-42 0 -101 -18l15 72l141 161q-77 12 -137 35q-65 24 -121 59.5t-108 90t-88.5 121.5t-58 158t-21.5 196z" />
<glyph unicode="&#xc8;" horiz-adv-x="1366" d="M0 0l330 1446h1040l-63 -277h-686l-64 -280h662l-60 -264h-661l-80 -351h788l-59 -274h-1147zM553 1866h385l156 -269h-205z" />
<glyph unicode="&#xc9;" horiz-adv-x="1366" d="M0 0l330 1446h1040l-63 -277h-686l-64 -280h662l-60 -264h-661l-80 -351h788l-59 -274h-1147zM725 1597l154 269h385l-332 -269h-207z" />
<glyph unicode="&#xca;" horiz-adv-x="1366" d="M0 0l330 1446h1040l-63 -277h-686l-64 -280h662l-60 -264h-661l-80 -351h788l-59 -274h-1147zM502 1602l280 237h394l135 -237h-236l-100 157l-144 -157h-329z" />
<glyph unicode="&#xcb;" horiz-adv-x="1366" d="M0 0l330 1446h1040l-63 -277h-686l-64 -280h662l-60 -264h-661l-80 -351h788l-59 -274h-1147zM479 1604l51 233h332l-53 -233h-330zM1012 1604l51 233h332l-54 -233h-329z" />
<glyph unicode="&#xcc;" horiz-adv-x="641" d="M4 0l324 1446h360l-323 -1446h-361zM160 1866h383l155 -269h-204z" />
<glyph unicode="&#xcd;" horiz-adv-x="641" d="M4 0l324 1446h360l-323 -1446h-361zM383 1597l156 269h383l-332 -269h-207z" />
<glyph unicode="&#xce;" horiz-adv-x="641" d="M4 0l324 1446h360l-323 -1446h-361zM139 1602l281 237h391l137 -237h-235l-101 157l-143 -157h-330z" />
<glyph unicode="&#xcf;" horiz-adv-x="641" d="M4 0l324 1446h360l-323 -1446h-361zM117 1604l51 233h332l-54 -233h-329zM649 1604l51 233h332l-53 -233h-330z" />
<glyph unicode="&#xd0;" horiz-adv-x="1536" d="M0 0l152 672h-138l45 196h140l131 578h571q134 0 244 -37q101 -33 171 -91.5t105 -135t49 -149.5t15 -161t-15 -180t-54 -190.5t-95 -182.5t-146.5 -155t-199.5 -109q-154 -55 -445 -55h-530zM416 279h159q192 0 285 53q102 60 179 207.5t77 332.5q0 61 -14 109.5 t-33.5 79t-51 52.5t-57 32.5t-62.5 16.5t-55 6.5t-46 0.5h-181l-67 -301h369l-46 -196h-368z" />
<glyph unicode="&#xd1;" horiz-adv-x="1449" d="M-2 0l332 1446h356l289 -932l196 932h330l-330 -1446h-352l-284 928l-205 -928h-332zM526 1610q21 60 49 110q78 133 228 133q98 0 239 -53q112 -33 140 -33q25 0 42.5 7t28 24t13 23t8.5 24l149 -2q-37 -97 -61 -131q-81 -115 -227 -115q-25 0 -49.5 3t-52 10t-45.5 12 t-51.5 16t-47.5 15q-83 24 -127 24q-16 0 -29 -4t-21.5 -9t-16 -14t-10.5 -14.5t-7.5 -14.5l-5.5 -11h-146z" />
<glyph unicode="&#xd2;" horiz-adv-x="1622" d="M98 594q0 110 27 221q37 146 115 279.5t186 222.5q94 78 225 123q127 45 281 45q301 0 479 -178q164 -166 164 -441q0 -234 -115 -456q-33 -62 -96 -150q-169 -213 -416 -272q-95 -23 -207 -23q-95 0 -178 17.5t-143.5 46.5t-102.5 59t-73 64q-59 66 -102.5 176 t-43.5 266zM463 578q0 -83 24 -146q35 -89 108 -136.5t169 -45.5q125 0 227 82q103 83 163 239t60 297q0 98 -30 162q-37 81 -119 123t-178 37q-48 -2 -99 -19q-168 -57 -256 -268q-30 -70 -49.5 -161.5t-19.5 -163.5zM682 1866h385l156 -269h-207z" />
<glyph unicode="&#xd3;" horiz-adv-x="1622" d="M98 594q0 110 27 221q37 146 115 279.5t186 222.5q94 78 225 123q127 45 281 45q301 0 479 -178q164 -166 164 -441q0 -234 -115 -456q-33 -62 -96 -150q-169 -213 -416 -272q-95 -23 -207 -23q-95 0 -178 17.5t-143.5 46.5t-102.5 59t-73 64q-59 66 -102.5 176 t-43.5 266zM463 578q0 -83 24 -146q35 -89 108 -136.5t169 -45.5q125 0 227 82q103 83 163 239t60 297q0 98 -30 162q-37 81 -119 123t-178 37q-48 -2 -99 -19q-168 -57 -256 -268q-30 -70 -49.5 -161.5t-19.5 -163.5zM852 1597l156 269h385l-334 -269h-207z" />
<glyph unicode="&#xd4;" horiz-adv-x="1622" d="M98 594q0 110 27 221q37 146 115 279.5t186 222.5q94 78 225 123q127 45 281 45q301 0 479 -178q164 -166 164 -441q0 -234 -115 -456q-33 -62 -96 -150q-169 -213 -416 -272q-95 -23 -207 -23q-95 0 -178 17.5t-143.5 46.5t-102.5 59t-73 64q-59 66 -102.5 176 t-43.5 266zM463 578q0 -83 24 -146q35 -89 108 -136.5t169 -45.5q125 0 227 82q103 83 163 239t60 297q0 98 -30 162q-37 81 -119 123t-178 37q-48 -2 -99 -19q-168 -57 -256 -268q-30 -70 -49.5 -161.5t-19.5 -163.5zM631 1602l278 237h394l135 -237h-236l-100 157 l-141 -157h-330z" />
<glyph unicode="&#xd5;" horiz-adv-x="1622" d="M98 594q0 110 27 221q37 146 115 279.5t186 222.5q94 78 225 123q127 45 281 45q301 0 479 -178q164 -166 164 -441q0 -234 -115 -456q-33 -62 -96 -150q-169 -213 -416 -272q-95 -23 -207 -23q-95 0 -178 17.5t-143.5 46.5t-102.5 59t-73 64q-59 66 -102.5 176 t-43.5 266zM463 578q0 -83 24 -146q35 -89 108 -136.5t169 -45.5q125 0 227 82q103 83 163 239t60 297q0 98 -30 162q-37 81 -119 123t-178 37q-48 -2 -99 -19q-168 -57 -256 -268q-30 -70 -49.5 -161.5t-19.5 -163.5zM612 1610q24 70 47 110q78 133 230 133q27 0 59.5 -5 t62 -12.5t53 -15t42.5 -14t20 -6.5q98 -33 140 -33q25 0 42.5 7t27.5 21t14 22t9 24q0 1 0.5 2t0.5 2l149 -2q-33 -86 -61 -131q-81 -115 -227 -115q-25 0 -49.5 3t-52 10t-45.5 12t-51.5 16t-47.5 15q-83 24 -127 24q-10 0 -18.5 -1.5t-15.5 -3.5t-13.5 -6t-10.5 -7 t-8.5 -8.5t-7 -9t-6 -9.5t-4.5 -8l-4 -8l-2 -6h-146z" />
<glyph unicode="&#xd6;" horiz-adv-x="1622" d="M98 594q0 110 27 221q37 146 115 279.5t186 222.5q94 78 225 123q127 45 281 45q301 0 479 -178q164 -166 164 -441q0 -234 -115 -456q-33 -62 -96 -150q-169 -213 -416 -272q-95 -23 -207 -23q-95 0 -178 17.5t-143.5 46.5t-102.5 59t-73 64q-59 66 -102.5 176 t-43.5 266zM463 578q0 -83 24 -146q35 -89 108 -136.5t169 -45.5q125 0 227 82q103 83 163 239t60 297q0 98 -30 162q-37 81 -119 123t-178 37q-48 -2 -99 -19q-168 -57 -256 -268q-30 -70 -49.5 -161.5t-19.5 -163.5zM602 1604l53 235h332l-53 -235h-332zM1137 1604l51 235 h332l-54 -235h-329z" />
<glyph unicode="&#xd7;" horiz-adv-x="1482" d="M190 385l340 277l-241 299l258 208l241 -297l345 279l165 -205l-342 -278l244 -303l-258 -209l-246 301l-340 -277z" />
<glyph unicode="&#xd8;" horiz-adv-x="1622" d="M100 586q0 55 7 113.5t27 144.5t67 180t116 178q120 147 271.5 215t347.5 68q91 0 164 -14.5t109 -30t85 -43.5l111 131l115 -96l-105 -125q49 -57 80 -109q82 -134 82 -336q0 -50 -6.5 -104.5t-24.5 -133.5t-60 -168.5t-104 -172.5q-235 -320 -641 -320q-166 0 -303 57 q-5 2 -86 41l-139 -161l-111 96l136 164q-43 54 -54 73q-84 134 -84 353zM455 573q0 -47 20 -137l610 715q-1 1 -19 9.5t-24 11.5t-25 10t-32.5 9.5t-35 5.5t-44.5 3q-167 0 -282 -131q-54 -61 -91 -141t-52 -155t-20 -120.5t-5 -79.5zM561 305q39 -26 57 -35 q28 -15 74.5 -24.5t81.5 -9.5q46 0 109.5 20.5t122.5 71.5q59 53 96 116q26 41 49 90.5t47.5 142.5t24.5 185q0 95 -35 180z" />
<glyph unicode="&#xd9;" horiz-adv-x="1492" d="M121 416q0 74 31 225l180 805h362l-196 -883q-15 -52 -15 -108q0 -37 15 -72q18 -41 69.5 -74t130.5 -33q32 0 59 5.5t60.5 21t64 51t54.5 88.5q29 71 39 113l209 891h360l-213 -950q-24 -107 -55.5 -185.5t-87.5 -142.5q-86 -101 -222.5 -151t-281.5 -50q-120 0 -227 31 q-121 34 -193 97t-104 128q-39 80 -39 193zM586 1866h385l155 -269h-206z" />
<glyph unicode="&#xda;" horiz-adv-x="1492" d="M121 416q0 74 31 225l180 805h362l-196 -883q-15 -52 -15 -108q0 -37 15 -72q18 -41 69.5 -74t130.5 -33q32 0 59 5.5t60.5 21t64 51t54.5 88.5q29 71 39 113l209 891h360l-213 -950q-24 -107 -55.5 -185.5t-87.5 -142.5q-86 -101 -222.5 -151t-281.5 -50q-120 0 -227 31 q-121 34 -193 97t-104 128q-39 80 -39 193zM821 1597l154 269h385l-332 -269h-207z" />
<glyph unicode="&#xdb;" horiz-adv-x="1492" d="M121 416q0 74 31 225l180 805h362l-196 -883q-15 -52 -15 -108q0 -37 15 -72q18 -41 69.5 -74t130.5 -33q32 0 59 5.5t60.5 21t64 51t54.5 88.5q29 71 39 113l209 891h360l-213 -950q-24 -107 -55.5 -185.5t-87.5 -142.5q-86 -101 -222.5 -151t-281.5 -50q-120 0 -227 31 q-121 34 -193 97t-104 128q-39 80 -39 193zM567 1602l279 237h393l135 -237h-235l-101 157l-141 -157h-330z" />
<glyph unicode="&#xdc;" horiz-adv-x="1492" d="M121 416q0 74 31 225l180 805h362l-196 -883q-15 -52 -15 -108q0 -37 15 -72q18 -41 69.5 -74t130.5 -33q32 0 59 5.5t60.5 21t64 51t54.5 88.5q29 71 39 113l209 891h360l-213 -950q-24 -107 -55.5 -185.5t-87.5 -142.5q-86 -101 -222.5 -151t-281.5 -50q-120 0 -227 31 q-121 34 -193 97t-104 128q-39 80 -39 193zM541 1599l53 236h330l-54 -236h-329zM1075 1599l51 236h332l-53 -236h-330z" />
<glyph unicode="&#xdd;" horiz-adv-x="1366" d="M199 1446h358l201 -520l379 520h407l-682 -836l-137 -610h-358l145 655zM725 1597l154 269h385l-332 -269h-207z" />
<glyph unicode="&#xde;" horiz-adv-x="1409" d="M0 0l324 1446h358l-43 -205h264q107 0 178 -20q55 -15 103.5 -42t94.5 -73t74 -120.5t29 -168.5q1 -113 -38.5 -214t-128.5 -183t-216 -119q-104 -31 -260 -31h-317l-64 -270h-358zM483 532h256q59 0 111 17q54 19 91.5 56.5t52.5 79t20.5 67.5t5.5 43q0 60 -25 100 q-31 49 -74 68.5t-120 19.5h-217z" />
<glyph unicode="&#xdf;" horiz-adv-x="1280" d="M0 0l223 987q37 160 78 236q23 43 56.5 81t87.5 78t135 64t178 24q195 0 303 -81q44 -35 82 -103q37 -77 37 -160q0 -68 -30 -141t-81 -111q-32 -25 -117 -49q54 -22 86 -44.5t62 -65.5q61 -82 61 -209q0 -131 -55 -250q-33 -71 -82.5 -125t-97 -83t-101 -47t-90 -23 t-69.5 -5q-19 0 -40 2t-36 4t-41 7t-35.5 7.5t-40.5 10t-37 8.5l53 232q85 -25 129 -25q50 0 95 23q33 18 59 46t47 83.5t21 126.5q0 76 -25 125q-16 31 -40 51t-56 28t-58.5 10t-64.5 1l49 221q32 -16 74 -16q37 0 59 10q53 19 84 82q21 51 21 90q0 36 -11 62.5t-27 40.5 t-37 22.5t-37 11t-32 2.5q-45 0 -84 -20q-40 -22 -60.5 -62.5t-41.5 -128.5l-236 -1028h-317z" />
<glyph unicode="&#xe0;" d="M20 268q0 68 23 123q63 164 285 230q67 19 168.5 29t300.5 22q20 77 20 110q0 36 -17.5 60t-46.5 33t-46.5 11.5t-36.5 2.5q-112 0 -160 -80q-19 -35 -27 -68l-315 9q28 87 54.5 136.5t80.5 94.5q77 64 177 86.5t229 22.5q206 0 311 -74q53 -37 80 -86q28 -53 28 -131 q0 -61 -20 -148l-125 -555q-6 -25 -6 -51q0 -11 6 -45h-303q-10 45 -10 49q0 6 18 98q-17 -35 -41 -61q-43 -46 -121 -81.5t-188 -35.5q-56 0 -105 13q-99 24 -156 102.5t-57 183.5zM338 303q0 -24 10 -47q22 -61 121 -61q118 0 197 92q55 62 84 188q-17 -1 -49 -2t-48 -2 q-173 -8 -254 -65q-61 -41 -61 -103zM422 1520h338l192 -332h-192z" />
<glyph unicode="&#xe1;" d="M20 268q0 68 23 123q63 164 285 230q67 19 168.5 29t300.5 22q20 77 20 110q0 36 -17.5 60t-46.5 33t-46.5 11.5t-36.5 2.5q-112 0 -160 -80q-19 -35 -27 -68l-315 9q28 87 54.5 136.5t80.5 94.5q77 64 177 86.5t229 22.5q206 0 311 -74q53 -37 80 -86q28 -53 28 -131 q0 -61 -20 -148l-125 -555q-6 -25 -6 -51q0 -11 6 -45h-303q-10 45 -10 49q0 6 18 98q-17 -35 -41 -61q-43 -46 -121 -81.5t-188 -35.5q-56 0 -105 13q-99 24 -156 102.5t-57 183.5zM338 303q0 -24 10 -47q22 -61 121 -61q118 0 197 92q55 62 84 188q-17 -1 -49 -2t-48 -2 q-173 -8 -254 -65q-61 -41 -61 -103zM598 1188l193 332h337l-337 -332h-193z" />
<glyph unicode="&#xe2;" d="M20 268q0 68 23 123q63 164 285 230q67 19 168.5 29t300.5 22q20 77 20 110q0 36 -17.5 60t-46.5 33t-46.5 11.5t-36.5 2.5q-112 0 -160 -80q-19 -35 -27 -68l-315 9q28 87 54.5 136.5t80.5 94.5q77 64 177 86.5t229 22.5q206 0 311 -74q53 -37 80 -86q28 -53 28 -131 q0 -61 -20 -148l-125 -555q-6 -25 -6 -51q0 -11 6 -45h-303q-10 45 -10 49q0 6 18 98q-17 -35 -41 -61q-43 -46 -121 -81.5t-188 -35.5q-56 0 -105 13q-99 24 -156 102.5t-57 183.5zM338 303q0 -24 10 -47q22 -61 121 -61q118 0 197 92q55 62 84 188q-17 -1 -49 -2t-48 -2 q-173 -8 -254 -65q-61 -41 -61 -103zM362 1188l259 258h346l141 -258h-225l-97 151l-143 -151h-281z" />
<glyph unicode="&#xe3;" d="M20 268q0 68 23 123q63 164 285 230q67 19 168.5 29t300.5 22q20 77 20 110q0 36 -17.5 60t-46.5 33t-46.5 11.5t-36.5 2.5q-112 0 -160 -80q-19 -35 -27 -68l-315 9q28 87 54.5 136.5t80.5 94.5q77 64 177 86.5t229 22.5q206 0 311 -74q53 -37 80 -86q28 -53 28 -131 q0 -61 -20 -148l-125 -555q-6 -25 -6 -51q0 -11 6 -45h-303q-10 45 -10 49q0 6 18 98q-17 -35 -41 -61q-43 -46 -121 -81.5t-188 -35.5q-56 0 -105 13q-99 24 -156 102.5t-57 183.5zM338 303q0 -24 10 -47q22 -61 121 -61q118 0 197 92q55 62 84 188q-17 -1 -49 -2t-48 -2 q-173 -8 -254 -65q-61 -41 -61 -103zM381 1184q12 46 31 96q7 15 15 30.5t29 43t44.5 47t60.5 35t78 14.5q72 0 164 -45q3 -1 23.5 -11.5t30 -14.5t27 -11.5t31 -10.5t25.5 -3q16 0 37 8q22 9 34 26t23 46h152q-10 -30 -27 -68q-36 -82 -74 -123.5t-84 -60.5 q-43 -19 -88 -19q-63 0 -157 47q-6 3 -18.5 10t-17 9t-14.5 7.5t-14 7t-12 5.5t-12.5 5t-11 3t-11.5 3t-10.5 1.5t-11.5 0.5q-12 0 -22.5 -1.5t-19 -6t-15 -7.5t-12 -10t-9 -11t-8 -12.5t-5.5 -11t-4 -11.5l-4 -9z" />
<glyph unicode="&#xe4;" d="M20 268q0 68 23 123q63 164 285 230q67 19 168.5 29t300.5 22q20 77 20 110q0 36 -17.5 60t-46.5 33t-46.5 11.5t-36.5 2.5q-112 0 -160 -80q-19 -35 -27 -68l-315 9q28 87 54.5 136.5t80.5 94.5q77 64 177 86.5t229 22.5q206 0 311 -74q53 -37 80 -86q28 -53 28 -131 q0 -61 -20 -148l-125 -555q-6 -25 -6 -51q0 -11 6 -45h-303q-10 45 -10 49q0 6 18 98q-17 -35 -41 -61q-43 -46 -121 -81.5t-188 -35.5q-56 0 -105 13q-99 24 -156 102.5t-57 183.5zM328 1180l51 237h328l-50 -237h-329zM338 303q0 -24 10 -47q22 -61 121 -61q118 0 197 92 q55 62 84 188q-17 -1 -49 -2t-48 -2q-173 -8 -254 -65q-61 -41 -61 -103zM819 1180l53 237h332l-53 -237h-332z" />
<glyph unicode="&#xe5;" d="M20 268q0 68 23 123q63 164 285 230q67 19 168.5 29t300.5 22q20 77 20 110q0 36 -17.5 60t-46.5 33t-46.5 11.5t-36.5 2.5q-112 0 -160 -80q-19 -35 -27 -68l-315 9q28 87 54.5 136.5t80.5 94.5q77 64 177 86.5t229 22.5q206 0 311 -74q53 -37 80 -86q28 -53 28 -131 q0 -61 -20 -148l-125 -555q-6 -25 -6 -51q0 -11 6 -45h-303q-10 45 -10 49q0 6 18 98q-17 -35 -41 -61q-43 -46 -121 -81.5t-188 -35.5q-56 0 -105 13q-99 24 -156 102.5t-57 183.5zM338 303q0 -24 10 -47q22 -61 121 -61q118 0 197 92q55 62 84 188q-17 -1 -49 -2t-48 -2 q-173 -8 -254 -65q-61 -41 -61 -103zM557 1378q0 92 65 156.5t156 64.5q92 0 156.5 -65.5t64.5 -157.5t-65 -156.5t-156 -62.5q-93 0 -157 64t-64 157zM692 1376q0 -32 27 -59q29 -25 59 -25q35 0 59.5 25.5t24.5 60.5t-24.5 59.5t-59.5 24.5q-36 0 -61.5 -25.5t-24.5 -60.5 z" />
<glyph unicode="&#xe6;" horiz-adv-x="1921" d="M18 262q0 31 6 62.5t21.5 74t51 84.5t87.5 74q89 56 216.5 77t385.5 34q21 93 21 110q-1 37 -18.5 61.5t-45 34t-45.5 12.5t-36 3q-62 0 -101.5 -28.5t-58.5 -63.5q-21 -40 -21 -58l-315 11q15 48 25 74.5t30 60.5t47 63q74 80 176 111t234 31q177 0 280 -58 q44 -23 60 -39q33 20 53.5 31t63.5 29.5t95 27.5t111 9q125 0 236 -49.5t174 -145.5q76 -108 76 -289q0 -47 -8 -137h-760q0 -92 15.5 -142t76.5 -85q53 -33 123 -33q113 2 196 92q13 16 43 66l265 -93q-44 -75 -70 -106q-163 -199 -440 -199q-214 0 -336 101 q-25 18 -98 104q-16 -20 -56 -57q-26 -23 -61.5 -45t-89 -47.5t-126 -41.5t-149.5 -16q-64 0 -133 19q-95 29 -148 102.5t-53 173.5zM336 299q0 -34 16 -59q33 -45 103 -45q26 0 52.5 5t62 19t69 46t57.5 79q23 49 41 125q-3 0 -23 0.5t-33.5 0t-38.5 -1.5t-46.5 -3 t-49.5 -7t-54 -12q-33 -8 -70 -24q-86 -42 -86 -123zM1100 666h446q-4 57 -18 92q-18 40 -62.5 75.5t-117.5 34.5q-51 0 -95 -22q-57 -27 -88.5 -67.5t-64.5 -112.5z" />
<glyph unicode="&#xe7;" horiz-adv-x="1191" d="M57 459q-6 159 80 313q62 113 154 187t187.5 103t199.5 28q142 -1 245 -56t162 -139q32 -47 74 -166l-282 -61q-6 23 -11.5 38t-21 43t-34.5 45.5t-53 32t-77 15.5q-60 2 -111 -24t-84.5 -67.5t-57.5 -93.5t-34.5 -101.5t-11.5 -92.5q-1 -68 18.5 -118t53 -74.5t67 -35.5 t70.5 -12q41 -1 75.5 11t55.5 27t40.5 41.5t27.5 42t20 41.5q3 6 4 9l287 -88q-53 -101 -92 -147q-45 -53 -102 -91.5t-103 -57t-97 -29t-73 -12t-43 -1.5l-72 -112q56 10 90 10q65 0 95 -34t30 -73q0 -44 -38 -95.5t-120 -80.5q-57 -20 -163 -20q-62 0 -123 6l20 92 q58 -4 74 -4q40 0 70 18.5t28 40.5q-3 39 -53 39q-41 0 -100 -18l14 72l143 165q-44 5 -95 21.5t-111 54.5t-107.5 90t-80 135t-34.5 183z" />
<glyph unicode="&#xe8;" d="M59 477q0 74 17 144q28 118 99 221.5t169 165.5q135 84 315 84q36 0 73 -4.5t95.5 -18.5t117 -51t102.5 -92q57 -72 77 -152q21 -74 21 -164q0 -49 -8 -139h-768q-12 -172 94 -229q51 -29 119 -29q119 0 198 82q22 26 51 74l265 -93q-40 -65 -70 -104 q-156 -203 -453 -203q-128 0 -227 41q-138 57 -212.5 183t-74.5 284zM379 1520h338l192 -332h-192zM410 670h452q0 49 -10 80q-16 44 -63.5 82t-126.5 38q-82 0 -156 -59q-30 -27 -49 -54t-47 -87z" />
<glyph unicode="&#xe9;" d="M59 477q0 74 17 144q28 118 99 221.5t169 165.5q135 84 315 84q36 0 73 -4.5t95.5 -18.5t117 -51t102.5 -92q57 -72 77 -152q21 -74 21 -164q0 -49 -8 -139h-768q-12 -172 94 -229q51 -29 119 -29q119 0 198 82q22 26 51 74l265 -93q-40 -65 -70 -104 q-156 -203 -453 -203q-128 0 -227 41q-138 57 -212.5 183t-74.5 284zM410 670h452q0 49 -10 80q-16 44 -63.5 82t-126.5 38q-82 0 -156 -59q-30 -27 -49 -54t-47 -87zM565 1188l193 332h338l-338 -332h-193z" />
<glyph unicode="&#xea;" d="M59 477q0 74 17 144q28 118 99 221.5t169 165.5q135 84 315 84q36 0 73 -4.5t95.5 -18.5t117 -51t102.5 -92q57 -72 77 -152q21 -74 21 -164q0 -49 -8 -139h-768q-12 -172 94 -229q51 -29 119 -29q119 0 198 82q22 26 51 74l265 -93q-40 -65 -70 -104 q-156 -203 -453 -203q-128 0 -227 41q-138 57 -212.5 183t-74.5 284zM362 1188l259 258h346l141 -258h-225l-97 151l-143 -151h-281zM410 670h452q0 49 -10 80q-16 44 -63.5 82t-126.5 38q-82 0 -156 -59q-30 -27 -49 -54t-47 -87z" />
<glyph unicode="&#xeb;" d="M59 477q0 74 17 144q28 118 99 221.5t169 165.5q135 84 315 84q36 0 73 -4.5t95.5 -18.5t117 -51t102.5 -92q57 -72 77 -152q21 -74 21 -164q0 -49 -8 -139h-768q-12 -172 94 -229q51 -29 119 -29q119 0 198 82q22 26 51 74l265 -93q-40 -65 -70 -104 q-156 -203 -453 -203q-128 0 -227 41q-138 57 -212.5 183t-74.5 284zM342 1184l51 237h330l-49 -237h-332zM410 670h452q0 49 -10 80q-16 44 -63.5 82t-126.5 38q-82 0 -156 -59q-30 -27 -49 -54t-47 -87zM834 1184l53 237h334l-54 -237h-333z" />
<glyph unicode="&#xec;" horiz-adv-x="598" d="M0 0l244 1055h315l-240 -1055h-319zM59 1520h338l193 -332h-193z" />
<glyph unicode="&#xed;" horiz-adv-x="598" d="M0 0l244 1055h315l-240 -1055h-319zM279 1188l190 332h340l-340 -332h-190z" />
<glyph unicode="&#xee;" horiz-adv-x="598" d="M0 0l244 1055h315l-240 -1055h-319zM43 1188l256 258h348l141 -258h-225l-96 151l-145 -151h-279z" />
<glyph unicode="&#xef;" horiz-adv-x="598" d="M0 0l244 1055h315l-240 -1055h-319zM23 1184l49 237h329l-49 -237h-329zM514 1184l53 237h332l-53 -237h-332z" />
<glyph unicode="&#xf0;" horiz-adv-x="1280" d="M59 455q-1 88 23 176.5t72 171.5t129.5 150.5t185.5 103.5q99 35 184 35q129 0 207 -82q-10 50 -21 80t-28 62.5t-25 51.5l-315 -74l-33 113l279 66l-10 14q-11 16 -22.5 29.5t-28 31t-25.5 27.5l250 78q44 -50 80 -98l16 -23l178 43l35 -113l-148 -34 q57 -96 105.5 -253.5t48.5 -334.5q0 -185 -57 -320q-24 -57 -56 -108.5t-82.5 -104.5t-111.5 -90.5t-146.5 -61t-183.5 -22.5q-140 1 -252.5 59.5t-179.5 170t-68 256.5zM379 465q0 -66 19 -115.5t51 -77t67.5 -41t73.5 -14.5q61 -1 110.5 28t79.5 73t50.5 99t28.5 104t7 91 q-1 67 -21.5 115.5t-53.5 73t-67.5 35t-72.5 8.5q-64 -3 -116 -37q-62 -42 -109 -136.5t-47 -205.5z" />
<glyph unicode="&#xf1;" d="M2 0l242 1055h315l-29 -127q23 26 41.5 43t59.5 47t94 46.5t113 16.5q68 0 123 -22q54 -21 90.5 -55t51.5 -73t20 -67t5 -57q0 -53 -16 -117l-156 -690h-317l139 623q13 78 13 98q0 35 -13.5 60t-35 36.5t-39 16t-33.5 4.5q-38 0 -82 -23q-57 -33 -87 -90t-46 -133 l-136 -592h-317zM381 1184q12 46 31 96q7 15 15 30.5t29 43t44.5 47t60.5 35t78 14.5q72 0 164 -45q3 -1 23.5 -11.5t30 -14.5t27 -11.5t31 -10.5t25.5 -3q16 0 37 8q22 9 34 26t23 46h152q-10 -30 -27 -68q-36 -82 -74 -123.5t-84 -60.5q-43 -19 -88 -19q-63 0 -157 47 q-6 3 -18.5 10t-17 9t-14.5 7.5t-14 7t-12 5.5t-12.5 5t-11 3t-11.5 3t-10.5 1.5t-11.5 0.5q-12 0 -22.5 -1.5t-19 -6t-15 -7.5t-12 -10t-9 -11t-8 -12.5t-5.5 -11t-4 -11.5l-4 -9z" />
<glyph unicode="&#xf2;" horiz-adv-x="1280" d="M59 475q0 51 9 105.5t46 140.5t99 160q28 34 63.5 65t92.5 67t138 57.5t173 21.5q128 0 231 -45q134 -57 206.5 -178.5t72.5 -272.5q0 -52 -9 -109t-47.5 -148t-103.5 -165q-57 -65 -125.5 -109.5t-134.5 -63.5t-111.5 -25.5t-89.5 -6.5q-209 0 -338 107q-82 67 -127 175 t-45 224zM379 463q0 -108 55 -176q54 -68 156 -68q118 0 194 105q82 116 82 278q0 85 -24 135q-11 24 -31.5 46t-63.5 42.5t-96 18.5q-104 -5 -172 -88q-37 -46 -68.5 -121t-31.5 -172zM401 1520h336l193 -332h-193z" />
<glyph unicode="&#xf3;" horiz-adv-x="1280" d="M59 475q0 51 9 105.5t46 140.5t99 160q28 34 63.5 65t92.5 67t138 57.5t173 21.5q128 0 231 -45q134 -57 206.5 -178.5t72.5 -272.5q0 -52 -9 -109t-47.5 -148t-103.5 -165q-57 -65 -125.5 -109.5t-134.5 -63.5t-111.5 -25.5t-89.5 -6.5q-209 0 -338 107q-82 67 -127 175 t-45 224zM379 463q0 -108 55 -176q54 -68 156 -68q118 0 194 105q82 116 82 278q0 85 -24 135q-11 24 -31.5 46t-63.5 42.5t-96 18.5q-104 -5 -172 -88q-37 -46 -68.5 -121t-31.5 -172zM621 1188l190 332h338l-338 -332h-190z" />
<glyph unicode="&#xf4;" horiz-adv-x="1280" d="M59 475q0 51 9 105.5t46 140.5t99 160q28 34 63.5 65t92.5 67t138 57.5t173 21.5q128 0 231 -45q134 -57 206.5 -178.5t72.5 -272.5q0 -52 -9 -109t-47.5 -148t-103.5 -165q-57 -65 -125.5 -109.5t-134.5 -63.5t-111.5 -25.5t-89.5 -6.5q-209 0 -338 107q-82 67 -127 175 t-45 224zM379 463q0 -108 55 -176q54 -68 156 -68q118 0 194 105q82 116 82 278q0 85 -24 135q-11 24 -31.5 46t-63.5 42.5t-96 18.5q-104 -5 -172 -88q-37 -46 -68.5 -121t-31.5 -172zM383 1188l258 258h346l141 -258h-225l-94 151l-145 -151h-281z" />
<glyph unicode="&#xf5;" horiz-adv-x="1280" d="M59 475q0 51 9 105.5t46 140.5t99 160q28 34 63.5 65t92.5 67t138 57.5t173 21.5q128 0 231 -45q134 -57 206.5 -178.5t72.5 -272.5q0 -52 -9 -109t-47.5 -148t-103.5 -165q-57 -65 -125.5 -109.5t-134.5 -63.5t-111.5 -25.5t-89.5 -6.5q-209 0 -338 107q-82 67 -127 175 t-45 224zM379 463q0 -108 55 -176q54 -68 156 -68q118 0 194 105q82 116 82 278q0 85 -24 135q-11 24 -31.5 46t-63.5 42.5t-96 18.5q-104 -5 -172 -88q-37 -46 -68.5 -121t-31.5 -172zM403 1184q12 46 31 96q7 15 15 30.5t29 43t44 47t60 35t77 14.5q76 0 166 -45 q6 -3 29 -14t37.5 -18t35 -13t34.5 -6q20 0 38 8q15 6 26.5 18.5t17 22.5t14.5 31h151q-5 -11 -14 -33.5t-14 -34.5q-36 -82 -73 -122.5t-85 -61.5q-49 -19 -88 -19q-71 0 -156 47q-5 3 -18.5 10t-17.5 9t-14.5 7.5t-14 7t-12 5.5t-12.5 5t-11 3t-12 3t-11 1.5t-12 0.5 q-25 0 -43.5 -8t-29 -23.5t-14.5 -24.5t-9 -24z" />
<glyph unicode="&#xf6;" horiz-adv-x="1280" d="M59 475q0 51 9 105.5t46 140.5t99 160q28 34 63.5 65t92.5 67t138 57.5t173 21.5q128 0 231 -45q134 -57 206.5 -178.5t72.5 -272.5q0 -52 -9 -109t-47.5 -148t-103.5 -165q-57 -65 -125.5 -109.5t-134.5 -63.5t-111.5 -25.5t-89.5 -6.5q-209 0 -338 107q-82 67 -127 175 t-45 224zM340 1184l49 237h330l-49 -237h-330zM379 463q0 -108 55 -176q54 -68 156 -68q118 0 194 105q82 116 82 278q0 85 -24 135q-11 24 -31.5 46t-63.5 42.5t-96 18.5q-104 -5 -172 -88q-37 -46 -68.5 -121t-31.5 -172zM831 1184l54 237h332l-54 -237h-332z" />
<glyph unicode="&#xf7;" horiz-adv-x="1482" d="M141 518l66 285h1157l-64 -285h-1159zM467 96l72 312h315l-72 -312h-315zM655 913l72 312h315l-71 -312h-316z" />
<glyph unicode="&#xf8;" horiz-adv-x="1280" d="M59 461q0 227 140 401q57 71 127.5 121t137 72t115.5 30.5t91 8.5q26 0 53.5 -2.5t47.5 -6t44 -9.5t36 -9.5t31 -10t23 -7.5l96 143h152l-139 -207q78 -78 98 -111q76 -110 76 -278q0 -38 -6 -80.5t-22 -104t-53 -127.5t-91 -124q-177 -191 -465 -191q-53 0 -92 7 t-115 34l-98 -145h-152l139 207q-63 63 -90 100q-84 108 -84 289zM365 461q0 -78 32 -152l361 525q-60 24 -101 24q-52 -3 -88 -18q-98 -40 -151 -151.5t-53 -227.5zM489 219q63 -18 101 -18q72 0 133 43q59 41 105 134.5t46 229.5q0 17 -1.5 33t-2.5 26t-5 24t-5 18 t-6.5 19.5t-5.5 16.5z" />
<glyph unicode="&#xf9;" d="M74 252q0 50 18 135l152 668h315l-139 -621q-8 -32 -8 -69q0 -94 69 -119q32 -8 51 -8q51 0 97 28q54 32 79 83.5t42 129.5l129 576h317l-240 -1055h-315l31 137q-22 -23 -31.5 -32.5t-42.5 -36t-61 -39.5t-73.5 -25t-94.5 -12q-124 0 -209.5 70t-85.5 190zM379 1520h338 l192 -332h-192z" />
<glyph unicode="&#xfa;" d="M74 252q0 50 18 135l152 668h315l-139 -621q-8 -32 -8 -69q0 -94 69 -119q32 -8 51 -8q51 0 97 28q54 32 79 83.5t42 129.5l129 576h317l-240 -1055h-315l31 137q-22 -23 -31.5 -32.5t-42.5 -36t-61 -39.5t-73.5 -25t-94.5 -12q-124 0 -209.5 70t-85.5 190zM598 1188 l193 332h337l-337 -332h-193z" />
<glyph unicode="&#xfb;" d="M74 252q0 50 18 135l152 668h315l-139 -621q-8 -32 -8 -69q0 -94 69 -119q32 -8 51 -8q51 0 97 28q54 32 79 83.5t42 129.5l129 576h317l-240 -1055h-315l31 137q-22 -23 -31.5 -32.5t-42.5 -36t-61 -39.5t-73.5 -25t-94.5 -12q-124 0 -209.5 70t-85.5 190zM362 1188 l259 258h346l141 -258h-225l-97 151l-143 -151h-281z" />
<glyph unicode="&#xfc;" d="M74 252q0 50 18 135l152 668h315l-139 -621q-8 -32 -8 -69q0 -94 69 -119q32 -8 51 -8q51 0 97 28q54 32 79 83.5t42 129.5l129 576h317l-240 -1055h-315l31 137q-22 -23 -31.5 -32.5t-42.5 -36t-61 -39.5t-73.5 -25t-94.5 -12q-124 0 -209.5 70t-85.5 190zM336 1186 l49 237h330l-47 -237h-332zM827 1186l54 237h331l-53 -237h-332z" />
<glyph unicode="&#xfd;" horiz-adv-x="1024" d="M-139 -371l55 256q86 -14 109 -14q60 0 96 19.5t67 58.5l-108 1106h319l33 -738l371 738h350l-688 -1172q-32 -55 -57 -90t-63 -71t-80.5 -56t-105 -32.5t-141.5 -12.5q-55 0 -157 8zM492 1188l192 332h338l-338 -332h-192z" />
<glyph unicode="&#xfe;" horiz-adv-x="1280" d="M-84 -385l410 1831h284l-106 -498q52 60 116.5 97t163.5 38q52 1 104 -10.5t107 -43.5t97.5 -81t71 -130t30.5 -183q2 -108 -24.5 -208t-72 -175t-98 -130t-108.5 -87q-117 -66 -254 -64q-151 3 -236 76q-18 15 -57 64l-113 -496h-315zM412 420q1 -60 18.5 -104.5 t47 -68.5t60.5 -35.5t64 -12.5q44 -1 81 13t62.5 41t39.5 46t28 45q71 128 68 274q-1 124 -56.5 183.5t-134.5 56.5q-21 0 -61 -12q-74 -29 -113 -78q-45 -53 -74.5 -165.5t-29.5 -182.5z" />
<glyph unicode="&#xff;" horiz-adv-x="1024" d="M-139 -371l57 256q1 0 21.5 -4t43.5 -7t44 -3q46 0 81 14.5t47.5 27t32.5 36.5l-108 1106h319l33 -738l371 738h350l-688 -1172q-31 -52 -82 -116q-68 -83 -155.5 -114.5t-207.5 -31.5q-53 0 -159 8zM236 1184l51 237h329l-51 -237h-329zM727 1184l53 237h332l-51 -237 h-334z" />
<glyph unicode="&#x152;" horiz-adv-x="2217" d="M96 580q0 124 31 245q49 182 166 345t274 239q138 70 326 70q86 0 162 -17t108 -31t86 -42l13 57h956l-61 -279h-615l-63 -278h587l-57 -262h-590l-82 -351h729l-65 -276h-1069l14 57q-74 -32 -110 -46t-93.5 -26t-119.5 -12q-124 0 -220 45q-43 19 -82.5 47.5t-81.5 77 t-73 108t-50.5 145t-19.5 184.5zM465 616q0 -100 26 -172.5t69.5 -109t88.5 -52.5t94 -16q41 0 101 17q45 15 81 41t60 59.5t33.5 50.5t21.5 43l117 504q-10 53 -24 84q-30 64 -92.5 98.5t-135.5 34.5q-66 0 -141.5 -32t-145.5 -115q-24 -29 -47 -65t-49 -91t-41.5 -127.5 t-15.5 -151.5z" />
<glyph unicode="&#x153;" horiz-adv-x="1961" d="M59 459q0 37 5.5 79t20.5 102t49.5 125.5t84.5 123.5q56 64 125.5 107.5t136 62t112 25t85.5 6.5q170 0 295 -84q10 -6 21 -14.5t23.5 -19.5t18.5 -16q7 5 21.5 17t26 21t22.5 16q127 80 276 80q130 0 244 -56q130 -62 187 -166.5t57 -253.5q0 -26 -10 -143l-742 -2 q1 -45 3 -68.5t9.5 -56t24.5 -55.5t45 -41q58 -35 127 -35q44 0 88 18q34 15 60.5 37.5t40.5 42t38 58.5l265 -95q-75 -111 -113 -151q-71 -75 -177.5 -114.5t-221.5 -39.5q-29 0 -57 3t-50 6t-46 11t-39.5 12.5t-36.5 16t-30.5 16.5t-29 18.5t-24.5 17.5t-23.5 18.5 t-20.5 15.5q-35 -26 -46.5 -34.5t-55 -33.5t-76.5 -36t-88.5 -22t-114.5 -11q-208 0 -350 121q-160 135 -160 371zM381 467q0 -163 98 -221q49 -27 101 -27q100 0 174 82q41 47 65.5 117.5t28.5 109.5t4 70q0 76 -20.5 130.5t-77.5 86.5q-52 29 -103 27q-55 0 -112 -35 q-76 -48 -117 -145.5t-41 -194.5zM1161 668h426q-3 52 -12 77q-20 54 -69.5 87.5t-106.5 33.5q-39 0 -92 -24q-56 -28 -85.5 -66.5t-60.5 -107.5z" />
<glyph unicode="&#x178;" horiz-adv-x="1366" d="M199 1446h358l201 -520l379 520h407l-682 -836l-137 -610h-358l145 655zM479 1604l51 233h332l-53 -233h-330zM1012 1604l51 233h332l-54 -233h-329z" />
<glyph unicode="&#x2c6;" horiz-adv-x="641" d="M-53 1188l258 258h346l143 -258h-225l-96 151l-144 -151h-282z" />
<glyph unicode="&#x2dc;" horiz-adv-x="641" d="M-82 1184q12 46 31 96q7 15 15 30.5t29 43t44.5 47t60.5 35t78 14.5q72 0 164 -45q3 -1 23.5 -11.5t30 -14.5t27 -11.5t31 -10.5t25.5 -3q16 0 37 8q22 9 34 26t23 46h152q-10 -30 -27 -68q-36 -82 -73.5 -123.5t-83.5 -60.5q-43 -19 -88 -19q-64 0 -158 47 q-6 3 -18.5 10t-17 9t-14.5 7.5t-14 7t-12 5.5t-12.5 5t-11 3t-11.5 3t-10.5 1.5t-11.5 0.5q-12 0 -22.5 -1.5t-19 -6t-15 -7.5t-12 -10t-9 -11t-8 -12.5t-5.5 -11t-5 -11.5l-3 -9z" />
<glyph unicode="&#x2000;" horiz-adv-x="969" />
<glyph unicode="&#x2001;" horiz-adv-x="1939" />
<glyph unicode="&#x2002;" horiz-adv-x="969" />
<glyph unicode="&#x2003;" horiz-adv-x="1939" />
<glyph unicode="&#x2004;" horiz-adv-x="646" />
<glyph unicode="&#x2005;" horiz-adv-x="484" />
<glyph unicode="&#x2006;" horiz-adv-x="323" />
<glyph unicode="&#x2007;" horiz-adv-x="323" />
<glyph unicode="&#x2008;" horiz-adv-x="242" />
<glyph unicode="&#x2009;" horiz-adv-x="387" />
<glyph unicode="&#x200a;" horiz-adv-x="107" />
<glyph unicode="&#x2010;" horiz-adv-x="770" d="M53 485l68 293h612l-67 -293h-613z" />
<glyph unicode="&#x2011;" horiz-adv-x="770" d="M53 485l68 293h612l-67 -293h-613z" />
<glyph unicode="&#x2012;" horiz-adv-x="770" d="M53 485l68 293h612l-67 -293h-613z" />
<glyph unicode="&#x2013;" horiz-adv-x="1282" d="M53 485l68 293h1124l-67 -293h-1125z" />
<glyph unicode="&#x2014;" horiz-adv-x="1880" d="M53 485l68 293h1722l-67 -293h-1723z" />
<glyph unicode="&#x2018;" horiz-adv-x="512" d="M137 776q6 29 17 81.5t17.5 82.5t18.5 77.5t23 77.5t28 70.5t37 69.5t46 60.5t59.5 57.5t73.5 48q41 22 168 67l-35 -149q-83 -53 -111.5 -87.5t-62.5 -125.5h123l-76 -330h-326z" />
<glyph unicode="&#x2019;" horiz-adv-x="512" d="M111 756l34 149q82 51 111 86t63 125h-120l73 330h328q-7 -31 -20 -91t-20.5 -92.5t-22.5 -86t-28.5 -86t-36.5 -76.5t-49 -74.5t-63 -62t-81 -56.5q-52 -28 -168 -65z" />
<glyph unicode="&#x201a;" horiz-adv-x="512" d="M-131 -360l35 149q82 51 111 86t63 125h-123l76 332h327q-7 -30 -18 -81t-18 -82.5t-18.5 -77.5t-23 -77.5t-28.5 -71.5t-37 -70t-46 -61.5t-59.5 -57.5t-72.5 -48q-52 -28 -168 -65z" />
<glyph unicode="&#x201c;" horiz-adv-x="980" d="M135 772q6 29 17 81.5t17.5 82.5t18.5 77.5t23 77.5t28 70.5t37 69.5t46 60.5t59.5 57.5t73.5 48q41 22 168 67l-35 -149q-82 -51 -111 -87t-61 -126h121l-76 -330h-326zM608 772q7 30 18 81.5t18 82t19 77t23.5 77.5t28.5 71t37 69.5t46 61t59.5 57.5t72.5 48 q41 22 168 67l-35 -149q-83 -53 -111.5 -87.5t-62.5 -125.5h123l-76 -330h-328z" />
<glyph unicode="&#x201d;" horiz-adv-x="980" d="M117 756l35 149q82 51 111 86t63 125h-123l76 330h327q-7 -30 -18 -80.5t-18 -82t-18.5 -77.5t-23 -77.5t-28.5 -71t-37 -69.5t-46 -61t-59.5 -57.5t-72.5 -48.5q-52 -28 -168 -65zM594 756l35 149q82 51 111 86t63 125h-121l74 330h327q-7 -31 -20 -91t-20.5 -92.5 t-22.5 -86t-28.5 -86t-36.5 -76.5t-49 -74.5t-63 -62t-81 -56.5q-52 -28 -168 -65z" />
<glyph unicode="&#x201e;" horiz-adv-x="980" d="M-131 -360l35 149q82 51 111 86t63 125h-123l76 332h327q-7 -30 -18 -81t-18 -82.5t-18.5 -77.5t-23 -77.5t-28.5 -71.5t-37 -70t-46 -61.5t-59.5 -57.5t-72.5 -48q-52 -28 -168 -65zM332 -360l35 149q82 51 111 86t63 125h-121l74 332h327q-7 -30 -18 -81t-18 -82.5 t-18.5 -77.5t-23 -77.5t-28.5 -71.5t-37 -70t-46 -61.5t-59.5 -57.5t-72.5 -48q-52 -28 -168 -65z" />
<glyph unicode="&#x2022;" horiz-adv-x="681" d="M51 451l121 528h526l-120 -528h-527z" />
<glyph unicode="&#x2026;" horiz-adv-x="2048" d="M74 0l63 279h279l-66 -279h-276zM760 0l63 279h279l-66 -279h-276zM1442 0l65 279h277l-64 -279h-278z" />
<glyph unicode="&#x202f;" horiz-adv-x="387" />
<glyph unicode="&#x2039;" horiz-adv-x="468" d="M51 496l76 331l360 230l-65 -291l-213 -133l147 -148l-57 -249z" />
<glyph unicode="&#x203a;" horiz-adv-x="468" d="M-6 233l65 287l211 137l-147 144l59 252l244 -260l-72 -324z" />
<glyph unicode="&#x205f;" horiz-adv-x="484" />
<glyph unicode="&#x20ac;" horiz-adv-x="1533" d="M18 516l97 154h96q0 46 10 80h-151l96 159h96q82 256 275 388.5t464 132.5q161 0 286.5 -41.5t228.5 -143.5l-152 -262q-76 86 -162.5 129t-195.5 43q-127 0 -220 -64t-141 -182h682l-92 -159l-633 2q-12 -44 -12 -82h598l-88 -154h-510q17 -128 109.5 -196t226.5 -68 q125 0 219 39t194 125l-71 -377q-173 -76 -387 -76q-133 0 -248.5 34.5t-206 101.5t-146 174t-63.5 243h-199z" />
<glyph unicode="&#x2122;" horiz-adv-x="1507" d="M162 1307l31 139h552l-28 -139h-187l-116 -539h-174l116 539h-194zM678 768l147 678h254l19 -434l205 434h253l-143 -678h-166l117 516l-246 -516h-143l-25 524l-106 -524h-166z" />
<glyph unicode="&#xe000;" horiz-adv-x="1054" d="M0 0v1055h1055v-1055h-1055z" />
</font>
</defs>
</svg>
