<?xml version="1.0" standalone="no"?>
<!DOCTYPE svg PUBLIC "-//W3C//DTD SVG 1.1//EN" "http://www.w3.org/Graphics/SVG/1.1/DTD/svg11.dtd" >
<svg xmlns="http://www.w3.org/2000/svg">
<metadata></metadata>
<defs>
<font id="akzidenz-grotesk_bqMdIt" horiz-adv-x="1150" >
<font-face units-per-em="2048" ascent="1638" descent="-410" />
<missing-glyph horiz-adv-x="589" />
<glyph horiz-adv-x="2048" />
<glyph horiz-adv-x="2048" />
<glyph unicode="&#xd;" horiz-adv-x="2048" />
<glyph unicode=" "  horiz-adv-x="589" />
<glyph unicode="&#x09;" horiz-adv-x="589" />
<glyph unicode="&#xa0;" horiz-adv-x="589" />
<glyph unicode="!" horiz-adv-x="598" d="M106 0l64 276h270l-63 -276h-271zM270 403l37 424l144 619h262l-142 -608l-174 -435h-127z" />
<glyph unicode="&#x22;" horiz-adv-x="679" d="M268 909l78 615h197l-205 -615h-70zM606 909l78 615h197l-203 -615h-72z" />
<glyph unicode="#" horiz-adv-x="1366" d="M113 438l37 205h276l59 193h-258l37 204h285l127 406h213l-129 -406h201l126 406h207l-127 -406h242l-37 -204h-268l-62 -193h252l-37 -205h-276l-141 -438h-205l139 438h-203l-137 -438h-209l137 438h-249zM633 643h205l59 193h-203z" />
<glyph unicode="$" horiz-adv-x="1193" d="M47 369l240 71q31 -186 194 -229l97 418q-36 13 -97 39q-74 34 -126 78.5t-78 91t-37 87.5t-11 83q0 142 107 256q47 50 108.5 83.5t121 47t96.5 18t69 4.5h29l39 166h131l-41 -178q93 -19 153 -51q172 -91 224 -258l-234 -82q-11 39 -31 73q-19 29 -60.5 62t-100.5 45 l-84 -375q43 -16 114 -49q90 -43 135 -79q134 -107 134 -275q0 -53 -15 -113q-46 -162 -217 -256q-130 -74 -289 -74q-10 0 -30 1t-29 1l-43 -188h-133l47 203q-124 20 -235 114q-57 47 -96.5 118.5t-51.5 146.5zM489 1030q0 -33 19 -69q4 -8 9.5 -15t9.5 -12.5t11.5 -11.5 t11 -9.5t13 -9t12.5 -7.5t14.5 -7.5t13.5 -7t15 -7t15 -6.5l76 334q-85 -2 -140 -41q-25 -15 -49 -47q-31 -40 -31 -84zM610 197q61 0 95 8q14 3 30.5 9.5t42 22.5t45.5 36t34.5 53.5t14.5 72.5q0 24 -12 60q-17 39 -51.5 65.5t-110.5 59.5z" />
<glyph unicode="%" horiz-adv-x="1792" d="M160 801q0 142 45.5 288.5t134.5 231.5q90 88 223 88q94 0 158 -41q131 -80 131 -299q0 -94 -25 -201q-62 -280 -223 -364q-64 -33 -147 -33q-60 0 -109 16.5t-80 44.5t-49.5 53t-30.5 52q-28 72 -28 164zM336 797q0 -170 119 -170q26 0 49 8q43 19 78 72q43 67 71 198 q25 117 25 191q0 106 -60 145q-26 16 -59 16q-30 -1 -56 -14t-43.5 -33.5t-25.5 -32.5t-14 -24q-36 -65 -60 -171t-24 -185zM436 47l953 1370l102 -69l-952 -1373zM1071 313q0 141 45.5 288t134.5 233q90 88 224 88q42 0 79.5 -8.5t77 -32t68 -60.5t47 -99t18.5 -142 q0 -92 -26 -201q-62 -277 -223 -363q-66 -34 -148 -34q-55 1 -101 15.5t-76.5 38t-49 45.5t-31.5 46q-39 72 -39 186zM1247 303q0 -166 119 -166q74 0 125 80q48 69 74 199q24 108 24 190q0 108 -59 146q-26 16 -60 16q-37 0 -75 -26t-68 -85q-33 -67 -56.5 -171.5 t-23.5 -182.5z" />
<glyph unicode="&#x26;" horiz-adv-x="1366" d="M57 348q0 98 58 191q25 38 58 70t78.5 60t76 44.5t89.5 44.5t81 39q-45 126 -45 223q0 141 88 229q36 38 99.5 69.5t150.5 31.5q146 0 229 -88q76 -76 76 -189q0 -51 -21 -98t-49.5 -81.5t-75.5 -70t-81.5 -56.5t-84.5 -48q13 -24 37 -68t32.5 -59.5t25.5 -46t25.5 -44 t22 -34.5t25.5 -37t27 -33q44 53 68.5 103.5t48.5 128.5h241q-19 -81 -64.5 -174t-98.5 -160q-22 -28 -54 -57q44 -35 111 -35q21 0 80 6l-51 -213q-44 -6 -89 -6q-158 0 -243 100q-201 -121 -418 -121q-98 0 -180 25q-126 39 -199.5 132t-73.5 222zM307 358q0 -41 23 -84 q57 -98 196 -98q58 0 120 17.5t89 31.5q20 8 56 31q-31 42 -61 87.5t-55 89t-41.5 72.5t-36 66t-22.5 43q-36 -17 -96.5 -49.5t-85.5 -50.5q-16 -12 -32 -27t-35 -51.5t-19 -77.5zM678 1028q0 -45 31 -127q44 19 94 55q40 30 60 58t20 69q0 14 -5 31t-25.5 36t-53.5 19 q-20 0 -39 -6.5t-38.5 -21t-31.5 -44t-12 -69.5z" />
<glyph unicode="'" horiz-adv-x="339" d="M268 909l78 615h197l-205 -615h-70z" />
<glyph unicode="(" horiz-adv-x="667" d="M125 457q0 399 231 723q140 193 328 336q95 72 197 131l84 -117q-137 -99 -224 -181t-157 -180q-111 -156 -170.5 -346t-59.5 -389q0 -284 109 -500q39 -76 98 -153l-117 -111q-75 86 -135 172q-184 278 -184 615z" />
<glyph unicode=")" horiz-adv-x="667" d="M-182 -219q138 100 224.5 181.5t154.5 176.5q112 156 171.5 345.5t59.5 389.5q0 276 -109 502q-35 70 -98 154l115 110q78 -89 135 -174q184 -278 184 -612q0 -402 -231 -723q-133 -188 -328 -336q-83 -64 -194 -131z" />
<glyph unicode="*" horiz-adv-x="774" d="M215 1212l88 154l182 -102l50 204l172 -43l-50 -204l215 20l17 -176l-209 -21l80 -186l-160 -74l-88 195l-156 -137l-114 137l149 131z" />
<glyph unicode="+" horiz-adv-x="1482" d="M223 535l49 217h414l100 436h267l-103 -436h420l-49 -217h-420l-100 -445h-266l100 445h-412z" />
<glyph unicode="," horiz-adv-x="512" d="M-25 -289l31 129q28 0 49 10.5t33 22.5t23 39t14.5 40.5t11.5 47.5h-110l63 276h272l-65 -276q-34 -133 -47 -158q-72 -133 -225 -133q-34 0 -50 2z" />
<glyph unicode="-" horiz-adv-x="761" d="M113 508l53 231h592l-53 -231h-592z" />
<glyph unicode="." horiz-adv-x="512" d="M27 0l63 276h272l-65 -276h-270z" />
<glyph unicode="/" horiz-adv-x="854" d="M-84 0l903 1446h258l-899 -1446h-262z" />
<glyph unicode="0" d="M111 479q1 106 20 221.5t55.5 232.5t99.5 220.5t144 167.5q127 98 301 98q64 0 139 -18q304 -87 304 -506q0 -144 -37 -309q-53 -234 -148 -372.5t-211 -195.5q-88 -45 -211 -45q-68 0 -129 15q-49 12 -92 33.5t-71.5 44.5t-52.5 50.5t-37 48t-23 42.5q-51 104 -51 272z M367 463q0 -141 53.5 -203.5t140.5 -62.5q124 0 207 131q67 106 113 311q1 4 6.5 30t10 52.5t10 62t9 75t3.5 75.5q0 182 -103 242q-48 24 -92 24q-92 0 -164 -80q-86 -93 -140 -298.5t-54 -358.5z" />
<glyph unicode="1" d="M293 973l39 166q205 -3 330 125q57 59 81 129h226l-322 -1393h-252l180 780q23 104 23 131q0 15 -3 26t-11.5 18t-15.5 10.5t-24.5 5.5t-28 2h-36.5h-14h-172z" />
<glyph unicode="2" d="M25 0l49 207q161 114 316.5 239.5t232.5 194.5q124 115 182.5 204.5t58.5 168.5q0 75 -50 125.5t-126 50.5q-42 0 -93 -22t-95 -78q-29 -37 -46 -80.5t-28 -120.5l-250 39q6 76 47 178q34 81 88.5 142t107.5 92.5t115 50.5t102 23.5t79 4.5q175 0 291 -96q42 -35 71 -79 t40.5 -87t15.5 -71.5t4 -55.5q0 -123 -68 -239q-48 -81 -150.5 -180t-277.5 -236q-105 -84 -203 -152h578l-51 -223h-940z" />
<glyph unicode="3" d="M23 424l264 25q-7 -61 20 -121q8 -19 23 -39.5t40.5 -43t65 -36.5t86.5 -14q50 0 101 18q48 18 82 48.5t49.5 64t21.5 60t6 50.5q0 91 -51 142q-33 31 -90.5 45t-112.5 14q-15 0 -43 -4l50 213q58 -8 121.5 -4t115.5 30q42 21 68 54.5t32.5 59t6.5 50.5q0 44 -23 84 q-25 41 -71 61.5t-97 20.5q-32 0 -59 -6q-53 -13 -90 -43t-52 -55q-27 -38 -38 -92l-248 55q38 107 78 162q70 98 184.5 147t243.5 49q116 0 214 -40t158 -126q58 -82 58 -184q0 -48 -15 -94q-18 -55 -51.5 -100t-72 -72t-66 -41.5t-51.5 -22.5q-43 -13 -80 -16 q2 -1 17.5 -4t30.5 -6.5t36 -11.5t37 -17q47 -28 83.5 -89.5t36.5 -156.5q0 -34 -6 -70t-22 -86t-53 -101.5t-91 -94.5q-144 -113 -358 -113q-339 0 -446 267q-39 97 -43 184z" />
<glyph unicode="4" d="M70 330l57 239l719 824h303l-197 -852h183l-50 -211h-182l-76 -330h-249l75 330h-583zM354 541h348l146 575z" />
<glyph unicode="5" d="M84 354l266 21q7 -46 33 -86q23 -36 63 -57t65 -25t46 -4q65 0 117 26q54 26 91 69t52.5 89t21 77.5t5.5 55.5q0 94 -60.5 160t-152.5 65q-47 0 -91.5 -19.5t-66 -38t-35.5 -36.5q-23 -28 -39 -61h-223l244 803h764l-51 -226h-551l-90 -284q114 67 237 67q117 0 204 -58 t130 -152t43 -208q0 -109 -41 -213q-67 -168 -205.5 -257t-322.5 -89q-29 0 -56 2t-78.5 13.5t-94.5 31t-91 61t-80 97.5q-44 78 -53 176z" />
<glyph unicode="6" d="M143 510q0 280 131 539q13 26 25 47.5t40 62t56.5 72t73 68.5t92 62t111.5 41.5t133 16.5q230 0 354 -172q52 -71 70 -151l-277 -45q-13 51 -28 77q-16 27 -50.5 48.5t-87.5 21.5q-65 0 -124 -37q-134 -88 -207 -344q6 4 17 12.5t17 12.5q100 69 246 69q84 0 144 -24 q119 -44 183 -153t64 -242q0 -189 -129 -340q-151 -179 -401 -179q-99 0 -180 33q-57 23 -102 60.5t-73 76t-48 89.5t-29.5 87.5t-14.5 83.5t-5.5 64.5t-0.5 42.5zM403 436q0 -16 2.5 -35t10 -49t26 -60.5t45.5 -53.5q54 -48 134 -48q91 0 152.5 60t84.5 153q10 48 10 74 q0 70 -26 117q-19 39 -67 73.5t-124 34.5q-108 -1 -179 -79.5t-69 -186.5z" />
<glyph unicode="7" d="M203 1167l53 226h979l-57 -242q-80 -73 -166 -174q-52 -62 -91.5 -115t-103 -155.5t-121.5 -221.5q-130 -266 -176 -485h-315q26 110 77.5 235t108.5 229t92.5 163.5t59.5 95.5q52 80 172 235q104 133 186 209h-698z" />
<glyph unicode="8" d="M78 389q0 34 6 69t22.5 84.5t56 97t97.5 83.5q52 34 129 51q-20 10 -49 39q-44 42 -69 102t-25 121q0 47 14 96t49 101.5t87 93t135 66.5t186 26q109 0 194 -26q82 -24 140.5 -67t86 -93t39 -93t11.5 -85q0 -35 -7 -72t-37 -93.5t-81 -98.5q-64 -56 -150 -78 q38 -19 58 -35q47 -36 86.5 -104.5t38.5 -165.5q0 -30 -5.5 -62.5t-19.5 -78t-47.5 -93.5t-81.5 -88q-135 -113 -367 -113q-210 0 -348 105q-149 115 -149 311zM342 410q0 -53 27 -99q67 -108 217 -108q57 0 103 17t73 44t42 53.5t21 53.5q18 78 -23 145t-118 94 q-46 15 -102 15q-48 0 -95 -17q-64 -23 -104 -77t-41 -121zM506 1020q0 -33 12 -68q14 -39 41 -64.5t60 -35t52 -12t38 -2.5q57 0 90 14q107 39 127 141q11 42 -4 90q-19 61 -77 93t-126 32q-47 0 -84 -14q-38 -14 -65.5 -37.5t-40 -49.5t-18 -47t-5.5 -40z" />
<glyph unicode="9" d="M57 297l275 45q13 -52 28 -78q16 -27 50.5 -48t87.5 -21q67 0 125 36q129 82 206 344q-6 -4 -17 -12t-17 -12q-102 -70 -246 -70q-92 0 -164 33q-111 49 -169 154t-58 233q0 185 127 334q150 184 403 184q87 0 168 -26q52 -19 94.5 -48.5t71 -66.5t50.5 -73.5t34.5 -80.5 t20 -75.5t10.5 -71t3.5 -55t0.5 -37.5q0 -91 -17 -187q-23 -138 -79.5 -277t-137.5 -237q-26 -33 -57.5 -62.5t-85 -66.5t-128 -59.5t-157.5 -22.5q-86 0 -170 29q-96 37 -164 116.5t-88 178.5zM416 915q0 -62 26 -114q8 -18 21.5 -35t35.5 -36t57 -30.5t77 -11.5 q46 0 94 21q72 31 112 99t40 148q0 102 -57 174t-158 72q-51 0 -93 -18q-108 -49 -145 -195q-10 -48 -10 -74z" />
<glyph unicode=":" horiz-adv-x="598" d="M111 0l65 276h270l-63 -276h-272zM289 766l63 276h271l-64 -276h-270z" />
<glyph unicode=";" horiz-adv-x="598" d="M61 -287l29 127q28 0 49.5 10.5t33.5 23t23 38.5t15.5 41.5t11.5 46.5h-112l65 276h270l-63 -276q-27 -112 -42 -146q-34 -77 -112 -118q-53 -27 -114 -27q-18 0 -54 4zM289 766l63 276h271l-64 -276h-270z" />
<glyph unicode="&#x3c;" horiz-adv-x="1482" d="M274 532l62 252l1057 453l-66 -272l-784 -326l633 -340l-60 -250z" />
<glyph unicode="=" horiz-adv-x="1482" d="M174 305l51 215h1075l-49 -215h-1077zM270 719l52 217h1075l-49 -217h-1078z" />
<glyph unicode="&#x3e;" horiz-adv-x="1482" d="M219 35l66 272l784 326l-633 340l60 250l841 -484l-61 -252z" />
<glyph unicode="?" horiz-adv-x="1110" d="M236 1018q8 36 18 69t31.5 80t48 85.5t69 79t94 68.5t124 46t157.5 18q102 0 185.5 -24.5t136 -63.5t88.5 -89.5t50.5 -99.5t14.5 -97q0 -116 -75 -211q-37 -44 -140 -121l-98 -74q-12 -9 -41.5 -31t-38.5 -29t-26 -21.5t-26 -24.5t-17 -21q-29 -40 -58 -154h-227l24 109 q22 89 35 121q21 46 54.5 80.5t113.5 97.5l92 72q5 4 25 18.5t29 22.5q31 26 47.5 43.5t30.5 47t14 64.5q0 47 -25 82q-55 82 -182 82q-58 -1 -107 -20t-79 -48.5t-47.5 -55.5t-26.5 -50q-16 -42 -23 -108zM393 0l64 276h270l-63 -276h-271z" />
<glyph unicode="@" horiz-adv-x="1808" d="M156 444q0 205 78 392.5t209 323t313 216t381 80.5q268 0 426.5 -154t158.5 -415q0 -188 -72 -362t-191 -280t-247 -106q-77 0 -127 47q-33 33 -43 109l-4 -4l-4 -4q-121 -148 -272 -148q-121 0 -192.5 87t-71.5 235q0 155 64.5 295t171.5 223.5t227 83.5q75 0 127.5 -36 t89.5 -112l28 105h162l-78 -318q-69 -286 -69 -350q0 -32 12.5 -49.5t34.5 -17.5q37 0 84.5 41t91.5 110q63 98 98 217t35 234q0 198 -125.5 315t-339.5 117q-158 0 -308.5 -71.5t-262 -188.5t-179 -275.5t-67.5 -324.5q0 -263 170.5 -420.5t456.5 -157.5q249 0 495 152 q75 47 115 78q51 44 76 69l78 -104q-125 -110 -204.5 -162t-185.5 -96q-186 -74 -372 -74q-227 0 -401.5 87.5t-270.5 246.5t-96 366zM684 475q0 -82 38.5 -130t104.5 -48q93 0 179 109q44 57 75 145.5t31 161.5v10q0 85 -40 133.5t-109 48.5t-134 -61.5t-105 -161.5 t-40 -207z" />
<glyph unicode="A" horiz-adv-x="1323" d="M-53 0l829 1446h301l156 -1446h-272l-29 301h-529l-159 -301h-297zM528 528h385l-47 643z" />
<glyph unicode="B" horiz-adv-x="1366" d="M47 0l334 1446h461h20q62 0 95 -1t89.5 -7.5t93.5 -19t79 -38.5t73 -63q70 -81 70 -193q0 -34 -6.5 -71t-27 -85.5t-53 -88.5t-90.5 -75t-134 -50q52 -5 100 -33q75 -40 116.5 -118.5t41.5 -168.5q0 -70 -29 -147q-73 -183 -266 -248q-66 -22 -150.5 -30.5t-230.5 -8.5 h-586zM377 238h264h27h30.5t29 0.5t32.5 1t29.5 2t31.5 3.5t28.5 5t30 7t25.5 9q39 17 66.5 42.5t40 53t17.5 49t5 40.5q0 68 -39 120q-22 30 -51.5 48.5t-69.5 25.5t-65 8.5t-73 1.5h-17h-246zM522 870h207q106 0 156.5 5.5t91.5 25.5q115 56 115 174q0 64 -37 101 q-30 31 -80 39t-156 8h-215z" />
<glyph unicode="C" horiz-adv-x="1429" d="M156 578q0 36 2.5 76.5t14 112t30.5 139t57 148.5t88 148q210 275 570 275q90 0 167.5 -17.5t130.5 -45.5t96.5 -66t69 -74t43.5 -76q37 -83 45 -209l-264 -45q0 94 -28 162q-18 36 -48 63q-76 76 -212 76q-147 0 -254 -84q-105 -85 -166.5 -244t-61.5 -305 q0 -168 70 -268q28 -42 74 -74q82 -57 188 -57q153 0 264 100q80 75 133 201l238 -98q-76 -213 -246 -330t-401 -117q-175 0 -316 72q-284 145 -284 537z" />
<glyph unicode="D" horiz-adv-x="1492" d="M47 0l334 1446h276q222 0 324 -8t186 -39q88 -33 151.5 -91.5t99.5 -133.5t52.5 -156.5t16.5 -175.5q0 -129 -31 -248q-52 -189 -176 -337.5t-299 -209.5q-63 -22 -129.5 -33t-109 -12.5t-127.5 -1.5h-29h-539zM375 238h57q218 0 291 6q261 19 387 225q48 76 74 175 t26 194q0 53 -6 92q-31 175 -164 235q-60 27 -138 35t-234 8h-68z" />
<glyph unicode="E" horiz-adv-x="1280" d="M47 0l334 1446h983l-53 -236h-717l-80 -342h682l-53 -231h-682l-92 -404h823l-53 -233h-1092z" />
<glyph unicode="F" horiz-adv-x="1179" d="M47 0l334 1446h983l-55 -238h-711l-90 -385h666l-54 -229h-665l-138 -594h-270z" />
<glyph unicode="G" horiz-adv-x="1536" d="M154 561q0 92 16 172q9 50 24.5 102.5t48 133t91 164.5t135.5 153q218 191 504 191q108 0 209 -29q43 -12 79 -27t81.5 -46t80.5 -71.5t68 -106.5t53 -148l-268 -60q-18 90 -49 139q-76 119 -254 119q-64 0 -123.5 -18t-103 -47.5t-69 -52t-46.5 -46.5 q-86 -97 -138.5 -235.5t-52.5 -267.5q0 -82 25 -156q12 -35 33 -68.5t58.5 -71.5t99.5 -61.5t139 -23.5q86 0 151 24q187 64 240 307h-385l53 232h637l-176 -762h-240l33 98q-159 -129 -381 -129q-125 0 -225 39q-67 25 -122 64.5t-90.5 81t-62 92.5t-40 93.5t-21.5 90 t-10 75.5t-2 56z" />
<glyph unicode="H" horiz-adv-x="1449" d="M47 0l334 1446h272l-131 -567h629l131 567h272l-333 -1446h-273l150 647h-629l-150 -647h-272z" />
<glyph unicode="I" horiz-adv-x="555" d="M49 0l334 1446h272l-333 -1446h-273z" />
<glyph unicode="J" horiz-adv-x="811" d="M-49 0l57 244q78 -23 166 -23q77 0 118 21.5t66 60.5q16 24 31 70t23.5 81.5t29.5 125.5l201 866h270l-223 -969q-1 -6 -22 -92q-23 -93 -46.5 -155t-66.5 -117q-55 -69 -140 -102.5t-239 -33.5q-110 0 -225 23z" />
<glyph unicode="K" horiz-adv-x="1323" d="M47 0l334 1446h268l-153 -664l675 664h353l-629 -578l389 -868h-303l-289 692l-274 -246l-103 -446h-268z" />
<glyph unicode="L" horiz-adv-x="1067" d="M47 0l334 1446h272l-278 -1206h622l-55 -240h-895z" />
<glyph unicode="M" horiz-adv-x="1748" d="M47 0l334 1446h395l72 -1094l606 1094h397l-333 -1446h-263l287 1198l-647 -1198h-233l-89 1198l-262 -1198h-264z" />
<glyph unicode="N" horiz-adv-x="1449" d="M47 0l334 1446h246l440 -1067l227 1067h260l-333 -1446h-240l-444 1061l-226 -1061h-264z" />
<glyph unicode="O" horiz-adv-x="1536" d="M154 588q0 115 24 221q59 301 260 485q203 183 496 183q170 0 293 -62q40 -20 78.5 -49t81 -78t73.5 -108.5t51.5 -144.5t20.5 -181q0 -104 -27 -229q-36 -150 -106 -277q-27 -48 -57.5 -90.5t-88.5 -98.5t-124.5 -95t-166 -67t-212.5 -28q-160 0 -285 58 q-106 49 -178 140.5t-102.5 196.5t-30.5 224zM430 596q0 -233 148 -330q76 -53 194 -53q128 0 223 61q174 109 242 402q1 4 5 22.5t6.5 34t6 38t5.5 47.5t2 50q0 188 -105 289q-86 84 -231 84q-228 0 -355 -184q-63 -92 -102 -221t-39 -240z" />
<glyph unicode="P" horiz-adv-x="1236" d="M47 0l334 1446h395q140 0 200 -4t114 -21q91 -29 159 -104q92 -102 92 -266v-7q0 -36 -6.5 -78t-24 -103.5t-59.5 -125t-104 -112.5q-50 -41 -102 -65t-117.5 -34t-108.5 -12t-127 -2h-254l-119 -512h-272zM492 743h155q88 0 152 5q125 7 198 92q68 85 68 188 q0 107 -84 156q-24 15 -58.5 21.5t-63 7.5t-101.5 1h-158z" />
<glyph unicode="Q" horiz-adv-x="1579" d="M147 594q0 50 7.5 111.5t28.5 154.5t71 194t123 185q40 45 82.5 80t110 74.5t161 61.5t205.5 22q235 0 377 -113q29 -22 56 -50.5t58.5 -74.5t54.5 -98t38.5 -124.5t15.5 -150.5q0 -91 -23.5 -210t-58.5 -203q-20 -49 -55 -105q67 -70 121.5 -112.5t140.5 -92.5 l-141 -233q-105 65 -181 137q-69 66 -96 100q-2 -2 -20 -17t-37 -29t-41 -27q-174 -105 -400 -105q-211 0 -358 99q-123 83 -181.5 223.5t-58.5 302.5zM424 594q0 -150 68 -250q28 -41 77 -78q77 -55 195 -55q128 0 233 68q178 112 244 405q23 96 23 190q0 153 -78 256 q-18 23 -37.5 40t-50 36t-74 29t-96.5 10q-218 0 -344 -164q-72 -92 -116 -228.5t-44 -258.5z" />
<glyph unicode="R" horiz-adv-x="1323" d="M47 0l334 1446h432q136 0 201.5 -4.5t120.5 -22.5q120 -37 182.5 -132t62.5 -224q0 -36 -6 -75t-23 -96.5t-58 -114.5t-101 -101q-83 -59 -178 -74l190 -602h-282l-170 569h-303l-132 -569h-270zM498 782h250q58 0 88 2t76.5 10.5t80.5 31t60 59.5q47 64 47 151 q0 100 -78 152q-33 22 -80 28.5t-139 6.5h-203z" />
<glyph unicode="S" horiz-adv-x="1280" d="M66 383l256 96q3 -18 14 -55q25 -71 77.5 -118.5t116.5 -68t140 -20.5q64 0 114 16q45 14 77 39t48 53t22.5 52t6.5 47q0 42 -17.5 73.5t-58.5 56t-64 34.5t-76 28q-4 2 -7 3l-6 2q-162 54 -218 81q-151 72 -208 187q-35 72 -35 151q0 152 112 269q156 161 435 161 q217 0 366 -104q62 -45 99 -92q27 -33 59 -105l-234 -118q-12 32 -24 53q-85 135 -281 135q-115 0 -179 -49t-64 -113q0 -31 14 -63q19 -37 56.5 -58.5t123.5 -52.5q92 -34 133 -47q77 -27 137.5 -60t114.5 -80t83.5 -113.5t29.5 -147.5q0 -95 -41 -180t-113 -148 q-87 -76 -200 -114t-234 -38q-29 0 -63 3t-90 12.5t-116.5 33.5t-111.5 60q-151 108 -194 299z" />
<glyph unicode="T" horiz-adv-x="1110" d="M205 1210l55 236h1063l-55 -236h-375l-279 -1210h-274l278 1210h-413z" />
<glyph unicode="U" horiz-adv-x="1409" d="M141 379q0 85 39 250l191 817h270l-186 -815q-39 -173 -39 -215q0 -90 55 -140q71 -67 211 -67q96 0 174 39q27 14 50 32.5t38.5 34.5t30 44t22 44t17.5 51.5t13.5 49.5t12.5 55l205 887h273l-207 -897q-19 -77 -29.5 -116.5t-35 -106t-50.5 -107.5q-42 -64 -124 -128 t-206 -97q-94 -25 -204 -25q-294 0 -431 162q-90 101 -90 242v6z" />
<glyph unicode="V" horiz-adv-x="1193" d="M244 1446h268l49 -1163l584 1163h293l-766 -1446h-330z" />
<glyph unicode="W" horiz-adv-x="1705" d="M258 0v1446h264l-37 -1127l482 1127h268l-39 -1127l479 1127h273l-658 -1446h-313l31 1012l-435 -1012h-315z" />
<glyph unicode="X" horiz-adv-x="1323" d="M-86 0l690 782l-276 664h293l167 -442l367 442h334l-598 -674l334 -772h-303l-215 553l-467 -553h-326z" />
<glyph unicode="Y" horiz-adv-x="1236" d="M242 1446h280l197 -639l455 639h313l-670 -871l-133 -575h-274l133 575z" />
<glyph unicode="Z" horiz-adv-x="1193" d="M-57 0l55 240l973 974h-735l53 232h1095l-51 -217l-989 -993h813l-53 -236h-1161z" />
<glyph unicode="[" horiz-adv-x="583" d="M-18 -295l436 1890h420l-35 -149h-199l-366 -1593h198l-35 -148h-419z" />
<glyph unicode="\" horiz-adv-x="894" d="M250 1446h235l306 -1446h-236z" />
<glyph unicode="]" horiz-adv-x="583" d="M-139 -295l35 150h198l367 1593h-199l35 147h420l-436 -1890h-420z" />
<glyph unicode="^" horiz-adv-x="1482" d="M219 582l615 864h258l235 -864h-260l-141 626l-418 -626h-289z" />
<glyph unicode="_" horiz-adv-x="1024" d="M-199 -455l45 189h1063l-43 -189h-1065z" />
<glyph unicode="`" horiz-adv-x="555" d="M86 1446h305l78 -279h-203z" />
<glyph unicode="a" d="M59 270q0 85 37.5 159.5t106.5 119.5q62 40 131.5 55t167.5 23l192 16q80 7 137 27q15 68 15 84q0 108 -189 108q-139 0 -180 -82q-9 -18 -18 -63h-260q5 89 75 174q57 69 150 107t250 38q106 0 180 -18q24 -5 46 -12t58.5 -27t62 -45.5t45 -71.5t19.5 -102 q0 -72 -38 -234l-46 -198q-38 -165 -39 -230q0 -48 13 -98h-264q-2 32 -2.5 57t2.5 45q-27 -23 -48.5 -39t-61 -38t-91 -33.5t-111.5 -11.5q-78 0 -139.5 19.5t-98.5 49.5t-61 69.5t-33 77.5q-8 34 -8 67v7zM313 305q0 -26 15 -55q38 -76 141 -76q87 0 182 57q48 29 54 33 q26 22 43 43l40 178l-237 -28q-10 -1 -29.5 -3t-29.5 -3q-41 -5 -63.5 -10t-51.5 -22t-45 -46q-19 -32 -19 -68z" />
<glyph unicode="b" horiz-adv-x="1193" d="M39 0l334 1446h248l-115 -496q11 11 26 23q97 74 234 74q183 0 285 -119t102 -305q0 -95 -25 -191q-24 -96 -64.5 -173.5t-88.5 -127t-92 -79.5t-90 -48q-82 -31 -187 -31q-96 0 -163.5 31t-131.5 102l-24 -106h-248zM389 403q0 -65 27 -114q18 -33 44.5 -55t55 -31 t47 -12t35.5 -3q79 0 135 37q42 26 75 70t50.5 89.5t25.5 74t11 45.5q10 56 10 98q0 66 -16 109q-12 28 -30 52t-61 47.5t-100 23.5q-34 0 -68.5 -8.5t-82 -42.5t-78.5 -91q-15 -26 -30.5 -61t-32.5 -101.5t-17 -126.5z" />
<glyph unicode="c" horiz-adv-x="1093" d="M92 412q0 99 31.5 206.5t85.5 188.5q40 59 96 111q146 129 344 129q83 0 158 -23t139 -75.5t96 -129.5q16 -41 21 -84l-232 -78q0 1 -0.5 11t-1 15t-2 16.5t-4 19.5t-6 19.5t-9 21t-12.5 19.5t-16.5 19t-21.5 17q-43 29 -107 29q-75 0 -135.5 -39.5t-97 -102 t-55.5 -132.5t-19 -138q0 -145 82 -209q52 -39 123 -39q45 0 102 23q55 26 88 68t62 108l221 -92q-43 -109 -129 -187q-141 -131 -356 -131q-28 0 -58 3t-83 14.5t-106 41t-93 74.5q-41 45 -73 123t-32 183z" />
<glyph unicode="d" horiz-adv-x="1193" d="M92 389q0 59 10 117q3 20 6.5 38t13 55t21 69t32 74t45 78t60 73t76.5 65q131 89 277 89q165 0 258 -107q22 -25 37 -55l129 561h246l-334 -1446h-246l25 106q-22 -25 -41.5 -42.5t-55 -41t-84 -36.5t-106.5 -13q-176 0 -275 119q-94 115 -94 297zM344 410q0 -94 47 -154 q49 -66 146 -66q18 0 41.5 5t37.5 9l15 5q67 25 123 97t82 196q12 54 12 123q0 61 -14 102q-21 56 -68.5 84.5t-110.5 28.5q-49 -1 -92.5 -19.5t-71.5 -44t-51 -57.5t-33 -52.5t-16 -37.5q-47 -117 -47 -219z" />
<glyph unicode="e" horiz-adv-x="1110" d="M94 420q0 29 4 67t15.5 96.5t38 124t65.5 119.5q26 36 58 68.5t84.5 70t128 59.5t163.5 22q122 0 209 -41q36 -17 70 -45t69.5 -72.5t57.5 -113t22 -150.5q0 -77 -16 -148h-711q-6 -42 -6 -71q0 -43 10 -76q6 -24 18.5 -47t36 -49t64.5 -42t94 -16q55 0 101 17.5t79 49.5 t47.5 51t33.5 49q3 5 4 7l206 -127q-80 -123 -208 -186.5t-279 -63.5q-209 0 -334 120t-125 327zM395 657h436q1 10 1 20q0 43 -11 75q-5 18 -16 35.5t-29.5 36.5t-50.5 30.5t-72 11.5q-64 0 -119 -30.5t-92 -83.5q-29 -42 -47 -95z" />
<glyph unicode="f" horiz-adv-x="641" d="M76 0l196 842h-163l41 176h161l11 43q15 71 43 162q16 53 32.5 85.5t48.5 61.5q86 82 253 82h4h6q87 0 163 -12l-47 -205q-42 4 -75 4q-19 0 -35 -1q-43 -4 -72 -21q-27 -16 -41 -47.5t-31 -100.5l-12 -51h217l-39 -176h-217l-194 -842h-250z" />
<glyph unicode="g" horiz-adv-x="1193" d="M-8 -45q0 4 1 13.5t1 13.5h254q-2 -28 2 -52q12 -62 64 -91t120 -29q23 0 50 3.5t74 23t79 52.5q11 11 21 25.5t17.5 26t16 31t13 30t12 33.5t10 30.5t10 32.5t8.5 29q-19 -19 -36 -31q-42 -28 -109 -46.5t-123 -18.5q-90 0 -172 43q-35 19 -66.5 48t-63 74t-50.5 112 t-19 147q0 47 7.5 98t39.5 135.5t87 155.5q47 63 106.5 106.5t116.5 62.5t99 26.5t79 7.5q142 0 242 -78q22 -16 47 -47l22 96h250l-178 -778q-15 -64 -33 -129q-46 -179 -100.5 -269t-142.5 -143q-72 -45 -146.5 -61.5t-171.5 -16.5q-189 0 -297 68q-55 34 -84 73 q-57 74 -57 193zM360 461q0 -79 30 -129t69 -74q37 -22 98 -22q115 0 190.5 79t102.5 197q12 58 12 109q0 102 -45 159q-52 66 -147 66q-81 0 -144 -41q-75 -51 -120.5 -150t-45.5 -194z" />
<glyph unicode="h" d="M39 0l334 1446h250l-121 -524q25 22 41 32q118 82 252 82q67 0 130.5 -24.5t102.5 -71.5q57 -62 57 -174q0 -77 -38 -244l-121 -522h-250l112 487q35 146 35 205q0 64 -34.5 98.5t-98.5 34.5q-118 0 -196 -96q-30 -38 -49.5 -90.5t-43.5 -153.5l-112 -485h-250z" />
<glyph unicode="i" horiz-adv-x="512" d="M39 0l237 1018h246l-235 -1018h-248zM317 1198l56 248h248l-58 -248h-246z" />
<glyph unicode="j" horiz-adv-x="512" d="M-199 -346l52 217q60 -10 79 -10q52 0 74.5 41t46.5 145l223 971h246l-235 -1020q-33 -145 -58 -197q-51 -121 -178 -155q-54 -15 -98 -15q-71 0 -152 23zM317 1198l58 248h246l-58 -248h-246z" />
<glyph unicode="k" horiz-adv-x="1110" d="M39 0l334 1446h245l-186 -807l455 379h313l-442 -356l293 -662h-275l-211 508l-198 -160l-82 -348h-246z" />
<glyph unicode="l" horiz-adv-x="512" d="M39 0l334 1446h248l-334 -1446h-248z" />
<glyph unicode="m" horiz-adv-x="1748" d="M39 0l237 1018h244l-24 -109q13 18 39 39q106 88 243 88q134 0 207 -69q34 -32 57 -86q25 27 64 57q131 98 289 98q123 0 208 -71.5t85 -192.5q0 -74 -39 -237l-123 -535h-248l119 512q33 142 33 184q0 33 -11 57.5t-26 37t-35 20.5t-34.5 10t-27.5 2q-44 0 -99 -25.5 t-99 -86.5q-31 -44 -49.5 -98t-47.5 -177l-102 -436h-246l117 500q33 145 33 188q0 40 -13 69t-34 42t-40 18.5t-38 5.5q-68 0 -125 -41q-30 -20 -54 -47.5t-38 -51t-28 -64t-19.5 -61.5t-16.5 -69l-112 -489h-246z" />
<glyph unicode="n" d="M39 0l237 1018h232l-27 -111q34 28 35 29q126 100 283 100q26 0 51.5 -3.5t60.5 -13t64 -29.5t54.5 -49.5t40.5 -77.5t15 -109q0 -84 -30 -209l-125 -545h-250l117 506q28 119 28 178q0 43 -14 76q-28 65 -119 65q-71 0 -141 -49q-64 -47 -96 -118t-68 -228l-100 -430 h-248z" />
<glyph unicode="o" d="M88 412q0 139 61 280t164 228q65 55 172 94q98 33 195 33q88 0 176 -31q69 -25 119.5 -67.5t76 -85t41 -94t18.5 -83.5t3 -65q0 -87 -20 -164q-47 -210 -179 -334q-160 -150 -391 -150q-175 0 -288 93q-71 61 -109.5 154.5t-38.5 191.5zM336 420q0 -102 54 -169t155 -67 q68 0 125 31q48 26 85.5 68.5t57.5 89t29 73.5t14 52q12 69 12 116q0 58 -14 99q-17 49 -62.5 89t-129.5 40q-134 0 -213 -99q-50 -59 -81.5 -149.5t-31.5 -173.5z" />
<glyph unicode="p" horiz-adv-x="1193" d="M-43 -369l322 1387h241l-26 -111q19 29 38 45q41 39 97 62t90 28t63 5q75 0 152 -33q61 -25 105.5 -70.5t65.5 -89t33.5 -97.5t14.5 -82t2 -57q0 -41 -6.5 -91.5t-26 -128t-66 -157.5t-114.5 -141q-138 -127 -326 -127q-163 0 -251 86q-24 22 -50 64l-112 -492h-246z M389 424q0 -65 20.5 -112t47.5 -72q27 -24 68 -38t79 -14q95 0 174.5 75t112.5 235q14 63 14 114q0 62 -16 103q-16 48 -62.5 87.5t-130.5 39.5q-50 0 -93.5 -17t-70.5 -39t-49.5 -53.5t-31.5 -51t-17 -40.5q-7 -16 -16 -45t-19 -80t-10 -92z" />
<glyph unicode="q" d="M92 377q0 43 6 84q4 32 10 67t26 98.5t47.5 118.5t78.5 115.5t115 102.5q128 84 276 84q158 0 246 -97q15 -15 35 -49l26 117h244l-319 -1387h-244l102 447q-121 -105 -282 -105q-164 0 -264 105q-45 47 -70.5 117.5t-29 108.5t-3.5 73zM342 403q0 -51 10 -86 q6 -21 17 -40t31.5 -39.5t54.5 -32.5t77 -12q67 0 123 29t94 78t63.5 105.5t39.5 120.5q10 60 10 92q0 60 -16 97q-38 116 -178 116q-77 0 -136 -36q-91 -55 -140.5 -166t-49.5 -226z" />
<glyph unicode="r" horiz-adv-x="724" d="M39 0l237 1018h246l-53 -174q61 76 124 120t110 56t102 12q6 0 19.5 -1t19.5 -1l-60 -254q-27 3 -53 3q-129 0 -211 -68q-39 -33 -66.5 -80.5t-38.5 -84.5t-26 -100l-102 -446h-248z" />
<glyph unicode="s" horiz-adv-x="1024" d="M18 238l211 129q12 -43 35 -76q31 -46 93 -80.5t157 -34.5q68 0 111 21q40 18 57.5 45.5t17.5 52.5q0 26 -14 49q-13 20 -40 35.5t-40.5 20t-50.5 16.5q-17 6 -51.5 16.5t-55 17.5t-49 17.5t-51.5 21.5q-174 80 -174 234q0 43 19.5 101t70.5 106q46 46 129 81.5t197 35.5 q82 0 172 -23q27 -7 54.5 -18.5t67 -34t78 -61.5t66.5 -89l-192 -114q-19 48 -53 80.5t-72 46t-64.5 18t-50.5 4.5q-36 0 -71.5 -8t-67 -33.5t-31.5 -64.5q0 -53 77 -88q27 -12 138 -46q167 -50 238 -124q69 -72 69 -181q0 -100 -61 -182q-115 -156 -385 -156 q-31 0 -56.5 1.5t-76 8.5t-94.5 24.5t-93.5 45t-92 75.5t-71.5 110z" />
<glyph unicode="t" horiz-adv-x="641" d="M131 842l41 176h150l81 356h246l-82 -356h189l-41 -176h-189l-102 -441q-21 -88 -21 -118t13 -47q23 -37 104 -37q20 0 66 4l-47 -203q-75 -12 -138 -12q-18 0 -30 0.5t-41 4t-50 10.5t-48 22.5t-44 36.5t-29 55t-12 76q0 20 2 41.5t6.5 48.5t7.5 42t10 47.5t9 39.5 l101 430h-152z" />
<glyph unicode="u" d="M115 248q0 68 39 244l122 526h246l-114 -498q-35 -149 -35 -201q0 -20 6 -38q8 -32 42 -60t93 -28q119 0 195 106q10 14 19 28.5t17 32.5l14 31.5t13 35.5l10.5 33t10 36t8.5 33t8.5 35t7.5 32l98 422h246l-235 -1018h-228l25 109q-133 -127 -301 -127 q-132 0 -219.5 68.5t-87.5 197.5z" />
<glyph unicode="v" horiz-adv-x="937" d="M129 1018h244l20 -797l410 797h254l-559 -1018h-289z" />
<glyph unicode="w" horiz-adv-x="1449" d="M152 1018h241l-10 -748l346 748h240v-748l348 748h260l-524 -1018h-269v692l-333 -692h-261z" />
<glyph unicode="x" horiz-adv-x="1067" d="M-55 0l479 543l-229 475h266l127 -320l243 320h299l-430 -494l256 -524h-272l-147 367l-287 -367h-305z" />
<glyph unicode="y" horiz-adv-x="937" d="M-94 -350l51 219q40 -10 102 -10q43 0 58 6q59 19 94 102l-94 1051h250l26 -793l404 793h260l-580 -1051q-65 -116 -67 -119q-44 -73 -81.5 -116t-98 -72t-140.5 -29q-58 0 -184 19z" />
<glyph unicode="z" horiz-adv-x="980" d="M-18 0l36 164l656 653h-504l45 201h844l-41 -176l-645 -633h557l-49 -209h-899z" />
<glyph unicode="{" horiz-adv-x="614" d="M61 575l35 154q76 2 121 23q39 19 61 60t44 134l71 316q30 126 56 184q19 47 65 90q45 40 92.5 54t145.5 14h106l-33 -148l-34 2q-66 3 -105 -33q-18 -18 -33 -45q-16 -37 -41 -145l-73 -313q-32 -139 -81.5 -199t-150.5 -80q117 -41 117 -164q0 -54 -16 -129l-66 -282 q-23 -99 -23 -134q0 -88 107 -88h27l-33 -147h-107q-106 0 -163.5 54.5t-57.5 154.5q0 43 27 162l67 288q17 83 17 105q0 54 -32 79.5t-110 32.5z" />
<glyph unicode="|" horiz-adv-x="505" d="M-18 -297l436 1890h221l-434 -1890h-223z" />
<glyph unicode="}" horiz-adv-x="614" d="M-141 -303l32 147h35q71 0 105 31q19 19 32 45q15 38 41 146l74 315q32 138 82 197t150 79q-117 41 -117 166q0 52 16 127l66 283q24 106 24 133q0 90 -106 90h-29l33 146h106q106 0 164 -54.5t58 -154.5q0 -53 -25 -160l-70 -291q-14 -65 -14 -102q0 -55 31.5 -80.5 t109.5 -34.5l-36 -152q-78 -2 -121 -22q-38 -19 -60.5 -60.5t-44.5 -134.5l-71 -317q-29 -120 -56 -184q-21 -49 -63 -91q-44 -41 -91.5 -54t-148.5 -13h-106z" />
<glyph unicode="~" horiz-adv-x="1482" d="M190 655q43 52 66.5 76t58.5 51q100 78 222 78q42 0 84 -10q65 -20 145 -59l123 -60q68 -32 96 -41.5t59 -9.5q74 0 140 47q58 38 129 115l90 -207q-92 -95 -166 -141q-103 -62 -193 -62q-48 0 -99.5 17.5t-141.5 62.5l-70 35q-119 61 -205 61q-37 0 -67 -12 q-38 -13 -69.5 -38t-88.5 -87l-22 -25z" />
<glyph unicode="&#xa1;" horiz-adv-x="598" d="M29 0l141 608l172 434h129l-37 -421l-143 -621h-262zM299 1169l63 277h273l-64 -277h-272z" />
<glyph unicode="&#xa2;" horiz-adv-x="1067" d="M92 410q-1 64 11 132.5t40.5 142t70.5 137t108 117.5t147 83q28 11 58 18t48.5 9t41 3.5t28.5 2.5l41 174h127l-43 -182q122 -24 207.5 -105.5t97.5 -198.5l-231 -75l-2 12q-23 147 -119 162l-150 -652q34 0 60 9q19 6 37 15.5t32.5 21t27 23t23 26.5t18 25.5t14.5 25 t10.5 21t8.5 18.5l5 12l223 -94q-141 -318 -491 -318h-17l-49 -208h-127l51 225q-2 1 -20 7t-35.5 12.5t-42.5 19t-45 26.5q-164 117 -164 353zM344 434q-4 -168 107 -223l147 633q-31 -4 -59 -19q-81 -42 -137.5 -149t-57.5 -242z" />
<glyph unicode="&#xa3;" horiz-adv-x="1280" d="M49 209q0 48 21 104q16 40 41 69.5t50 45t54 25t49 12t39 2.5q84 0 158 -39q17 -9 43 -29q20 45 20 93q0 18 -3 35t-5.5 26t-10.5 30.5t-11 30.5h-279l41 179l184 2l-24 41q-4 9 -12.5 32t-18.5 69t-10 85q0 92 43 176q27 52 68 91.5t88 62t89 37t88 20t67.5 7t43.5 1.5 q187 0 305 -88q140 -109 140 -328q0 -14 -9 -86h-231q23 161 -43 242q-22 27 -60 43t-59 18.5t-39 2.5q-53 0 -98 -19q-62 -28 -97.5 -82t-35.5 -121q0 -29 8 -69q7 -26 27 -72.5t26 -64.5h271l-41 -179l-197 -2q21 -60 21 -125q0 -38 -12.5 -97.5t-43.5 -115.5 q6 -4 36.5 -24t42.5 -26.5t37 -14.5t48 -8q58 0 96 65q12 21 24 55t25.5 79.5t16.5 56.5h246q-5 -23 -17.5 -66t-13.5 -47q-55 -169 -125 -254q-91 -110 -229 -110q-25 0 -49.5 3t-47 9.5t-41 13t-39 17.5t-33 17.5t-30 19.5t-24 17.5t-20.5 16.5t-15 12q-20 -18 -28 -25.5 t-41 -32t-59.5 -37t-69.5 -24.5t-85 -12q-54 0 -109 21q-65 28 -103 85.5t-38 127.5zM236 219q0 -26 21 -41.5t48 -15.5q17 0 35 6q52 22 84 68l-21 14q-61 37 -102 37l-27 -6q-12 -5 -25 -21.5t-13 -40.5z" />
<glyph unicode="&#xa4;" horiz-adv-x="1411" d="M106 260l177 150q-64 122 -64 235q0 221 139 379l-137 164l178 153l138 -161q136 75 294 75q93 0 164.5 -23t153.5 -81l176 149l141 -170l-174 -147q60 -114 60 -221q0 -218 -140 -395l140 -166l-181 -154l-139 166q-78 -41 -145.5 -58.5t-149.5 -17.5q-95 0 -161.5 22.5 t-151.5 82.5l-178 -150zM467 662q0 -127 81 -211t204 -84q149 0 251.5 105t102.5 259q0 131 -81 212t-212 81q-148 0 -247 -103.5t-99 -258.5z" />
<glyph unicode="&#xa5;" horiz-adv-x="1193" d="M37 391l39 170h385l-49 137h-303l38 170h207l-180 525h268l189 -617l440 617h299l-401 -525h196l-41 -170h-286l-107 -137h363l-39 -170h-367l-90 -391h-262l90 391h-389z" />
<glyph unicode="&#xa6;" horiz-adv-x="505" d="M-12 -293l190 823h223l-190 -823h-223zM233 772l191 823h223l-190 -823h-224z" />
<glyph unicode="&#xa7;" horiz-adv-x="1236" d="M72 -43l153 190q57 -77 150.5 -119t195.5 -42q36 0 69 4t71 15.5t61 37.5t23 63q0 35 -37 63t-96 49t-130 43.5t-142 53.5t-130 70t-96 102.5t-37 143.5q0 126 69.5 214t192.5 109q-74 59 -74 168q0 102 68 187q132 168 408 168q113 0 227 -37t196 -105l-143 -170 q-41 52 -128 81.5t-163 29.5q-30 0 -63.5 -5.5t-68.5 -17.5t-58 -36.5t-23 -57.5q0 -17 8.5 -32t19 -24.5t30.5 -19t32 -14t35 -11.5t29 -9l160 -56q40 -14 59 -20.5t54.5 -21t53.5 -24.5t46.5 -27t43.5 -33t33.5 -39t27.5 -47.5t15.5 -56t6.5 -67.5q0 -115 -76 -208.5 t-189 -116.5q95 -85 95 -195q0 -85 -43 -155q-63 -109 -187 -160t-268 -51q-135 0 -263.5 47.5t-217.5 138.5zM360 690q0 -28 13 -52t28 -38.5t45.5 -30t47 -21.5t50.5 -18q2 -1 3.5 -1.5t3.5 -1t4 -1.5l154 -53q83 -26 104 -43q69 7 120.5 47.5t51.5 106.5q0 18 -3.5 33.5 t-13.5 29t-16 22.5t-25 20.5t-24.5 16t-30.5 14.5t-28 11t-31 11q-11 4 -16 6t-43 14t-63.5 20.5t-62 21.5t-63.5 25.5t-43 22.5q-38 -12 -61.5 -22.5t-49.5 -29t-38.5 -46t-12.5 -64.5z" />
<glyph unicode="&#xa8;" horiz-adv-x="555" d="M-119 1165l60 254h258l-58 -254h-260zM358 1165l58 254h258l-58 -254h-258z" />
<glyph unicode="&#xa9;" horiz-adv-x="1720" d="M207 725q0 200 97 367.5t264.5 264.5t367.5 97q196 0 363.5 -96t265.5 -261t98 -358q0 -157 -56 -295t-152.5 -236t-231.5 -155t-289 -57q-200 0 -367 96.5t-263.5 264t-96.5 368.5zM289 723q0 -135 50.5 -256t136.5 -208t205.5 -138t252.5 -51q130 0 249.5 51.5 t206.5 138t139 205.5t52 248q0 140 -49.5 263.5t-135 211.5t-206 139t-256.5 51q-175 0 -323.5 -87.5t-235 -238.5t-86.5 -329zM506 676q0 229 136 382.5t337 153.5q117 0 199.5 -47.5t152.5 -156.5l-147 -119q-49 78 -97.5 109.5t-119.5 31.5q-106 0 -178 -100t-72 -246 q0 -106 55 -169.5t146 -63.5q58 0 99.5 21t98.5 79l111 -143q-87 -82 -157.5 -114t-168.5 -32q-170 0 -282.5 118t-112.5 296z" />
<glyph unicode="&#xaa;" horiz-adv-x="768" d="M207 963q0 61 33 114q23 37 54 61t70 35.5t64.5 15.5t67.5 7l122 10q33 3 84 15q0 1 2 8.5t4 19t3 19.5q3 67 -113 67q-65 0 -91.5 -25t-31.5 -69h-180q9 74 53 125q77 89 252 92q36 0 68 -3t72 -14.5t68.5 -30.5t48.5 -54t20 -82q0 -44 -25 -152l-31 -125 q-24 -108 -24 -145q0 -25 10 -70h-182q-2 12 -2 35v23q-31 -25 -51 -37.5t-58.5 -24t-85.5 -10.5q-62 1 -107.5 19.5t-69 48.5t-34 61.5t-10.5 65.5zM383 983q0 -31 23 -54.5t71 -23.5q41 0 84 21.5t68 40.5l8 8t8 8.5t4 3.5l23 105l-144 -17q-2 0 -26 -2.5t-33.5 -4.5 t-30 -8.5t-29.5 -15t-17.5 -24.5t-8.5 -37z" />
<glyph unicode="&#xab;" horiz-adv-x="894" d="M86 489l53 240l396 254l-66 -287l-197 -102l146 -117l-58 -248zM508 489l53 240l395 254l-65 -287l-197 -102l146 -117l-58 -248z" />
<glyph unicode="&#xac;" horiz-adv-x="1482" d="M154 530l51 222h1159l-166 -719h-266l115 497h-893z" />
<glyph unicode="&#xad;" horiz-adv-x="761" d="M113 508l53 231h592l-53 -231h-592z" />
<glyph unicode="&#xae;" horiz-adv-x="1720" d="M207 725q0 200 97 367.5t264.5 264.5t367.5 97q196 0 363.5 -96t265.5 -261t98 -358q0 -157 -56 -295t-152.5 -236t-231.5 -155t-289 -57q-200 0 -367 96.5t-263.5 264t-96.5 368.5zM289 723q0 -135 50.5 -256t136.5 -208t205.5 -138t252.5 -51q130 0 249.5 51.5 t206.5 138t139 205.5t52 248q0 140 -49.5 263.5t-135 211.5t-206 139t-256.5 51q-175 0 -323.5 -87.5t-235 -238.5t-86.5 -329zM551 285l192 905h211q107 0 156.5 -7t93.5 -28q56 -26 87.5 -82t31.5 -129q0 -218 -211 -291l96 -368h-202l-74 342h-119l-74 -342h-188z M846 786h92q102 0 147 32t45 104q0 27 -9 46t-21 29t-34 15.5t-39.5 6.5t-45.5 1h-86z" />
<glyph unicode="&#xaf;" horiz-adv-x="555" d="M-61 1167l38 170h639l-38 -170h-639z" />
<glyph unicode="&#xb0;" horiz-adv-x="724" d="M106 1192q0 147 103 250.5t250 103.5q148 0 250 -103t102 -251q0 -145 -103.5 -248.5t-248.5 -103.5t-249 103.5t-104 248.5zM311 1192q0 -60 44 -104t104 -44t103.5 44t43.5 104q0 61 -43 103t-104 42q-62 0 -105 -42t-43 -103z" />
<glyph unicode="&#xb1;" horiz-adv-x="1482" d="M106 0l52 217h1097l-51 -217h-1098zM279 750l49 215h411l97 409h264l-94 -409h417l-49 -215h-418l-94 -418h-266l94 418h-411z" />
<glyph unicode="&#xb2;" horiz-adv-x="768" d="M102 487l33 144q10 6 70 50t148 113t143 121q65 65 88 95q59 76 59 133q0 45 -30 76.5t-76 31.5q-60 0 -107 -50t-57 -144l-172 26q11 82 42 144t68.5 95.5t85 54t83.5 26.5t71 6q114 0 196 -66.5t82 -185.5q0 -62 -24.5 -119t-83.5 -120.5t-132 -124t-194 -150.5h359 l-37 -156h-615z" />
<glyph unicode="&#xb3;" horiz-adv-x="768" d="M102 770l183 18q0 -3 -1 -8t-1 -8q0 -64 41 -105.5t106 -41.5q63 0 111.5 41t48.5 108q0 121 -154 121q-29 0 -39 -2l35 149q1 0 11.5 -1t23.5 -2t22 -1q25 0 50.5 5.5t52 17.5t43 37t16.5 59q0 39 -26.5 70.5t-85.5 32.5q-24 1 -50.5 -6t-58.5 -39t-43 -85l-172 39 q0 1 4 12t8.5 24t12.5 30.5t16 30.5q92 143 293 143q71 0 127 -21.5t88 -56t48.5 -73.5t16.5 -78q0 -57 -30 -109.5t-90 -87.5q-25 -12 -70 -27q49 -15 68 -30q63 -51 63 -150q0 -36 -10.5 -75t-36.5 -80.5t-63.5 -74t-98 -53.5t-133.5 -22q-56 0 -102.5 10.5t-78 27.5 t-56.5 43.5t-40 51.5t-25.5 57.5t-15 56t-8.5 52.5z" />
<glyph unicode="&#xb4;" horiz-adv-x="555" d="M35 1167l147 279h338l-266 -279h-219z" />
<glyph unicode="&#xb5;" horiz-adv-x="1218" d="M-16 -442l327 1460h242l-115 -500q-35 -143 -35 -205q0 -72 39.5 -112.5t110.5 -40.5q121 0 199 131q23 37 41 82q22 58 51 186l106 459h246l-170 -750q-6 -21 -6 -47q0 -51 51 -51q23 0 62 14l-41 -186q-80 -18 -138 -18q-80 0 -131 45q-21 18 -29 39.5t-12 76.5 q-60 -89 -119 -125t-147 -36q-133 0 -170 114l-119 -536h-243z" />
<glyph unicode="&#xb6;" horiz-adv-x="1308" d="M289 997q0 109 48 203.5t136 155.5q71 50 158 70t235 20h477l-32 -143h-72l-379 -1645h-151l381 1645h-265l-379 -1645h-151l225 979q-231 96 -231 360z" />
<glyph unicode="&#xb7;" horiz-adv-x="409" d="M127 467l57 254h207l-55 -254h-209z" />
<glyph unicode="&#xb8;" horiz-adv-x="555" d="M45 -432l18 82q74 -23 115 -23q57 0 90 27l4 4q4 3 7 6t6.5 7.5t5.5 10t2 11.5q0 47 -96 47q-33 0 -70 -6l12 57l289 293h82l-178 -236q45 0 55 -2q51 -10 86 -43.5t35 -83.5q0 -76 -90 -131q-83 -49 -187 -49q-93 0 -186 29z" />
<glyph unicode="&#xb9;" horiz-adv-x="768" d="M274 1112l27 117q149 0 225 92q35 43 39 72h158l-209 -906h-174l117 508q14 57 14 82q0 23 -14 29t-49 6h-134z" />
<glyph unicode="&#xba;" horiz-adv-x="768" d="M221 1053q0 17 2.5 42t17 78.5t39 99.5t75 94t118.5 73q75 26 135 24q128 -2 205.5 -76.5t77.5 -201.5q0 -54 -12 -107q-18 -73 -41 -118q-41 -80 -123 -138.5t-203 -58.5q-60 0 -108 15t-78.5 41t-52.5 56.5t-32.5 65t-15 61t-4.5 50.5zM393 1059q0 -63 32 -105.5 t95 -42.5q62 0 116 46.5t77 150.5q10 42 10 76q0 61 -33 99t-96 38q-60 0 -105 -35q-46 -36 -71 -105t-25 -122z" />
<glyph unicode="&#xbb;" horiz-adv-x="894" d="M23 229l67 287l197 102l-146 117l58 248l276 -262l-55 -238zM446 229l66 287l197 102l-146 117l58 248l274 -262l-53 -238z" />
<glyph unicode="&#xbc;" horiz-adv-x="1792" d="M274 1112l27 117q149 0 225 92q35 43 39 72h158l-209 -906h-174l117 508q14 57 14 82q0 23 -14 29t-49 6h-134zM436 47l953 1370l102 -69l-952 -1373zM1042 211l39 162l463 532h205l-125 -547h117l-35 -147h-117l-49 -211h-172l49 211h-375zM1245 358h205l88 340z" />
<glyph unicode="&#xbd;" horiz-adv-x="1792" d="M274 1112l27 117q149 0 225 92q35 43 39 72h158l-209 -906h-174l117 508q14 57 14 82q0 23 -14 29t-49 6h-134zM369 47l950 1370l102 -69l-950 -1373zM1014 0l33 141q350 250 448 379q57 74 57 135q0 45 -29 76t-75 31q-60 0 -107 -50t-57 -145l-172 27q11 82 42 144.5 t68.5 96.5t85 54.5t83.5 26.5t71 6q113 0 196 -67t83 -187q0 -92 -55 -176q-75 -111 -379 -336h358l-37 -156h-614z" />
<glyph unicode="&#xbe;" horiz-adv-x="1792" d="M102 770l183 18q0 -3 -1 -8t-1 -8q0 -64 41 -105.5t106 -41.5q63 0 111.5 41t48.5 108q0 121 -154 121q-29 0 -39 -2l35 149q1 0 11.5 -1t23.5 -2t22 -1q25 0 50.5 5.5t52 17.5t43 37t16.5 59q0 39 -26.5 70.5t-85.5 32.5q-24 1 -50.5 -6t-58.5 -39t-43 -85l-172 39 q0 1 4 12t8.5 24t12.5 30.5t16 30.5q92 143 293 143q71 0 127 -21.5t88 -56t48.5 -73.5t16.5 -78q0 -57 -30 -109.5t-90 -87.5q-25 -12 -70 -27q49 -15 68 -30q63 -51 63 -150q0 -36 -10.5 -75t-36.5 -80.5t-63.5 -74t-98 -53.5t-133.5 -22q-56 0 -102.5 10.5t-78 27.5 t-56.5 43.5t-40 51.5t-25.5 57.5t-15 56t-8.5 52.5zM498 47l950 1370l102 -69l-950 -1373zM1042 211l39 162l463 532h205l-125 -547h117l-35 -147h-117l-49 -211h-172l49 211h-375zM1245 358h205l88 340z" />
<glyph unicode="&#xbf;" horiz-adv-x="1110" d="M-2 358q0 102 61 187q23 35 52.5 61t103.5 82l98 74q23 16 76 59q48 35 72 66q32 41 59 155h228l-25 -106q-12 -61 -33 -115q-19 -47 -53 -83t-117 -101l-94 -74q-29 -22 -51 -41q-48 -37 -71 -70t-23 -83q0 -45 28 -84q58 -80 178 -80q60 0 108.5 18.5t79 49t47.5 56 t28 52.5q13 38 20 104l248 -55q-32 -139 -96 -233q-146 -215 -449 -215q-269 0 -395 161q-80 98 -80 215zM524 1169l66 277h270l-63 -277h-273z" />
<glyph unicode="&#xc0;" horiz-adv-x="1323" d="M-53 0l829 1446h301l156 -1446h-272l-29 301h-529l-159 -301h-297zM528 528h385l-47 643zM694 1784h305l68 -244h-205z" />
<glyph unicode="&#xc1;" horiz-adv-x="1323" d="M-53 0l829 1446h301l156 -1446h-272l-29 301h-529l-159 -301h-297zM528 528h385l-47 643zM795 1534l135 250h332l-261 -250h-206z" />
<glyph unicode="&#xc2;" horiz-adv-x="1323" d="M-53 0l829 1446h301l156 -1446h-272l-29 301h-529l-159 -301h-297zM528 528h385l-47 643zM586 1540l260 250h270l148 -250h-232l-63 133l-121 -133h-262z" />
<glyph unicode="&#xc3;" horiz-adv-x="1323" d="M-53 0l829 1446h301l156 -1446h-272l-29 301h-529l-159 -301h-297zM528 528h385l-47 643zM571 1532q19 64 33 92q22 49 53 84t64.5 51.5t61.5 23.5t55 7q16 0 33 -2.5t31 -5.5t29.5 -8t24.5 -8.5t19.5 -8t11.5 -4.5q91 -33 119 -33q36 0 58 17.5t38 52.5h152 q-15 -55 -39 -98q-84 -160 -236 -160q-11 0 -21 0.5t-17 1t-18 3.5t-16.5 4t-20 6.5t-21 7.5t-27.5 10t-31 12q-68 22 -94 22q-63 0 -88 -67h-154z" />
<glyph unicode="&#xc4;" horiz-adv-x="1323" d="M-53 0l829 1446h301l156 -1446h-272l-29 301h-529l-159 -301h-297zM528 528h385l-47 643zM569 1538l60 252h258l-60 -252h-258zM1044 1538l60 252h258l-57 -252h-261z" />
<glyph unicode="&#xc5;" horiz-adv-x="1323" d="M-53 0l829 1446h301l156 -1446h-272l-29 301h-529l-159 -301h-297zM528 528h385l-47 643zM788 1706q0 77 55 130.5t134 53.5q84 0 135 -57q66 -71 47 -168q0 -6 -7.5 -27.5t-18.5 -38.5q-25 -39 -67.5 -62.5t-88.5 -23.5q-78 0 -133.5 57.5t-55.5 135.5zM885 1702 q1 -38 29 -65t63 -25q33 0 56.5 21.5t29.5 54.5q9 40 -17.5 73t-68.5 33q-27 0 -51 -14q-41 -28 -41 -78z" />
<glyph unicode="&#xc6;" horiz-adv-x="2004" d="M-43 0l1087 1446h1088l-53 -238h-647l-80 -344h618l-55 -239h-619l-90 -387h756l-55 -238h-1014l76 334h-437l-241 -334h-334zM705 571h319l160 695z" />
<glyph unicode="&#xc7;" horiz-adv-x="1429" d="M156 586q1 110 22 216.5t61.5 207.5t106 186.5t149 149.5t196.5 98.5t243 32.5q191 -3 315.5 -81.5t180.5 -205.5q9 -20 16 -43t10.5 -41t6.5 -39.5t4 -33t2 -27.5t1 -17l-264 -45q0 108 -35 172q-68 126 -251 129q-160 0 -271 -96q-80 -70 -146.5 -218.5t-66.5 -318.5 q0 -109 29 -189t78.5 -124t105.5 -64t119 -20q53 0 100.5 12t82 29t67 46t52 52t41 58t31 53.5t23.5 48.5l238 -96q-31 -85 -77 -154.5t-94.5 -115t-105 -80t-104.5 -53t-97.5 -29.5t-79.5 -14t-54 -3l-93 -121h21q58 0 106.5 -32.5t48.5 -94.5q0 -71 -78.5 -126t-195.5 -56 q-31 -1 -63 3t-49 7.5t-45 11t-29 7.5l18 82q11 -5 46.5 -14t64.5 -9q48 0 81.5 17t34.5 45q4 51 -92 51q-12 0 -29.5 -1.5t-30.5 -2.5l-13 -2l14 57l178 182q-2 0 -27 3t-39.5 5t-43 9t-54.5 16q-370 126 -366 580z" />
<glyph unicode="&#xc8;" horiz-adv-x="1280" d="M47 0l334 1446h983l-53 -236h-717l-80 -342h682l-53 -231h-682l-92 -404h823l-53 -233h-1092zM674 1784h305l68 -244h-205z" />
<glyph unicode="&#xc9;" horiz-adv-x="1280" d="M47 0l334 1446h983l-53 -236h-717l-80 -342h682l-53 -231h-682l-92 -404h823l-53 -233h-1092zM774 1534l133 250h332l-258 -250h-207z" />
<glyph unicode="&#xca;" horiz-adv-x="1280" d="M47 0l334 1446h983l-53 -236h-717l-80 -342h682l-53 -231h-682l-92 -404h823l-53 -233h-1092zM563 1540l262 250h271l145 -250h-229l-64 133l-123 -133h-262z" />
<glyph unicode="&#xcb;" horiz-adv-x="1280" d="M47 0l334 1446h983l-53 -236h-717l-80 -342h682l-53 -231h-682l-92 -404h823l-53 -233h-1092zM535 1538l59 252h258l-59 -252h-258zM1010 1538l59 252h258l-57 -252h-260z" />
<glyph unicode="&#xcc;" horiz-adv-x="555" d="M49 0l334 1446h272l-333 -1446h-273zM311 1784h305l68 -244h-207z" />
<glyph unicode="&#xcd;" horiz-adv-x="555" d="M49 0l334 1446h272l-333 -1446h-273zM412 1534l133 250h332l-259 -250h-206z" />
<glyph unicode="&#xce;" horiz-adv-x="555" d="M49 0l334 1446h272l-333 -1446h-273zM201 1540l262 250h270l146 -250h-230l-63 133l-123 -133h-262z" />
<glyph unicode="&#xcf;" horiz-adv-x="555" d="M49 0l334 1446h272l-333 -1446h-273zM172 1538l57 252h260l-59 -252h-258zM647 1538l60 252h258l-60 -252h-258z" />
<glyph unicode="&#xd0;" horiz-adv-x="1492" d="M0 692l43 191h207l131 563h276h58q48 1 96.5 0t95 -2.5t92.5 -7.5t88.5 -14.5t83.5 -24.5t77 -37t70 -52t62 -69q107 -150 107 -399q0 -112 -27 -228q-43 -176 -157 -329t-293 -226q-29 -12 -62 -21.5t-62.5 -15.5t-63 -10t-58 -6t-53.5 -3t-44 -1h-35h-20h-565l160 692 h-207zM375 238h55q145 0 229 4q96 3 147 14q248 54 347 299q57 143 57 287q0 54 -8 99.5t-22.5 80t-34.5 62.5t-45.5 46.5t-54.5 33t-61.5 22t-67 13.5t-70 7t-71.5 2t-71 0h-36h-68l-76 -325h324l-43 -191h-324z" />
<glyph unicode="&#xd1;" horiz-adv-x="1449" d="M47 0l334 1446h246l440 -1067l227 1067h260l-333 -1446h-240l-444 1061l-226 -1061h-264zM637 1532q16 61 31 92q22 49 53.5 84t64.5 51.5t61 23.5t54 7q16 0 33.5 -2.5t31 -5.5t29.5 -8t24.5 -8.5t19.5 -8t12 -4.5q5 -2 21 -8t25 -9t23 -7.5t26 -6.5t23 -2 q36 0 58.5 17.5t38.5 52.5h151q-17 -62 -37 -98q-84 -160 -237 -160q-11 0 -21 0.5t-17 1t-18 3.5t-16.5 4t-20 6.5t-21 7.5t-27.5 10t-31 12q-64 22 -94 22q-9 0 -17 -1.5t-14.5 -4t-13 -6.5t-11 -7t-9 -8.5t-7 -9t-6 -9.5t-5 -8t-4.5 -7l-2 -6h-151z" />
<glyph unicode="&#xd2;" horiz-adv-x="1536" d="M154 588q0 115 24 221q59 301 260 485q203 183 496 183q170 0 293 -62q40 -20 78.5 -49t81 -78t73.5 -108.5t51.5 -144.5t20.5 -181q0 -104 -27 -229q-36 -150 -106 -277q-27 -48 -57.5 -90.5t-88.5 -98.5t-124.5 -95t-166 -67t-212.5 -28q-160 0 -285 58 q-106 49 -178 140.5t-102.5 196.5t-30.5 224zM430 596q0 -233 148 -330q76 -53 194 -53q128 0 223 61q174 109 242 402q1 4 5 22.5t6.5 34t6 38t5.5 47.5t2 50q0 188 -105 289q-86 84 -231 84q-228 0 -355 -184q-63 -92 -102 -221t-39 -240zM801 1784h305l68 -244h-205z" />
<glyph unicode="&#xd3;" horiz-adv-x="1536" d="M154 588q0 115 24 221q59 301 260 485q203 183 496 183q170 0 293 -62q40 -20 78.5 -49t81 -78t73.5 -108.5t51.5 -144.5t20.5 -181q0 -104 -27 -229q-36 -150 -106 -277q-27 -48 -57.5 -90.5t-88.5 -98.5t-124.5 -95t-166 -67t-212.5 -28q-160 0 -285 58 q-106 49 -178 140.5t-102.5 196.5t-30.5 224zM430 596q0 -233 148 -330q76 -53 194 -53q128 0 223 61q174 109 242 402q1 4 5 22.5t6.5 34t6 38t5.5 47.5t2 50q0 188 -105 289q-86 84 -231 84q-228 0 -355 -184q-63 -92 -102 -221t-39 -240zM901 1534l135 250h332l-260 -250 h-207z" />
<glyph unicode="&#xd4;" horiz-adv-x="1536" d="M154 588q0 115 24 221q59 301 260 485q203 183 496 183q170 0 293 -62q40 -20 78.5 -49t81 -78t73.5 -108.5t51.5 -144.5t20.5 -181q0 -104 -27 -229q-36 -150 -106 -277q-27 -48 -57.5 -90.5t-88.5 -98.5t-124.5 -95t-166 -67t-212.5 -28q-160 0 -285 58 q-106 49 -178 140.5t-102.5 196.5t-30.5 224zM430 596q0 -233 148 -330q76 -53 194 -53q128 0 223 61q174 109 242 402q1 4 5 22.5t6.5 34t6 38t5.5 47.5t2 50q0 188 -105 289q-86 84 -231 84q-228 0 -355 -184q-63 -92 -102 -221t-39 -240zM649 1540l260 250h273l145 -250 h-229l-66 133l-121 -133h-262z" />
<glyph unicode="&#xd5;" horiz-adv-x="1536" d="M154 588q0 115 24 221q59 301 260 485q203 183 496 183q170 0 293 -62q40 -20 78.5 -49t81 -78t73.5 -108.5t51.5 -144.5t20.5 -181q0 -104 -27 -229q-36 -150 -106 -277q-27 -48 -57.5 -90.5t-88.5 -98.5t-124.5 -95t-166 -67t-212.5 -28q-160 0 -285 58 q-106 49 -178 140.5t-102.5 196.5t-30.5 224zM430 596q0 -233 148 -330q76 -53 194 -53q128 0 223 61q174 109 242 402q1 4 5 22.5t6.5 34t6 38t5.5 47.5t2 50q0 188 -105 289q-86 84 -231 84q-228 0 -355 -184q-63 -92 -102 -221t-39 -240zM647 1532q10 40 31 92 q22 49 53.5 84t64.5 51.5t61 23.5t54 7q16 0 33.5 -2.5t31 -5.5t29.5 -8t24.5 -8.5t19.5 -8t12 -4.5q91 -33 119 -33q67 0 96 70h151q-14 -58 -36 -98q-84 -160 -238 -160q-9 0 -16.5 0.5t-14 1t-14.5 2t-12.5 2t-14.5 4t-14.5 4.5t-18 6t-19 7t-23 8.5t-25.5 9.5 q-64 22 -94 22q-10 0 -19 -1.5t-16 -5t-13 -7t-11 -9t-9 -9.5t-7.5 -10.5t-5 -9.5t-4.5 -8.5t-3 -6.5h-152z" />
<glyph unicode="&#xd6;" horiz-adv-x="1536" d="M154 588q0 115 24 221q59 301 260 485q203 183 496 183q170 0 293 -62q40 -20 78.5 -49t81 -78t73.5 -108.5t51.5 -144.5t20.5 -181q0 -104 -27 -229q-36 -150 -106 -277q-27 -48 -57.5 -90.5t-88.5 -98.5t-124.5 -95t-166 -67t-212.5 -28q-160 0 -285 58 q-106 49 -178 140.5t-102.5 196.5t-30.5 224zM430 596q0 -233 148 -330q76 -53 194 -53q128 0 223 61q174 109 242 402q1 4 5 22.5t6.5 34t6 38t5.5 47.5t2 50q0 188 -105 289q-86 84 -231 84q-228 0 -355 -184q-63 -92 -102 -221t-39 -240zM637 1538l57 252h258l-57 -252 h-258zM1112 1538l57 252h261l-60 -252h-258z" />
<glyph unicode="&#xd7;" horiz-adv-x="1482" d="M227 342l375 305l-264 328l203 164l264 -328l379 307l133 -164l-377 -309l266 -330l-205 -165l-264 331l-375 -305z" />
<glyph unicode="&#xd8;" horiz-adv-x="1536" d="M123 70l137 139q-6 7 -20 31q-86 148 -86 358q0 43 5 93t19.5 124.5t48 159.5t82.5 162q18 28 37 54t51.5 61.5t68 65t85.5 60t104 51.5t124 34.5t145 13.5q213 0 358 -99q25 -17 68 -57l123 125l83 -84l-133 -133q105 -152 105 -377q0 -147 -49 -305q-12 -40 -28.5 -81 t-48.5 -100.5t-70.5 -111t-97.5 -106t-127.5 -92.5t-162.5 -62.5t-199 -24.5q-251 0 -409 148l-129 -131zM422 618q0 -111 35 -206l719 735l-27 27q-94 79 -227 79q-33 0 -69 -6t-84 -22t-99.5 -52t-94.5 -88q-49 -59 -82.5 -133t-47.5 -143t-18.5 -112.5t-4.5 -78.5z M522 303q13 -18 33 -33q33 -27 87.5 -43t82.5 -18t49 -2q99 0 182 41.5t138.5 109.5t95 155t57 176.5t17.5 176.5q0 94 -25 172z" />
<glyph unicode="&#xd9;" horiz-adv-x="1409" d="M141 379q0 85 39 250l191 817h270l-186 -815q-39 -173 -39 -215q0 -90 55 -140q71 -67 211 -67q96 0 174 39q27 14 50 32.5t38.5 34.5t30 44t22 44t17.5 51.5t13.5 49.5t12.5 55l205 887h273l-207 -897q-19 -77 -29.5 -116.5t-35 -106t-50.5 -107.5q-42 -64 -124 -128 t-206 -97q-94 -25 -204 -25q-294 0 -431 162q-92 103 -90 248zM694 1784h305l68 -244h-205z" />
<glyph unicode="&#xda;" horiz-adv-x="1409" d="M141 379q0 85 39 250l191 817h270l-186 -815q-39 -173 -39 -215q0 -90 55 -140q71 -67 211 -67q96 0 174 39q27 14 50 32.5t38.5 34.5t30 44t22 44t17.5 51.5t13.5 49.5t12.5 55l205 887h273l-207 -897q-19 -77 -29.5 -116.5t-35 -106t-50.5 -107.5q-42 -64 -124 -128 t-206 -97q-94 -25 -204 -25q-294 0 -431 162q-92 103 -90 248zM838 1534l133 250h334l-261 -250h-206z" />
<glyph unicode="&#xdb;" horiz-adv-x="1409" d="M141 379q0 85 39 250l191 817h270l-186 -815q-39 -173 -39 -215q0 -90 55 -140q71 -67 211 -67q96 0 174 39q27 14 50 32.5t38.5 34.5t30 44t22 44t17.5 51.5t13.5 49.5t12.5 55l205 887h273l-207 -897q-19 -77 -29.5 -116.5t-35 -106t-50.5 -107.5q-42 -64 -124 -128 t-206 -97q-94 -25 -204 -25q-294 0 -431 162q-92 103 -90 248zM629 1540l260 250h270l148 -250h-232l-63 133l-121 -133h-262z" />
<glyph unicode="&#xdc;" horiz-adv-x="1409" d="M141 379q0 85 39 250l191 817h270l-186 -815q-39 -173 -39 -215q0 -90 55 -140q71 -67 211 -67q96 0 174 39q27 14 50 32.5t38.5 34.5t30 44t22 44t17.5 51.5t13.5 49.5t12.5 55l205 887h273l-207 -897q-19 -77 -29.5 -116.5t-35 -106t-50.5 -107.5q-42 -64 -124 -128 t-206 -97q-94 -25 -204 -25q-294 0 -431 162q-92 103 -90 248zM590 1538l59 252h258l-57 -252h-260zM1067 1538l57 252h258l-57 -252h-258z" />
<glyph unicode="&#xdd;" horiz-adv-x="1236" d="M242 1446h280l197 -639l455 639h313l-670 -871l-133 -575h-274l133 575zM752 1534l135 250h332l-261 -250h-206z" />
<glyph unicode="&#xde;" horiz-adv-x="1236" d="M47 0l334 1446h272l-47 -205h121q87 0 130.5 -1t101 -7t91 -18.5t71 -35t71.5 -57.5q102 -106 102 -282q0 -128 -60.5 -254.5t-184.5 -202.5q-75 -45 -160.5 -60.5t-243.5 -15.5h-256l-70 -307h-272zM440 526h156h65t53 1t51.5 3.5t41 7t41.5 11.5t33 17.5t36 25t31 33.5 q25 29 46.5 79.5t21.5 106.5q0 70 -43 119q-17 21 -39.5 34t-38.5 20t-55 10t-56 3h-75h-160z" />
<glyph unicode="&#xdf;" d="M39 0l233 1008q12 54 18 77.5t20 70t28 74.5t37 62.5t51 61.5q115 110 317 110q23 0 45.5 -1t72.5 -10.5t91.5 -25t88 -49.5t75.5 -80q45 -76 45 -163q0 -55 -14 -109q-42 -147 -191 -190q-57 -15 -139 -15q134 -15 207 -94q74 -78 74 -221q0 -29 -5.5 -70t-21 -104.5 t-52.5 -129.5t-91 -114q-62 -54 -133 -82q-85 -31 -189 -31q-107 0 -217 37l47 207q70 -20 99.5 -26.5t64.5 -6.5q131 0 199 113q28 45 37 98q16 64 16 111q0 108 -66 166q-29 25 -67.5 36t-108.5 11q-32 0 -59 -4l45 186q41 -8 90 -8q123 0 184 68q52 58 52 147 q0 76 -39 119q-13 13 -43 26q-43 19 -86 19q-109 0 -166 -78q-24 -31 -37.5 -71t-35.5 -131q-2 -6 -2.5 -9.5t-2 -9t-2.5 -10.5l-221 -965h-248z" />
<glyph unicode="&#xe0;" d="M59 270q0 85 37.5 159.5t106.5 119.5q62 40 131.5 55t167.5 23l192 16q80 7 137 27q15 68 15 84q0 108 -189 108q-139 0 -180 -82q-9 -18 -18 -63h-260q5 89 75 174q57 69 150 107t250 38q106 0 180 -18q24 -5 46 -12t58.5 -27t62 -45.5t45 -71.5t19.5 -102 q0 -72 -38 -234l-46 -198q-38 -165 -38 -230q0 -48 12 -98h-264q-5 63 0 102q-27 -23 -48.5 -39t-61 -38t-91 -33.5t-111.5 -11.5q-78 0 -139.5 19.5t-98.5 49.5t-61 69.5t-33 77t-8 74.5zM313 305q0 -26 15 -55q38 -76 141 -76q87 0 182 57q48 29 54 33q26 22 43 43l40 178 l-237 -28q-10 -1 -29.5 -3t-29.5 -3q-41 -5 -63.5 -10t-51.5 -22t-45 -46q-19 -32 -19 -68zM498 1446h307l76 -279h-203z" />
<glyph unicode="&#xe1;" d="M59 270q0 85 37.5 159.5t106.5 119.5q62 40 131.5 55t167.5 23l192 16q80 7 137 27q15 68 15 84q0 108 -189 108q-139 0 -180 -82q-9 -18 -18 -63h-260q5 89 75 174q57 69 150 107t250 38q106 0 180 -18q24 -5 46 -12t58.5 -27t62 -45.5t45 -71.5t19.5 -102 q0 -72 -38 -234l-46 -198q-38 -165 -38 -230q0 -48 12 -98h-264q-5 63 0 102q-27 -23 -48.5 -39t-61 -38t-91 -33.5t-111.5 -11.5q-78 0 -139.5 19.5t-98.5 49.5t-61 69.5t-33 77t-8 74.5zM313 305q0 -26 15 -55q38 -76 141 -76q87 0 182 57q48 29 54 33q26 22 43 43l40 178 l-237 -28q-10 -1 -29.5 -3t-29.5 -3q-41 -5 -63.5 -10t-51.5 -22t-45 -46q-19 -32 -19 -68zM618 1167l148 279h338l-266 -279h-220z" />
<glyph unicode="&#xe2;" d="M59 270q0 85 37.5 159.5t106.5 119.5q62 40 131.5 55t167.5 23l192 16q80 7 137 27q15 68 15 84q0 108 -189 108q-139 0 -180 -82q-9 -18 -18 -63h-260q5 89 75 174q57 69 150 107t250 38q106 0 180 -18q24 -5 46 -12t58.5 -27t62 -45.5t45 -71.5t19.5 -102 q0 -72 -38 -234l-46 -198q-38 -165 -38 -230q0 -48 12 -98h-264q-5 63 0 102q-27 -23 -48.5 -39t-61 -38t-91 -33.5t-111.5 -11.5q-78 0 -139.5 19.5t-98.5 49.5t-61 69.5t-33 77t-8 74.5zM313 305q0 -26 15 -55q38 -76 141 -76q87 0 182 57q48 29 54 33q26 22 43 43l40 178 l-237 -28q-10 -1 -29.5 -3t-29.5 -3q-41 -5 -63.5 -10t-51.5 -22t-45 -46q-19 -32 -19 -68zM399 1169l283 277h254l147 -277h-211l-77 158l-136 -158h-260z" />
<glyph unicode="&#xe3;" d="M59 270q0 85 37.5 159.5t106.5 119.5q62 40 131.5 55t167.5 23l192 16q80 7 137 27q15 68 15 84q0 108 -189 108q-139 0 -180 -82q-9 -18 -18 -63h-260q5 89 75 174q57 69 150 107t250 38q106 0 180 -18q24 -5 46 -12t58.5 -27t62 -45.5t45 -71.5t19.5 -102 q0 -72 -38 -234l-46 -198q-38 -165 -38 -230q0 -48 12 -98h-264q-5 63 0 102q-27 -23 -48.5 -39t-61 -38t-91 -33.5t-111.5 -11.5q-78 0 -139.5 19.5t-98.5 49.5t-61 69.5t-33 77t-8 74.5zM313 305q0 -26 15 -55q38 -76 141 -76q87 0 182 57q48 29 54 33q26 22 43 43l40 178 l-237 -28q-10 -1 -29.5 -3t-29.5 -3q-41 -5 -63.5 -10t-51.5 -22t-45 -46q-19 -32 -19 -68zM389 1188q24 100 72 160q76 98 194 98q22 0 48.5 -5.5t43 -10.5t37.5 -13l21 -8q85 -31 119 -31q64 3 96 68h149q-12 -49 -36 -98q-85 -160 -238 -160q-12 0 -22 0.5t-22 3 t-18.5 3.5t-23 6.5t-23 8t-30.5 11t-35 12.5q-62 22 -92 22q-10 0 -19 -1.5t-16 -5t-13 -7t-11 -9t-9 -9.5t-7.5 -10.5t-5 -9.5t-4.5 -8.5t-3 -6.5h-152z" />
<glyph unicode="&#xe4;" d="M59 270q0 85 37.5 159.5t106.5 119.5q62 40 131.5 55t167.5 23l192 16q80 7 137 27q15 68 15 84q0 108 -189 108q-139 0 -180 -82q-9 -18 -18 -63h-260q5 89 75 174q57 69 150 107t250 38q106 0 180 -18q24 -5 46 -12t58.5 -27t62 -45.5t45 -71.5t19.5 -102 q0 -72 -38 -234l-46 -198q-38 -165 -38 -230q0 -48 12 -98h-264q-5 63 0 102q-27 -23 -48.5 -39t-61 -38t-91 -33.5t-111.5 -11.5q-78 0 -139.5 19.5t-98.5 49.5t-61 69.5t-33 77t-8 74.5zM313 305q0 -26 15 -55q38 -76 141 -76q87 0 182 57q48 29 54 33q26 22 43 43l40 178 l-237 -28q-10 -1 -29.5 -3t-29.5 -3q-41 -5 -63.5 -10t-51.5 -22t-45 -46q-19 -32 -19 -68zM389 1161l57 254h261l-60 -254h-258zM864 1161l60 254h258l-60 -254h-258z" />
<glyph unicode="&#xe5;" d="M59 270q0 85 37.5 159.5t106.5 119.5q62 40 131.5 55t167.5 23l192 16q80 7 137 27q15 68 15 84q0 108 -189 108q-139 0 -180 -82q-9 -18 -18 -63h-260q5 89 75 174q57 69 150 107t250 38q106 0 180 -18q24 -5 46 -12t58.5 -27t62 -45.5t45 -71.5t19.5 -102 q0 -72 -38 -234l-46 -198q-38 -165 -38 -230q0 -48 12 -98h-264q-5 63 0 102q-27 -23 -48.5 -39t-61 -38t-91 -33.5t-111.5 -11.5q-78 0 -139.5 19.5t-98.5 49.5t-61 69.5t-33 77t-8 74.5zM313 305q0 -26 15 -55q38 -76 141 -76q87 0 182 57q48 29 54 33q26 22 43 43l40 178 l-237 -28q-10 -1 -29.5 -3t-29.5 -3q-41 -5 -63.5 -10t-51.5 -22t-45 -46q-19 -32 -19 -68zM590 1282q0 39 14 72q16 38 59.5 74t114.5 36q91 0 146.5 -68.5t36.5 -156.5q-14 -65 -65 -107t-118 -42q-79 0 -133.5 56.5t-54.5 135.5zM686 1276q0 -22 10 -39q13 -27 40 -39 t42 -10q32 0 56 21t30 53q9 42 -18 74t-70 32q-38 0 -64 -26t-26 -66z" />
<glyph unicode="&#xe6;" horiz-adv-x="1748" d="M51 272q0 27 5.5 56.5t20.5 68.5t48 77.5t80 68.5q46 29 111 47.5t101 23t122 13.5l270 28q4 32 4 52q0 1 0.5 10.5t0.5 18t-1 21.5t-5 24.5t-10 24t-17 23.5t-25 19q-40 24 -121 24q-109 0 -166 -57q-28 -28 -37 -82h-260q10 47 16 62q17 45 45 83t59 62t52.5 37 t42.5 22q61 25 123 35q75 13 129 13q28 0 61 -2.5t98.5 -21t108.5 -50.5q29 -20 58 -58q3 3 10 8q32 26 54 41t64.5 37.5t95.5 34t114 11.5q51 0 99.5 -8t108.5 -35.5t104 -72.5t74.5 -127t30.5 -190q0 -62 -12 -135h-702q-9 -49 -9 -80q0 -54 17 -100q24 -59 79 -92 t121 -33q84 0 154.5 48.5t120.5 125.5l199 -121q-63 -78 -91 -102q-157 -152 -391 -152q-78 0 -142 16.5t-107.5 45.5t-70 56t-50.5 61q-1 -1 -8 -8.5t-8.5 -9.5t-8.5 -9t-10 -9.5t-10 -9t-12 -10.5t-13.5 -10t-16 -10.5t-17 -10.5t-19.5 -12q-135 -82 -305 -82 q-28 0 -56 3.5t-77.5 15t-96 43.5t-78.5 80q-49 75 -49 159zM303 297q0 -33 19 -61q42 -68 145 -68q72 0 149 41q43 22 72 49.5t46.5 64t27.5 71.5t18 87l-188 -22q-155 -19 -195 -37q-94 -42 -94 -125zM1044 653h441q0 1 -1 13t-2 23t-4.5 28t-8.5 31.5t-13.5 30.5 t-19.5 28q-22 27 -68 45q-36 12 -76 12q-115 0 -186 -84q-42 -53 -62 -127z" />
<glyph unicode="&#xe7;" horiz-adv-x="1093" d="M92 414q0 84 29 196q60 208 204 325t334 112q14 0 33 -1.5t56.5 -8.5t73 -18.5t76.5 -35.5t73 -55.5t57.5 -81.5t34.5 -111l-232 -78q-2 19 -3.5 29t-7.5 36.5t-17.5 43.5t-29.5 37t-48 30.5t-68 10.5q-66 1 -120.5 -27.5t-89 -73t-59 -100.5t-34.5 -109.5t-10 -101.5 q0 -143 80 -207q54 -43 129 -41q44 1 82.5 15.5t62.5 33.5t46 49t31.5 48t21.5 44q3 6 4 9l221 -92q-26 -63 -62 -114t-74.5 -82.5t-77 -54.5t-76.5 -35t-64.5 -18.5t-49.5 -10.5q-6 -1 -8 -1l-96 -127h18q76 0 117 -40t41 -87q0 -71 -78 -126t-196 -56q-40 -1 -75 4 t-73.5 14.5t-40.5 10.5l19 82q69 -23 112 -23q46 0 79 17.5t36 44.5q3 26 -22 38.5t-68 12.5q-26 0 -74 -6l13 57l180 182q-77 6 -140 28t-104.5 51.5t-73 69t-48.5 77t-27.5 80t-13.5 73.5t-3 62z" />
<glyph unicode="&#xe8;" horiz-adv-x="1110" d="M94 420q0 29 4 67t15.5 96.5t38 124t65.5 119.5q26 36 58 68.5t84.5 70t128 59.5t163.5 22q122 0 209 -41q36 -17 70 -45t69.5 -72.5t57.5 -113t22 -150.5q0 -77 -16 -148h-711q-6 -42 -6 -71q0 -43 10 -76q6 -24 18.5 -47t36 -49t64.5 -42t94 -16q55 0 101 17.5t79 49.5 t47.5 51t33.5 49q3 5 4 7l206 -127q-80 -123 -208 -186.5t-279 -63.5q-209 0 -334 120t-125 327zM395 657h436q3 56 -10 95q-5 18 -16 35.5t-29.5 36.5t-50.5 30.5t-72 11.5q-64 0 -119 -30.5t-92 -83.5q-29 -42 -47 -95zM477 1446h305l76 -279h-203z" />
<glyph unicode="&#xe9;" horiz-adv-x="1110" d="M94 420q0 29 4 67t15.5 96.5t38 124t65.5 119.5q26 36 58 68.5t84.5 70t128 59.5t163.5 22q122 0 209 -41q36 -17 70 -45t69.5 -72.5t57.5 -113t22 -150.5q0 -77 -16 -148h-711q-6 -42 -6 -71q0 -43 10 -76q6 -24 18.5 -47t36 -49t64.5 -42t94 -16q55 0 101 17.5t79 49.5 t47.5 51t33.5 49q3 5 4 7l206 -127q-80 -123 -208 -186.5t-279 -63.5q-209 0 -334 120t-125 327zM395 657h436q3 56 -10 95q-5 18 -16 35.5t-29.5 36.5t-50.5 30.5t-72 11.5q-64 0 -119 -30.5t-92 -83.5q-29 -42 -47 -95zM598 1167l147 279h338l-268 -279h-217z" />
<glyph unicode="&#xea;" horiz-adv-x="1110" d="M94 420q0 29 4 67t15.5 96.5t38 124t65.5 119.5q26 36 58 68.5t84.5 70t128 59.5t163.5 22q122 0 209 -41q36 -17 70 -45t69.5 -72.5t57.5 -113t22 -150.5q0 -77 -16 -148h-711q-6 -42 -6 -71q0 -43 10 -76q6 -24 18.5 -47t36 -49t64.5 -42t94 -16q55 0 101 17.5t79 49.5 t47.5 51t33.5 49q3 5 4 7l206 -127q-80 -123 -208 -186.5t-279 -63.5q-209 0 -334 120t-125 327zM379 1169l283 277h253l146 -277h-211l-76 158l-135 -158h-260zM395 657h436q3 56 -10 95q-5 18 -16 35.5t-29.5 36.5t-50.5 30.5t-72 11.5q-64 0 -119 -30.5t-92 -83.5 q-29 -42 -47 -95z" />
<glyph unicode="&#xeb;" horiz-adv-x="1110" d="M94 420q0 29 4 67t15.5 96.5t38 124t65.5 119.5q26 36 58 68.5t84.5 70t128 59.5t163.5 22q122 0 209 -41q36 -17 70 -45t69.5 -72.5t57.5 -113t22 -150.5q0 -77 -16 -148h-711q-6 -42 -6 -71q0 -43 10 -76q6 -24 18.5 -47t36 -49t64.5 -42t94 -16q55 0 101 17.5t79 49.5 t47.5 51t33.5 49q3 5 4 7l206 -127q-80 -123 -208 -186.5t-279 -63.5q-209 0 -334 120t-125 327zM365 1165l59 254h258l-59 -254h-258zM395 657h436q3 56 -10 95q-5 18 -16 35.5t-29.5 36.5t-50.5 30.5t-72 11.5q-64 0 -119 -30.5t-92 -83.5q-29 -42 -47 -95zM840 1165 l59 254h258l-57 -254h-260z" />
<glyph unicode="&#xec;" horiz-adv-x="512" d="M39 0l237 1018h246l-235 -1018h-248zM178 1446h305l78 -279h-205z" />
<glyph unicode="&#xed;" horiz-adv-x="512" d="M39 0l237 1018h246l-235 -1018h-248zM299 1167l147 279h338l-268 -279h-217z" />
<glyph unicode="&#xee;" horiz-adv-x="512" d="M39 0l237 1018h246l-235 -1018h-248zM80 1169l282 277h254l148 -277h-211l-78 158l-135 -158h-260z" />
<glyph unicode="&#xef;" horiz-adv-x="512" d="M39 0l237 1018h246l-235 -1018h-248zM66 1165l59 254h258l-57 -254h-260zM543 1165l57 254h258l-57 -254h-258z" />
<glyph unicode="&#xf0;" d="M88 410q0 75 19.5 156.5t59.5 164.5t110.5 154.5t162.5 113.5q105 48 211 48q148 0 226 -101q-36 161 -72 228l-318 -62l-36 115l288 59q-18 22 -46.5 61t-45.5 62l213 68q18 -24 32.5 -46.5t34 -54t29.5 -47.5l172 35l39 -119l-153 -31q106 -233 106 -509q0 -72 -9 -143 t-31.5 -153t-68 -159.5t-110.5 -136.5q-85 -78 -175.5 -108t-195.5 -32q-109 -2 -193 32.5t-129.5 84.5t-74 115t-37 113.5t-8.5 91.5zM336 422q0 -65 20.5 -116.5t68.5 -86t118 -35.5q46 0 90.5 16t88 50.5t79 98t55.5 149.5q12 59 12 118q-1 66 -22 113t-54 70t-65.5 33 t-67.5 10q-95 0 -165 -54q-78 -61 -118 -170.5t-40 -195.5z" />
<glyph unicode="&#xf1;" d="M39 0l237 1018h232l-27 -111q34 28 35 29q126 100 283 100q26 0 51.5 -3.5t60.5 -13t64 -29.5t54.5 -49.5t40.5 -77.5t15 -109q0 -84 -30 -209l-125 -545h-250l117 506q28 119 28 178q0 43 -14 76q-28 65 -119 65q-71 0 -141 -49q-64 -47 -96 -118t-68 -228l-100 -430 h-248zM389 1188q24 100 72 160q76 98 194 98q22 0 48.5 -5.5t43 -10.5t37.5 -13l21 -8q85 -31 119 -31q64 3 96 68h149q-12 -49 -36 -98q-85 -160 -238 -160q-12 0 -22 0.5t-22 3t-18.5 3.5t-23 6.5t-23 8t-30.5 11t-35 12.5q-62 22 -92 22q-10 0 -19 -1.5t-16 -5t-13 -7 t-11 -9t-9 -9.5t-7.5 -10.5t-5 -9.5t-4.5 -8.5t-3 -6.5h-152z" />
<glyph unicode="&#xf2;" d="M88 412q0 139 61 280t164 228q65 55 172 94q98 33 195 33q88 0 176 -31q69 -25 119.5 -67.5t76 -85t41 -94t18.5 -83.5t3 -65q0 -87 -20 -164q-47 -210 -179 -334q-160 -150 -391 -150q-175 0 -288 93q-71 61 -109.5 154.5t-38.5 191.5zM336 420q0 -102 54 -169t155 -67 q68 0 125 31q48 26 85.5 68.5t57.5 89t29 73.5t14 52q12 69 12 116q0 58 -14 99q-17 49 -62.5 89t-129.5 40q-134 0 -213 -99q-50 -59 -81.5 -149.5t-31.5 -173.5zM498 1446h307l76 -279h-203z" />
<glyph unicode="&#xf3;" d="M88 412q0 139 61 280t164 228q65 55 172 94q98 33 195 33q88 0 176 -31q69 -25 119.5 -67.5t76 -85t41 -94t18.5 -83.5t3 -65q0 -87 -20 -164q-47 -210 -179 -334q-160 -150 -391 -150q-175 0 -288 93q-71 61 -109.5 154.5t-38.5 191.5zM336 420q0 -102 54 -169t155 -67 q68 0 125 31q48 26 85.5 68.5t57.5 89t29 73.5t14 52q12 69 12 116q0 58 -14 99q-17 49 -62.5 89t-129.5 40q-134 0 -213 -99q-50 -59 -81.5 -149.5t-31.5 -173.5zM618 1167l148 279h338l-266 -279h-220z" />
<glyph unicode="&#xf4;" d="M88 412q0 139 61 280t164 228q65 55 172 94q98 33 195 33q88 0 176 -31q69 -25 119.5 -67.5t76 -85t41 -94t18.5 -83.5t3 -65q0 -87 -20 -164q-47 -210 -179 -334q-160 -150 -391 -150q-175 0 -288 93q-71 61 -109.5 154.5t-38.5 191.5zM336 420q0 -102 54 -169t155 -67 q68 0 125 31q48 26 85.5 68.5t57.5 89t29 73.5t14 52q12 69 12 116q0 58 -14 99q-17 49 -62.5 89t-129.5 40q-134 0 -213 -99q-50 -59 -81.5 -149.5t-31.5 -173.5zM399 1169l283 277h254l147 -277h-211l-77 158l-136 -158h-260z" />
<glyph unicode="&#xf5;" d="M88 412q0 139 61 280t164 228q65 55 172 94q98 33 195 33q88 0 176 -31q69 -25 119.5 -67.5t76 -85t41 -94t18.5 -83.5t3 -65q0 -87 -20 -164q-47 -210 -179 -334q-160 -150 -391 -150q-175 0 -288 93q-71 61 -109.5 154.5t-38.5 191.5zM336 420q0 -102 54 -169t155 -67 q68 0 125 31q48 26 85.5 68.5t57.5 89t29 73.5t14 52q12 69 12 116q0 58 -14 99q-17 49 -62.5 89t-129.5 40q-134 0 -213 -99q-50 -59 -81.5 -149.5t-31.5 -173.5zM389 1188q24 100 72 160q76 98 194 98q22 0 48.5 -5.5t43 -10.5t37.5 -13l21 -8q85 -31 119 -31q64 3 96 68 h149q-12 -49 -36 -98q-85 -160 -238 -160q-12 0 -22 0.5t-22 3t-18.5 3.5t-23 6.5t-23 8t-30.5 11t-35 12.5q-62 22 -92 22q-10 0 -19 -1.5t-16 -5t-13 -7t-11 -9t-9 -9.5t-7.5 -10.5t-5 -9.5t-4.5 -8.5t-3 -6.5h-152z" />
<glyph unicode="&#xf6;" d="M88 412q0 139 61 280t164 228q65 55 172 94q98 33 195 33q88 0 176 -31q69 -25 119.5 -67.5t76 -85t41 -94t18.5 -83.5t3 -65q0 -87 -20 -164q-47 -210 -179 -334q-160 -150 -391 -150q-175 0 -288 93q-71 61 -109.5 154.5t-38.5 191.5zM336 420q0 -102 54 -169t155 -67 q68 0 125 31q48 26 85.5 68.5t57.5 89t29 73.5t14 52q12 69 12 116q0 58 -14 99q-17 49 -62.5 89t-129.5 40q-134 0 -213 -99q-50 -59 -81.5 -149.5t-31.5 -173.5zM369 1161l59 254h258l-57 -254h-260zM846 1161l57 254h258l-57 -254h-258z" />
<glyph unicode="&#xf7;" horiz-adv-x="1482" d="M193 526l53 228h1157l-53 -228h-1157zM553 137l61 262h265l-60 -262h-266zM723 877l61 264h265l-60 -264h-266z" />
<glyph unicode="&#xf8;" d="M43 74l115 100q-10 12 -21 31q-47 92 -47 223q0 35 5.5 76.5t20 101.5t48 127t82.5 125q52 61 115 102t124.5 58t103 23t81.5 6q204 0 325 -127l99 86l69 -84l-106 -95q51 -84 51 -233q0 -90 -21 -174q-38 -147 -134.5 -260.5t-233.5 -159.5q-83 -27 -180 -27 q-156 0 -265 72q-30 20 -51 41l-108 -94zM319 438q0 -52 17 -106l491 438q-22 25 -30 31q-58 45 -140 45q-88 0 -166 -54t-122 -135q-50 -89 -50 -219zM389 233q3 -6 17 -20q48 -43 129 -43q123 0 213.5 87t119.5 212q13 60 13 131q0 31 -9 64z" />
<glyph unicode="&#xf9;" d="M115 248q0 68 39 244l122 526h246l-114 -498q-35 -149 -35 -201q0 -20 6 -38q8 -32 42 -60t93 -28q119 0 195 106q10 14 19 28.5t17 32.5l14 31.5t13 35.5l10.5 33t10 36t8.5 33t8.5 35t7.5 32l98 422h246l-235 -1018h-228l25 109q-133 -127 -301 -127 q-132 0 -219.5 68.5t-87.5 197.5zM498 1446h307l76 -279h-203z" />
<glyph unicode="&#xfa;" d="M115 248q0 68 39 244l122 526h246l-114 -498q-35 -149 -35 -201q0 -20 6 -38q8 -32 42 -60t93 -28q119 0 195 106q10 14 19 28.5t17 32.5l14 31.5t13 35.5l10.5 33t10 36t8.5 33t8.5 35t7.5 32l98 422h246l-235 -1018h-228l25 109q-133 -127 -301 -127 q-132 0 -219.5 68.5t-87.5 197.5zM618 1167l148 279h338l-266 -279h-220z" />
<glyph unicode="&#xfb;" d="M115 248q0 68 39 244l122 526h246l-114 -498q-35 -149 -35 -201q0 -20 6 -38q8 -32 42 -60t93 -28q119 0 195 106q10 14 19 28.5t17 32.5l14 31.5t13 35.5l10.5 33t10 36t8.5 33t8.5 35t7.5 32l98 422h246l-235 -1018h-228l25 109q-133 -127 -301 -127 q-132 0 -219.5 68.5t-87.5 197.5zM399 1169l283 277h254l147 -277h-211l-77 158l-136 -158h-260z" />
<glyph unicode="&#xfc;" d="M115 248q0 68 39 244l122 526h246l-114 -498q-35 -149 -35 -201q0 -20 6 -38q8 -32 42 -60t93 -28q119 0 195 106q10 14 19 28.5t17 32.5l14 31.5t13 35.5l10.5 33t10 36t8.5 33t8.5 35t7.5 32l98 422h246l-235 -1018h-228l25 109q-133 -127 -301 -127 q-132 0 -219.5 68.5t-87.5 197.5zM369 1161l57 254h258l-57 -254h-258zM844 1161l57 254h260l-59 -254h-258z" />
<glyph unicode="&#xfd;" horiz-adv-x="937" d="M-94 -350l51 219q35 -10 102 -10q16 0 25.5 0.5t29 6t34 16t32.5 32.5t31 53l-94 1051h250l26 -793l404 793h260l-580 -1051q-5 -9 -15 -28l-40.5 -73.5t-39 -64t-44 -59t-47 -45t-57 -37t-66.5 -20.5t-82 -9q-36 0 -74 4t-67.5 9t-38.5 6zM512 1167l147 279h338 l-266 -279h-219z" />
<glyph unicode="&#xfe;" horiz-adv-x="1193" d="M-43 -369l420 1815h241l-124 -539q55 75 132 107.5t154 32.5q50 0 99 -12.5t100 -43.5t89 -78t62.5 -123.5t24.5 -171.5q0 -70 -14.5 -143.5t-42.5 -146t-73.5 -136t-103 -112.5t-136 -78t-167.5 -29q-216 -3 -303 150l-112 -492h-246zM389 420q1 -71 24 -120.5t59 -72 t70 -31.5t70 -8q94 3 171.5 80t107.5 230q14 65 14 114q0 102 -53.5 166t-155.5 64q-45 0 -84 -13t-66 -32.5t-50 -48.5t-36.5 -53t-25 -55.5t-15.5 -46.5t-9 -34q-1 -6 -2 -8q-19 -85 -19 -131z" />
<glyph unicode="&#xff;" horiz-adv-x="937" d="M-94 -350l51 219q40 -10 102 -10q43 0 58 6q59 19 94 102l-94 1051h250l26 -793l404 793h260l-580 -1051q-65 -116 -67 -119q-44 -73 -81.5 -116t-98 -72t-140.5 -29q-58 0 -184 19zM279 1165l59 254h258l-57 -254h-260zM756 1165l57 254h260l-59 -254h-258z" />
<glyph unicode="&#x152;" horiz-adv-x="2174" d="M156 557q0 134 37 272q31 119 83.5 219t109.5 165t124.5 115.5t122.5 76.5t110 43q99 29 215 29q86 0 140 -11q118 -20 260 -125l24 105h922l-55 -236h-643l-80 -354h604l-53 -233h-607l-88 -383h750l-55 -240h-1004l19 86q-50 -31 -88 -50t-120 -40t-173 -21 q-137 0 -244 45q-45 19 -85 45t-82.5 71.5t-73 101.5t-50.5 139t-20 180zM436 575q0 -156 72 -251q34 -46 101 -82.5t165 -36.5q189 0 316 147q120 138 174 371q22 99 22 190q0 243 -176 318q-68 29 -149 29q-70 -1 -135 -24.5t-108 -54t-82.5 -72.5t-56.5 -67.5t-32 -50.5 q-49 -84 -80 -200.5t-31 -215.5z" />
<glyph unicode="&#x153;" horiz-adv-x="1835" d="M92 414q0 49 6 96q4 30 11 62.5t27.5 89t48 105.5t76 103t108.5 91q142 86 288 86q26 0 54 -4t70 -15t86.5 -37.5t80.5 -66.5q28 -30 51 -70q46 57 70 80q129 113 315 113q106 0 195 -37q48 -20 85.5 -49.5t71 -77t52 -121t18.5 -168.5q0 -56 -8 -115h-715q-8 -43 -8 -82 q0 -76 27 -121q28 -49 86 -76.5t117 -27.5q88 1 151 47.5t117 128.5l194 -104q-46 -74 -116 -138q-154 -133 -369 -133q-172 0 -278 90q-58 51 -89 113q-149 -205 -391 -203q-99 0 -186 35q-125 50 -185.5 157.5t-60.5 248.5zM330 422q0 -104 52.5 -172t154.5 -68 q70 0 129 31q140 74 182 301q10 50 10 94q0 86 -35.5 140t-79.5 73q-38 19 -90 19q-72 0 -145 -43q-46 -29 -81 -75t-52.5 -89t-28.5 -90.5t-13.5 -74.5t-2.5 -46zM1118 649h449q0 133 -78 180q-45 27 -111 27q-56 0 -112 -25q-105 -47 -148 -182z" />
<glyph unicode="&#x178;" horiz-adv-x="1236" d="M242 1446h280l197 -639l455 639h313l-670 -871l-133 -575h-274l133 575zM514 1538l57 252h258l-57 -252h-258zM989 1538l58 252h260l-60 -252h-258z" />
<glyph unicode="&#x2c6;" horiz-adv-x="555" d="M-66 1169l283 277h254l150 -277h-211l-78 158l-135 -158h-263z" />
<glyph unicode="&#x2dc;" horiz-adv-x="555" d="M-113 1188q4 28 22.5 74t49.5 86q36 45 86.5 71.5t106.5 26.5q16 0 33 -2.5t31 -5.5t29.5 -8t24.5 -8.5t19.5 -8t11.5 -4.5q85 -31 119 -31q67 3 96 68h152q-11 -45 -37 -98q-85 -160 -238 -160q-12 0 -22 0.5t-22 3t-18.5 3.5t-23 6.5t-23 8t-30.5 11t-35 12.5 q-65 22 -92 22q-10 0 -19 -1.5t-16 -5t-13 -7t-11 -9t-9 -9.5t-7.5 -10.5t-5 -9.5t-4.5 -8.5t-3 -6.5h-152z" />
<glyph unicode="&#x2000;" horiz-adv-x="945" />
<glyph unicode="&#x2001;" horiz-adv-x="1890" />
<glyph unicode="&#x2002;" horiz-adv-x="945" />
<glyph unicode="&#x2003;" horiz-adv-x="1890" />
<glyph unicode="&#x2004;" horiz-adv-x="630" />
<glyph unicode="&#x2005;" horiz-adv-x="472" />
<glyph unicode="&#x2006;" horiz-adv-x="315" />
<glyph unicode="&#x2007;" horiz-adv-x="315" />
<glyph unicode="&#x2008;" horiz-adv-x="236" />
<glyph unicode="&#x2009;" horiz-adv-x="378" />
<glyph unicode="&#x200a;" horiz-adv-x="105" />
<glyph unicode="&#x2010;" horiz-adv-x="761" d="M113 508l53 231h592l-53 -231h-592z" />
<glyph unicode="&#x2011;" horiz-adv-x="761" d="M113 508l53 231h592l-53 -231h-592z" />
<glyph unicode="&#x2012;" horiz-adv-x="761" d="M113 508l53 231h592l-53 -231h-592z" />
<glyph unicode="&#x2013;" horiz-adv-x="1249" d="M113 506l53 231h1081l-53 -231h-1081z" />
<glyph unicode="&#x2014;" horiz-adv-x="1828" d="M113 508l53 231h1661l-53 -231h-1661z" />
<glyph unicode="&#x2018;" horiz-adv-x="512" d="M233 879l64 276q28 122 49 162q72 129 219 129q35 0 53 -2l-28 -129q-52 -10 -60 -15q-12 -7 -22 -18.5t-16 -20.5t-12.5 -27t-8 -24.5t-6.5 -29.5t-6 -25h110l-63 -276h-273z" />
<glyph unicode="&#x2019;" horiz-adv-x="512" d="M246 881l30 129q27 0 48 10.5t33.5 23t23.5 38.5t15.5 41t11.5 46h-111l63 277h271l-64 -277q-26 -122 -51 -163q-75 -127 -221 -127q-33 0 -49 2z" />
<glyph unicode="&#x201a;" horiz-adv-x="512" d="M-25 -289l31 129q28 0 49 10.5t33 22.5t23 39t14.5 40.5t11.5 47.5h-110l63 276h272l-65 -276q-34 -133 -47 -158q-72 -133 -225 -133q-34 0 -50 2z" />
<glyph unicode="&#x201c;" horiz-adv-x="894" d="M227 879l64 276q26 120 49 162q72 129 219 129q37 0 55 -2l-30 -129q-108 -7 -131 -160h110l-63 -276h-273zM610 879l64 276q28 122 49 162q34 62 90.5 95.5t126.5 33.5q37 0 55 -2l-28 -129q-52 -10 -60 -15q-19 -11 -32 -30t-18 -33.5t-12.5 -43t-10.5 -38.5h112 l-65 -276h-271z" />
<glyph unicode="&#x201d;" horiz-adv-x="894" d="M246 881l30 129q60 0 91.5 46.5t40.5 112.5h-111l63 277h271l-64 -277q-25 -119 -49 -161q-72 -129 -217 -129q-37 0 -55 2zM629 881l28 129q28 0 49 10.5t33 22.5t23 38.5t14.5 40.5t11.5 47h-110l63 277h273l-64 -277q-26 -122 -51 -163q-72 -127 -221 -127 q-33 0 -49 2z" />
<glyph unicode="&#x201e;" horiz-adv-x="894" d="M-23 -289l29 129q28 0 49 10.5t33 22.5t23 39t14.5 40.5t11.5 47.5h-110l63 276h272l-63 -276q-26 -123 -51 -164q-72 -127 -221 -127q-34 0 -50 2zM358 -289l31 129q28 0 49 10.5t33 22.5t23 39t14.5 40.5t11.5 47.5h-110l63 276h272l-65 -276q-29 -125 -49 -162 q-72 -129 -223 -129q-34 0 -50 2z" />
<glyph unicode="&#x2022;" horiz-adv-x="681" d="M150 494l106 460h465l-105 -460h-466z" />
<glyph unicode="&#x2026;" horiz-adv-x="2048" d="M139 0l51 227h232l-53 -227h-230zM823 0l51 227h232l-53 -227h-230zM1505 0l54 227h229l-53 -227h-230z" />
<glyph unicode="&#x202f;" horiz-adv-x="378" />
<glyph unicode="&#x2039;" horiz-adv-x="468" d="M82 489l55 240l395 254l-65 -287l-197 -102l146 -117l-58 -248z" />
<glyph unicode="&#x203a;" horiz-adv-x="468" d="M20 229l66 287l197 102l-146 117l58 248l276 -262l-55 -238z" />
<glyph unicode="&#x205f;" horiz-adv-x="472" />
<glyph unicode="&#x20ac;" horiz-adv-x="1484" d="M51 522l90 150h117q1 16 6 44.5t6 33.5h-172l88 149h121q103 264 277 391t452 127q165 0 278 -46t218 -163l-129 -217q-79 106 -169 155.5t-216 49.5q-292 0 -420 -297h756l-86 -149h-719q-6 -29 -10 -78h682l-84 -150h-602q42 -332 401 -332q113 0 223 45t197 123 l-72 -301q-175 -88 -397 -88q-141 0 -254 32t-198 97.5t-132 172.5t-51 251h-201z" />
<glyph unicode="&#x2122;" horiz-adv-x="1406" d="M213 1327l29 119h520l-27 -119h-180l-129 -561h-147l129 561h-195zM690 766l158 680h213l6 -477l227 477h215l-155 -680h-135l127 539l-269 -539h-119l-12 547l-119 -547h-137z" />
<glyph unicode="&#xe000;" horiz-adv-x="1013" d="M0 0v1014h1014v-1014h-1014z" />
</font>
</defs>
</svg>
